<svg width="234" height="565" viewBox="0 0 234 565" fill="none" xmlns="http://www.w3.org/2000/svg">
	<path d="M93.5135 58.213C89.5657 68.9089 89.2614 80.7334 89.2466 82.9683C89.1835 91.5407 91.1982 107.356 92.4115 111.058C95.7174 121.126 95.2239 134.855 108.225 139.5C138.112 150.181 108.028 146.423 115.894 145.169C122.358 144.133 111.338 128.874 117.876 130.148C123.645 131.272 127.893 135.742 132.212 139.507C136.527 143.271 142.416 146.78 147.926 145.261C153.198 143.806 148.501 154.528 153.729 152.961C158.426 151.554 153.643 157.795 158.622 157.394C165.364 156.852 156.775 158.987 160.622 154.082C161.635 152.791 195.143 139.039 174.057 112.621C172.388 110.53 173.95 105.255 175.204 102.946C182.361 89.7735 175.367 82.4746 171.772 80.8893C168.184 79.3041 164.848 79.0664 160.938 78.6803C153.858 77.9824 155.428 68.133 150.82 59.1374C149.439 56.4384 146.742 72.2465 144.75 70.0004C142.115 67.0229 138.045 65.4822 134.168 64.064C129.3 62.2857 124.365 60.4888 119.215 59.8688C110.203 58.781 120.321 40.8902 111.876 43.4444C111.876 43.4444 98.3925 44.9926 93.5135 58.213Z" fill="#DD0933"/>

	<path d="M116.503 355.786C116.503 355.786 110.366 530.911 111.825 551.806C112.889 567.057 156.401 560.2 156.401 560.2C138.669 553.365 124.61 554.482 124.269 530.507C124.091 517.502 139.812 456.036 158.623 377.879L116.503 355.786Z" fill="#F39974"/>

	<path d="M111.584 550.124L110.126 563.422H114.927L115.662 561.035C115.662 561.035 133.394 566.429 156.52 564.632C161.34 564.257 160.987 559.684 151.967 558.997C144.057 558.395 115.298 557.916 113.265 550.246L111.584 550.124Z" fill="#393B42"/>

	<path d="M55.5723 354.149C55.5723 354.149 80.105 530.911 81.5632 551.802C82.6281 567.057 126.139 560.2 126.139 560.2C108.408 553.365 94.349 554.482 94.0114 530.503C93.8259 517.501 95.2358 424.116 94.0114 356.194L55.5723 354.149Z" fill="#F39974"/>

	<path d="M81.3254 550.124L79.8672 563.422H84.6647L85.3993 561.035C85.3993 561.035 103.135 566.429 126.261 564.632C131.077 564.257 130.729 559.684 121.709 558.997C113.798 558.395 85.0394 557.916 83.0024 550.246L81.3254 550.124Z" fill="#393B42"/>

	<path d="M126.956 111.243C162.282 87.7538 142.822 71.7935 142.822 71.7935C127.216 54.467 133.932 44.9517 133.932 44.9517C132.08 44.5173 93.3777 48.9167 96.3051 85.7231C96.5315 88.6077 97.934 92.2163 99.2734 96.7605C99.2734 96.7605 108.902 118.434 89.2481 130.248C87.4263 131.339 85.3634 129.312 83.011 130.27L82.2393 152.965L89.2481 157.394C104.965 172.463 140.057 136.047 140.057 136.047C124.292 131.488 109.558 127.081 126.956 111.243Z" fill="#F39974"/>

	<path d="M111.34 43.3739C110.046 43.6152 114.528 73.0484 147.657 91.3327C147.657 91.3327 147.539 98.8507 151.516 107.668C153.011 110.991 153.56 133.274 161.916 111.834C170.276 90.3935 154.759 87.5348 154.963 79.0107C155.341 63.3994 147.32 36.7172 111.34 43.3739Z" fill="#DD0933"/>

	<path d="M132.971 221.388C133.973 219.817 202.918 279.593 146.859 440.369H65.7397C20.8632 281.312 71.1531 221.777 71.1531 221.777L132.971 221.388Z" fill="#DD0031"/>

	<path d="M91.0867 70.8617C90.6044 70.483 82.1448 69.8704 81.6996 75.4615C81.2506 81.0675 89.38 82.3743 89.38 82.3743L91.0867 70.8617Z" fill="#F39974"/>

	<path d="M132.3 246.143C132.3 246.143 145.798 242.278 157.059 230.851L170.806 242.278C158.625 257.99 134.166 260.299 134.166 260.299L132.3 246.143Z" fill="#F39874"/>

	<path d="M63.2917 151.469C-13.9612 100.302 30.8448 21.0985 31.342 19.8548L41.8348 34.4303C37.3045 47.8326 34.4216 65.8089 38.1542 78.2645C44.6658 99.983 56.1234 117.595 74.4413 131.224L63.2917 151.469Z" fill="#F39974"/>

	<path d="M126.145 130.37L107.901 151.951L91.0896 127.597C63.622 138.79 45.5081 86.3987 44.6176 90.7053L19.3057 107.69C38.336 149.052 63.852 157.416 63.852 157.416C63.852 157.416 69.4064 193.666 71.154 221.777L132.972 223.106C132.972 223.106 136.734 193.955 141.075 157.416C141.435 158.163 150.581 170.507 155.189 194.041L177.785 185.476C166.476 134.332 126.145 130.37 126.145 130.37Z" fill="#680F38"/>

	<path d="M119.558 261.966L118.891 248.229C139.769 247.212 146.841 240.21 155.1 230.851C167.366 216.962 163.567 206.886 157.578 193.135L176.419 185.992C182.846 209.478 182.968 227.324 170.806 242.278C159.96 255.614 145.138 260.718 119.558 261.966Z" fill="#F39974"/>

	<path d="M188.501 279.363C185.196 279.838 178.402 281.275 178.402 281.275C177.237 277.729 176.031 270.267 175.653 267.516C173.441 251.303 179.5 249.833 182.431 248.222C185.359 246.603 193.718 243.552 201.569 251.779C206.081 256.512 207.843 260.64 208.971 264.977C210.218 269.762 211.661 277.715 211.661 277.715C211.661 277.715 205.662 278.828 202.337 279.411L202.768 283.718C204.708 283.677 211.635 283.246 215.932 282.129C216.166 282.069 215.906 278.134 215.873 277.922C214.741 270.471 214.544 268.938 213.246 264.282C208.793 248.304 203.083 245.126 200.935 243.57C196.267 240.184 190.783 239.865 185.121 241.094C179.463 242.323 174.413 246.184 171.612 251.314C169.497 255.187 168.525 265.307 175.823 288.121C180.172 287.107 184.517 286.086 188.865 285.073L188.501 279.363Z" fill="#D3D5D4"/>

	<path d="M203.263 276.578L200.555 276.979C200.774 279.6 201.263 283.491 201.764 286.008C203.56 285.849 204.406 285.789 204.443 285.552C204.588 284.534 203.875 278.483 203.263 276.578Z" fill="#680F38"/>

	<path d="M187.372 286.81C186.889 284.408 186.04 280.454 185.554 278.056C186.403 277.867 188.259 277.689 188.259 277.689C188.259 277.689 189.917 283.888 190.407 286.324L187.372 286.81Z" fill="#680F38"/>

	<path d="M154.75 302.069C153.243 291.002 150.891 280.38 149.332 274.124C138.702 231.471 152.939 220.556 155.822 219.127C160.289 215.856 166.259 216.082 170.641 216.431C189.1 217.905 190.45 242.252 190.272 243.054L183.738 243.722C180.05 223.604 174.689 222.765 167.821 222.264C162.148 221.848 158.838 224.454 157.083 226.288C149.151 234.586 149.377 247.238 153.826 269.777C155.918 280.369 158.772 291.002 160.111 300.896L154.75 302.069Z" fill="#D3D5D4"/>

	<path d="M164.73 307.326C165.587 305.596 165.627 303.517 165.015 301.687C164.266 299.429 162.522 297.506 160.318 296.63C158.114 295.754 155.487 295.965 153.502 297.269C151.895 298.319 150.727 300.098 150.615 302.017C150.556 303.064 150.797 304.107 151.176 305.084C151.895 306.962 153.146 308.666 154.845 309.724C158.081 311.733 162.96 310.909 164.73 307.326Z" fill="#F3A4B8"/>

	<path d="M161.332 305.436C161.677 304.831 161.784 304.1 161.68 303.413C161.462 301.98 160.137 300.777 158.694 300.77C157.25 300.762 155.221 301.902 155.158 303.35C155.128 304.018 155.262 306.06 156.957 306.955C156.957 306.955 159.673 308.336 161.332 305.436Z" fill="#680F38"/>

	<path d="M128.633 212.949L154.071 266.944L109.339 294.306L83.2441 232.143L128.633 212.949Z" fill="white"/>

	<path d="M122.691 203.021C120.684 204.009 111.549 207.811 111.441 207.662C107.174 201.555 101.991 202.268 99.6313 206.188C98.4069 208.219 98.5294 210.732 99.9059 213.628L90.4111 219.42C90.4111 219.42 94.4814 226.89 95.409 228.79C107.208 223.452 116.936 217.991 128.26 212.589C126.401 209.4 124.546 206.211 122.691 203.021ZM103.071 211.687C102.373 210.751 102.125 208.074 102.993 207.09C103.598 206.407 104.666 206.289 105.52 206.608C106.373 206.931 107.831 208.319 108.377 209.051C108.198 209.351 103.204 211.516 103.071 211.687Z" fill="#FFD85A"/>

	<path d="M83.2441 228.352C89.9895 242.241 95.8816 254.169 103.644 268.656C107.751 276.326 111.458 283.469 116.99 293.066C120.581 291.354 125.134 288.86 128.169 287.412C132.814 285.199 140.487 281.434 146.312 278.765C156.401 274.139 157.469 272.896 167.365 267.865C155.833 244.754 133.115 203.645 133.115 203.645C133.115 203.645 86.09 226.541 83.2441 228.352Z" fill="#D3D5D4"/>

	<path d="M157.34 228.126C142.198 248.356 120.318 247.661 120.318 247.661L115.205 265.946C135.976 264.279 158.019 260.299 173.506 238.614L157.34 228.126Z" fill="#F39974"/>

	<path d="M22.251 44.0124C22.251 44.0124 25.5346 29.3218 33.126 15.4257C38.877 4.90429 43.5966 -0.278451 47.6816 0.0111291C47.6816 0.0111291 54.2452 0.118794 49.1361 11.7614L44.4165 22.3348C44.4165 22.3348 51.2176 17.0852 52.2676 19.7471C53.1841 22.0712 46.9841 23.6045 42.6207 32.6C41.4112 35.0837 39.9085 39.8729 38.6915 43.4889L22.251 44.0124Z" fill="#F39974"/>

	<path d="M146.355 259.857C146.355 259.857 130.938 265.155 113.815 266.024C100.848 266.681 93.3824 265.255 91.3343 261.316C91.3343 261.316 87.7167 255.198 101.349 253.312L113.786 251.678C113.786 251.678 105.089 248.367 106.944 245.894C108.569 243.726 113.5 248.589 124.275 247.513C127.25 247.227 132.523 245.89 136.552 244.97L146.355 259.857Z" fill="#F39974"/>
</svg>
