<svg width="344" height="526" viewBox="0 0 344 526" fill="none" xmlns="http://www.w3.org/2000/svg">
<path d="M115.341 2.89775C137.496 -6.59795 153.32 10.2841 153.32 10.2841C202.896 8.92387 188.664 76.1242 166.24 85.9516L86.8535 85.6945C106.9 64.0869 62.641 25.4817 115.341 2.89775Z" fill="#680436"/>
<path d="M139.251 16.7985C139.251 16.7985 112.933 15.4643 111.886 44.9576C111.867 45.5092 103.78 44.857 103.866 49.903C103.948 54.9639 111.353 55.4185 111.353 55.4185C111.353 55.4185 112.065 63.2521 117.852 72.2186C125.198 83.6038 133.028 108.826 98.9766 113.85C100.024 113.831 122.611 144.036 137.496 144.551C152.649 145.076 173.779 116.082 173.779 116.082C173.779 116.082 137.429 112.352 156.159 76.9218C159.432 70.7317 163.408 62.9428 164.653 55.2136C164.653 55.2136 173.806 20.7898 139.251 16.7985Z" fill="#C85846"/>
<path d="M147.032 330.574C153.528 345.421 164.678 517.432 164.678 517.432C164.678 517.432 235.355 534.389 233.965 520.473C233.779 517.522 227.261 515.912 217.113 512.528C201.841 507.437 175.746 502.887 177.185 483.206C181.362 426.142 192.494 360.034 184.146 305.754C184.146 305.754 140.536 315.727 147.032 330.574Z" fill="#C85846"/>
<path d="M163.343 506.748L219.359 517.924L220.701 513.709C225.024 514.004 235.872 516.568 236.021 525.996H163.801L163.343 506.748Z" fill="#393B42"/>
<path d="M81.3707 330.574C87.8664 345.421 99.0167 517.432 99.0167 517.432C99.0167 517.432 169.694 534.389 168.304 520.473C168.118 517.522 161.6 515.912 151.448 512.528C136.18 507.437 110.085 502.887 111.524 483.206C115.701 426.142 126.833 360.034 118.485 305.754C118.485 305.754 74.875 315.727 81.3707 330.574Z" fill="#C85846"/>
<path d="M97.6807 506.748L153.697 517.924L155.039 513.709C159.362 514.004 170.21 516.568 170.359 525.996H98.139L97.6807 506.748Z" fill="#393B42"/>
<path d="M264.391 176.53C264.391 176.53 278.318 165.301 289.11 149.91C297.29 138.245 300.316 130.493 297.861 126.29C297.861 126.29 294.29 119.362 284.575 130.922L275.798 141.525C275.798 141.525 277.807 131.515 274.416 131.794C271.464 132.033 273.1 139.453 265.818 148.836C263.806 151.423 259.486 155.545 256.285 158.746L264.391 176.53Z" fill="#C85846"/>
<path d="M184.346 167.5C191.833 183.726 207.369 199.054 216.928 202.192C221.225 203.601 254.416 195.245 281.3 159.778L265.078 149.738C248.949 167.683 233.922 174.353 225.347 175.225C220.219 175.747 207.47 154.248 203.885 146.936" fill="#C85846"/>
<path d="M154.053 12.7624C154.053 12.7624 144.877 43.5191 111.385 45.0992L102.598 38.283L109.947 26.3463C109.947 26.3463 120.24 16.0531 121.708 15.2332C123.18 14.4096 138.859 9.05803 138.859 9.05803L154.053 12.7624Z" fill="#680436"/>
<path d="M183.497 219.544C211.519 373.074 179.174 485.781 179.174 485.781H160.496L141.825 312.019L139.742 311.553L114.683 486.102L94.7378 485.871C86.3862 348.313 45.0978 249.387 114.333 216.164L183.497 219.544Z" fill="#393B42"/>
<path d="M84.81 259.2C84.81 259.2 67.3503 232.494 68.1441 228.935C72.4335 209.623 81.5901 180.547 84.5081 170.012L57.8546 160.62C54.2546 176.109 42.5638 212.936 44.7179 229.99C45.9589 239.832 62.8521 268.498 93.3144 286.696C93.3144 286.696 92.1293 266.914 84.81 259.2Z" fill="#C85846"/>
<path d="M82.634 183.04L91.731 161.675L97.6826 206.075L81.4452 244.759L191.622 244.364L182.119 215.336L182.358 168.61C182.73 170.381 194.92 187.848 194.92 187.848L220.147 168.245L204.468 144.554C204.468 144.554 185.063 114.148 162.159 111.431L139.605 136.751C139.605 136.751 121.008 116.574 114.68 108.662C114.68 108.662 77.0588 114.148 64.1681 140.824C58.4997 152.578 54.9407 162.074 50.5879 173.94L82.634 183.04Z" fill="#85ACD9"/>
<path d="M170.728 157.855H151.74V163.393H170.728V157.855Z" fill="white"/>
<path d="M58.7432 254.884C58.7432 254.884 68.7979 269.683 83.2501 281.698C94.2142 290.802 101.69 294.451 106.08 292.345C106.08 292.345 113.276 289.356 102.547 278.728L92.7011 269.117C92.7011 269.117 102.51 271.938 102.51 268.531C102.514 265.576 94.9856 266.594 86.2278 258.574C83.8129 256.353 80.0638 251.716 77.1308 248.262L58.7432 254.884Z" fill="#C85846"/>
<path d="M126.076 249.395C110.029 259.647 96.2663 268.58 79.6414 280.159C70.8352 286.286 62.6177 291.85 51.6611 300C54.2698 304.159 57.9705 309.376 60.1804 312.891C63.5569 318.265 69.2699 327.123 73.3693 333.883C80.4762 345.578 82.1532 346.711 89.7297 358.111C116.379 340.674 163.47 306.958 163.47 306.958C163.47 306.958 128.7 252.626 126.076 249.395Z" fill="#D3D5D4"/>
<path d="M162.744 294.097C161.246 291.779 155.287 281.135 155.451 280.983C162.319 274.878 160.702 268.632 155.566 266.303C152.902 265.095 149.842 265.602 146.499 267.708L138.043 256.897C138.043 256.897 129.479 262.953 127.284 264.365C135.505 278.053 143.592 289.192 151.828 302.292C155.466 299.56 159.103 296.832 162.744 294.097ZM149.324 271.304C150.371 270.317 153.614 269.627 154.937 270.548C155.861 271.192 156.163 272.486 155.894 273.577C155.622 274.669 154.128 276.652 153.312 277.427C152.92 277.248 149.555 271.446 149.324 271.304Z" fill="#FFD85A"/>
<path d="M124.721 255.928L59.8389 302.445C59.8389 302.445 90.3123 348.973 90.7707 348.679C113.94 333.552 155.616 304.778 155.616 304.778L124.721 255.928Z" fill="white"/>
<path d="M83.0384 281.508C93.9987 290.612 101.478 294.265 105.865 292.155C105.865 292.155 113.065 289.163 102.335 278.538L92.4894 268.93C92.4894 268.93 68.5861 269.493 83.0384 281.508Z" fill="#C85846"/>
</svg>
