<svg width="344" height="335" viewBox="0 0 344 335" fill="none" xmlns="http://www.w3.org/2000/svg">
<path d="M300.99 66.8621C300.99 66.8621 306.849 57.2646 294.013 54.8164C294.013 54.8164 285.828 53.2086 287.237 45.1163C288.815 36.0571 288.473 31.779 276.712 28.3934C276.712 28.3934 267.46 27.567 266.662 18.3968C266.662 18.3968 263.575 -1.59089 242.844 1.13559C242.844 1.13559 226.551 3.14391 221.891 23.9987C218.45 39.3963 215.499 38.6275 206.261 44.1409C206.261 44.1409 193.026 51.0246 198.05 66.8621H300.99Z" fill="#FFD959"/>
<path d="M251.448 77.4378C249.333 56.8683 259.246 41.0013 259.246 41.0013C271.756 14.0906 245.092 5.3504 243.784 5.28435C243.784 5.28435 246.218 12.3254 233.562 20.183C233.562 20.183 218.782 26.5172 236.296 47.237C240.623 55.0103 235.454 64.0358 226.428 77.9015" fill="#823840"/>
<path d="M210.997 85.3235C209.671 87.3135 176.573 155.636 176.573 155.636L217.617 165.585L242.774 110.528L232.844 93.2837L210.997 85.3235Z" fill="#DB0A33"/>
<path d="M177.319 156.617C177.319 156.617 188.964 200.557 185.281 231.91C179.666 279.722 164.656 318.834 164.656 318.834L181.749 317.576C181.749 317.576 200.711 276.403 207.169 235.704C219.023 161.018 210.1 126.701 208.2 123.064L177.319 156.617Z" fill="#36B07D"/>
<path d="M178.189 134.402C178.189 134.402 158.471 195.451 133.119 192.438C133.119 192.438 95.7868 192.781 65.6553 175.897L62.7266 193.084C62.7266 193.084 114.701 218.293 139.557 213.696C139.557 213.696 170.913 216.864 195.34 162.484L178.189 134.402Z" fill="#36B07D"/>
<path d="M218.291 80.3905C193.883 88.8538 139.74 170.13 139.74 170.13L226.235 204.968C226.235 204.968 227.039 159.551 254.09 82.7038L218.291 80.3905Z" fill="#36B07D"/>
<path d="M218.108 80.3905L221.287 63.1434L258.817 69.6982L250.84 93.0434L218.108 80.3905Z" fill="#36B07D"/>
<path d="M168.412 300.111L189.887 300.949C189.887 300.949 180.742 319.638 187.934 321.906C202.993 326.657 209.41 326.378 208.852 334.76C208.852 334.76 204.111 335.321 198.043 335.18L159.347 333.922L168.412 300.111Z" fill="#3B3B42"/>
<path d="M86.2988 181.907L80.1637 201.467C80.1637 201.467 61.4763 191.687 58.131 198.953C52.195 211.839 50.6002 219.353 42.5112 217.676C42.5112 217.676 43.3486 213.484 43.8732 208.292L49.2074 167.655L86.2988 181.907Z" fill="#3B3B42"/>
<path d="M183.604 305.001L172.045 304.311L170.914 308.912L182.21 309.471L183.604 305.001Z" fill="white"/>
<path d="M181.373 312.546L169.937 311.846L168.822 317.017L180.095 317.225L181.373 312.546Z" fill="white"/>
<path d="M77.419 195.794L80.0756 184.5L75.7457 182.597L73.2588 193.652L77.419 195.794Z" fill="white"/>
<path d="M70.3203 192.439L72.9671 181.272L68.0747 179.284L65.9385 190.377L70.3203 192.439Z" fill="white"/>
<path d="M227.295 180.333C215.353 174.692 214.376 174.807 201.08 168.575L201.079 168.577C187.437 162.023 165.989 152.067 157.159 147.712L152.748 154.58L196.719 177.117C206.724 181.847 224.541 190.356 224.541 190.356L227.295 180.333Z" fill="white"/>
<path d="M220.731 184.267L224.243 185.888L225.674 183.044L222.159 181.422L220.731 184.267Z" fill="#FFD959"/>
<path d="M216.781 182.133L215.45 184.783L219.472 186.811L220.803 184.161L216.781 182.133Z" fill="#FFD959"/>
<path d="M213.952 177.267L212.522 180.113L216.84 182.29L218.27 179.444L213.952 177.267Z" fill="#FFD959"/>
<path d="M208.573 177.992L207.243 180.644L211.264 182.669L212.595 180.017L208.573 177.992Z" fill="#FFD959"/>
<path d="M205.443 172.988L204.015 175.833L208.332 178.008L209.76 175.163L205.443 172.988Z" fill="#FFD959"/>
<path d="M200.516 173.926L199.186 176.576L202.739 178.367L204.07 175.717L200.516 173.926Z" fill="#FFD959"/>
<path d="M192.656 170.136L191.325 172.786L195.346 174.814L196.677 172.163L192.656 170.136Z" fill="#FFD959"/>
<path d="M189.707 165.222L188.28 168.067L192.596 170.241L194.023 167.396L189.707 165.222Z" fill="#FFD959"/>
<path d="M184.3 165.933L182.968 168.585L186.992 170.614L188.324 167.963L184.3 165.933Z" fill="#FFD959"/>
<path d="M181.361 161.02L179.934 163.865L184.251 166.04L185.679 163.194L181.361 161.02Z" fill="#FFD959"/>
<path d="M175.97 161.713L174.64 164.363L178.661 166.39L179.992 163.739L175.97 161.713Z" fill="#FFD959"/>
<path d="M173.018 156.816L171.589 159.661L175.903 161.835L177.332 158.99L173.018 156.816Z" fill="#FFD959"/>
<path d="M167.63 157.528L166.299 160.178L170.32 162.206L171.651 159.555L167.63 157.528Z" fill="#FFD959"/>
<path d="M164.813 152.685L163.385 155.529L167.704 157.706L169.132 154.862L164.813 152.685Z" fill="#FFD959"/>
<path d="M159.433 153.403L158.103 156.055L162.124 158.08L163.454 155.428L159.433 153.403Z" fill="#FFD959"/>
<path d="M156.302 148.399L154.875 151.245L159.192 153.419L160.619 150.574L156.302 148.399Z" fill="#FFD959"/>
<path d="M224.967 108.604C224.949 112.132 227.789 115.006 231.311 115.027C234.834 115.041 237.702 112.193 237.719 108.664C237.737 105.14 234.897 102.263 231.376 102.243C227.853 102.229 224.986 105.075 224.967 108.604Z" fill="white"/>
<path d="M226.931 110.439L230.021 108.41L227.321 106.254L228.359 104.95L230.764 106.88L230.782 103.789L232.442 103.8L232.425 106.839L235.205 105.016L236.16 106.383L232.855 108.551L235.854 110.95L234.815 112.248L232.409 110.326L232.391 113.409L230.73 113.399L230.749 109.933L227.89 111.807L226.931 110.439Z" fill="#36B07D"/>
<path d="M196.606 172.269L200.81 174.387L201.77 171.306L198.037 169.423L196.606 172.269Z" fill="#FFD959"/>
<path d="M279.193 175.127C246.745 143.903 241.612 114.341 238.727 101.297L252.382 87.1083C252.382 103.789 262.126 137.741 289.451 167.309L279.193 175.127Z" fill="#36B07D"/>
<path d="M255.039 114.161L245.885 116.675L247.104 120.886L256.214 118.3L255.039 114.161Z" fill="white"/>
<path d="M257.62 123.21L248.847 126.98L250.496 130.92L259.181 127.009L257.62 123.21Z" fill="white"/>
<path d="M200.659 81.0538C198.612 86.8933 145.136 162.732 145.136 162.732C134.215 154.457 126.495 146.62 108.279 131.117C108.279 131.117 148.372 94.2281 159.813 83.6862C175.099 69.5998 200.659 81.0538 200.659 81.0538Z" fill="#3B3B42"/>
<path d="M167.627 134.185C167.627 134.185 177.362 132.842 176.563 130.766C176.119 129.606 170.574 132.874 160.601 127.31C153.632 123.423 154.527 125.032 149.787 122.027L167.627 134.185Z" fill="#F29973"/>
<path d="M146.699 150.904L157.246 139.921C174.376 131.879 177.926 127.387 182.772 120.64C192.584 106.978 197.013 84.431 197.013 73.1049L210.957 74.2278C210.992 85.3235 207.318 106.978 195.825 122.822C195.553 123.198 179.131 149.04 146.699 150.904Z" fill="#3B3B42"/>
<path d="M133.164 110.106L139.619 116.816L165.453 87.9333C165.453 87.9333 157.505 85.1745 157.25 85.7535C156.995 86.334 133.164 110.106 133.164 110.106Z" fill="#3B3B42"/>
<path d="M152.324 147.833C144.48 142.799 127.652 128.967 119.929 122.227L115.722 125.926C115.722 125.926 147.071 151.605 148.662 152.906L152.324 147.833Z" fill="white"/>
<path d="M120.013 128.84L117.529 126.853L118.834 125.212L121.314 127.2L120.013 128.84Z" fill="#FFD959"/>
<path d="M119.057 125.584L117.431 124.457L119.165 122.817L120.357 123.944L119.057 125.584Z" fill="#FFD959"/>
<path d="M122.649 125.51L121.25 127.27L123.919 129.4L125.318 127.64L122.649 125.51Z" fill="#FFD959"/>
<path d="M123.975 129.327L122.671 130.963L125.151 132.948L126.455 131.312L123.975 129.327Z" fill="#FFD959"/>
<path d="M127.803 129.622L126.401 131.378L129.066 133.512L130.467 131.756L127.803 129.622Z" fill="#FFD959"/>
<path d="M129.117 133.444L127.812 135.081L130.295 137.069L131.6 135.432L129.117 133.444Z" fill="#FFD959"/>
<path d="M132.874 133.68L131.472 135.44L134.138 137.571L135.539 135.811L132.874 133.68Z" fill="#FFD959"/>
<path d="M134.187 137.497L132.882 139.134L135.365 141.12L136.67 139.483L134.187 137.497Z" fill="#FFD959"/>
<path d="M138.122 137.88L136.723 139.636L139.389 141.768L140.788 140.012L138.122 137.88Z" fill="#FFD959"/>
<path d="M139.439 141.699L138.135 143.334L140.617 145.321L141.921 143.686L139.439 141.699Z" fill="#FFD959"/>
<path d="M143.275 141.993L141.873 143.751L144.538 145.885L145.94 144.127L143.275 141.993Z" fill="#FFD959"/>
<path d="M148.296 146.035L146.894 147.792L149.557 149.926L150.959 148.168L148.296 146.035Z" fill="#FFD959"/>
<path d="M149.309 152.233L148.324 151.588L149.725 149.833L150.71 150.472L149.309 152.233Z" fill="#FFD959"/>
<path d="M144.603 145.822L143.296 147.458L145.777 149.447L147.084 147.811L144.603 145.822Z" fill="#FFD959"/>
<path d="M145.423 131.119C145.423 131.119 154.526 139.621 166.265 143.152C176.755 146.305 182.05 146.467 184.063 144.012C184.063 144.012 188.19 138.861 178.399 135.253L169.933 132.289C169.933 132.289 155.606 126.43 152.923 125.196L145.423 131.119Z" fill="#F29973"/>
<path d="M158.454 140.023C150.404 137.086 136.546 127.754 128.881 117.679C119.128 104.856 121.28 90.4616 129.161 84.3003C156.141 63.208 226.061 77.7947 226.426 77.9001L206.595 91.3175C185.255 85.1857 152.88 85.9306 141.033 94.4417C137.625 96.8913 134.335 103.688 139.379 110.319C144.911 117.592 157.184 126.405 164.705 129.151L158.454 140.023Z" fill="#36B07D"/>
<path d="M196.591 73.1049C196.591 73.1049 197.879 87.0507 188.195 111.397C188.195 111.397 198.068 119.611 198.303 119.185C210.964 96.1535 210.964 86.7626 211.921 74.2278L196.591 73.1049Z" fill="#3B3B42"/>
<path d="M154.526 103.823C151.661 107.206 146.601 107.62 143.231 104.749C139.857 101.876 139.441 96.8056 142.308 93.4284C145.172 90.047 150.23 89.6338 153.608 92.5051C156.979 95.3777 157.39 100.446 154.526 103.823Z" fill="white"/>
<path d="M151.146 103.959L149.851 99.4956L154.193 99.6487L154.266 97.5561L150.397 97.4212L152.904 94.4656L151.31 93.1136L148.848 96.0214L147.682 92.0062L145.65 92.5233L147.033 97.3031L142.222 97.1317L142.15 99.2243L146.015 99.362L143.512 102.322L145.1 103.67L147.921 100.346L149.117 104.481L151.146 103.959Z" fill="#36B07D"/>
<path d="M165.327 75.1919L165.805 85.5624L170.573 85.2715L170.007 74.9291L165.327 75.1919Z" fill="white"/>
<path d="M174.374 75.0879L174.472 85.5301L179.128 85.523L178.851 75.1104L174.374 75.0879Z" fill="white"/>
<path d="M166.267 143.15C176.757 146.305 182.052 146.467 184.065 144.01C184.065 144.01 188.19 138.859 178.399 135.252L169.933 132.288" fill="#F29973"/>
<path d="M285.547 177.824C284.144 178.045 282.779 177.248 282.044 176.032L278.531 170.213C273.276 161.183 279.731 159.845 279.731 159.845C282.845 159.236 287.38 163.412 293.46 172.54C293.46 172.54 293.942 176.505 285.547 177.824Z" fill="#F29973"/>
<path d="M4.86059 170.392L4.32227 173.381L40.3449 179.895L40.8832 176.906L4.86059 170.392Z" fill="#3B3B42"/>
<path d="M2.69897 181.531L2.16064 184.52L38.1833 191.034L38.7216 188.045L2.69897 181.531Z" fill="#3B3B42"/>
<path d="M0.538324 192.669L0 195.658L36.0226 202.172L36.561 199.183L0.538324 192.669Z" fill="#3B3B42"/>
<path d="M340.995 113.09C328.297 162.327 278.837 189.766 229.684 177.039C180.533 164.313 150.519 116.297 163.217 67.0601C175.919 17.8106 225.391 -9.6243 274.543 3.10163C323.696 15.829 353.695 63.8403 340.995 113.09Z" fill="#DE0030"/>
<path d="M165.439 142.932C175.929 146.087 181.224 146.249 183.237 143.792C183.237 143.792 187.362 138.642 177.572 135.034L169.107 132.07" fill="#F29973"/>
<path d="M284.705 177.824C283.303 178.045 281.938 177.248 281.203 176.032L277.689 170.213C272.435 161.183 278.89 159.845 278.89 159.845C282.002 159.236 286.537 163.412 292.619 172.54C292.619 172.54 293.1 176.505 284.705 177.824Z" fill="#F29973"/>
<path d="M196.066 83.96C198.37 86.072 201.154 87.32 204.162 87.32C208.194 87.32 211.746 84.568 211.746 80.6C211.746 73.048 201.41 74.168 201.41 70.552C201.41 68.824 203.234 68.12 204.866 68.12C206.338 68.12 207.842 68.76 208.738 69.592L210.978 66.392C208.866 64.824 206.754 64.28 204.482 64.28C200.77 64.28 197.09 66.584 197.09 70.584C197.09 73.112 198.498 74.648 200.258 75.672C203.266 77.432 207.426 77.784 207.426 80.664C207.426 82.296 206.082 83.48 204.162 83.48C202.114 83.48 200.162 82.424 198.882 81.016L196.066 83.96ZM225.771 82.168C225.035 82.968 223.627 83.96 221.867 83.96C219.659 83.96 217.899 82.456 217.675 80.28H228.427C228.491 79.928 228.523 79.512 228.523 79.096C228.523 74.776 225.483 71.16 221.195 71.16C216.587 71.16 213.643 74.936 213.643 79.256C213.643 84.12 217.131 87.32 221.771 87.32C224.171 87.32 226.635 86.328 228.139 84.536L225.771 82.168ZM217.867 77.24C218.059 75.832 219.467 74.52 221.195 74.52C222.891 74.52 224.139 75.864 224.267 77.24H217.867ZM242.549 82.168C241.813 82.968 240.405 83.96 238.645 83.96C236.437 83.96 234.677 82.456 234.453 80.28H245.205C245.269 79.928 245.301 79.512 245.301 79.096C245.301 74.776 242.261 71.16 237.973 71.16C233.365 71.16 230.421 74.936 230.421 79.256C230.421 84.12 233.909 87.32 238.549 87.32C240.949 87.32 243.413 86.328 244.917 84.536L242.549 82.168ZM234.645 77.24C234.837 75.832 236.245 74.52 237.973 74.52C239.669 74.52 240.917 75.864 241.045 77.24H234.645ZM260.434 94.68L271.122 71.48H266.738L262.546 80.792L258.002 71.48H253.426L260.37 85.432L256.082 94.68H260.434ZM271.753 79.256C271.753 83.736 275.305 87.32 280.009 87.32C284.713 87.32 288.265 83.736 288.265 79.256C288.265 74.776 284.713 71.16 280.009 71.16C275.305 71.16 271.753 74.776 271.753 79.256ZM275.913 79.256C275.913 76.92 277.577 75 280.009 75C282.441 75 284.105 76.92 284.105 79.256C284.105 81.592 282.441 83.48 280.009 83.48C277.577 83.48 275.913 81.592 275.913 79.256ZM301.683 71.48V81.56C301.107 82.296 299.827 83.48 298.067 83.48C297.267 83.48 296.371 83.224 295.731 82.52C295.251 81.976 294.963 81.272 294.963 79.864V71.48H290.803V79.704C290.803 82.008 291.379 83.608 292.371 84.824C293.587 86.328 295.507 87.32 297.651 87.32C299.155 87.32 300.627 86.84 301.843 85.752V87H305.843V71.48H301.683ZM211.996 117.24C213.82 118.584 216.092 119.32 218.237 119.32C221.5 119.32 224.413 117.496 224.413 114.52C224.413 109.144 216.892 109.944 216.892 107.928C216.892 107.128 217.852 106.68 219.004 106.68C220.125 106.68 221.181 107.16 221.981 107.736L223.932 104.728C222.909 103.928 220.701 103.16 218.685 103.16C215.612 103.16 212.732 105.016 212.732 107.992C212.732 112.984 220.253 112.152 220.253 114.488C220.253 115.256 219.389 115.8 218.268 115.8C216.701 115.8 215.068 115.224 214.012 114.264L211.996 117.24ZM226.311 111.256C226.311 115.736 229.863 119.32 234.567 119.32C239.271 119.32 242.823 115.736 242.823 111.256C242.823 106.776 239.271 103.16 234.567 103.16C229.863 103.16 226.311 106.776 226.311 111.256ZM230.471 111.256C230.471 108.92 232.135 107 234.567 107C236.999 107 238.663 108.92 238.663 111.256C238.663 113.592 236.999 115.48 234.567 115.48C232.135 115.48 230.471 113.592 230.471 111.256ZM244.714 111.256C244.714 115.736 248.266 119.32 252.97 119.32C257.674 119.32 261.226 115.736 261.226 111.256C261.226 106.776 257.674 103.16 252.97 103.16C248.266 103.16 244.714 106.776 244.714 111.256ZM248.874 111.256C248.874 108.92 250.538 107 252.97 107C255.402 107 257.066 108.92 257.066 111.256C257.066 113.592 255.402 115.48 252.97 115.48C250.538 115.48 248.874 113.592 248.874 111.256ZM268.244 119V108.92C268.82 108.12 270.26 107 272.02 107C272.98 107 273.812 107.32 274.356 107.864C274.932 108.44 275.284 109.24 275.284 110.776V119H279.444V111.096C279.444 108.44 278.868 106.872 277.844 105.656C276.564 104.12 274.612 103.16 272.468 103.16C270.74 103.16 269.268 103.768 268.084 104.728V103.48H264.084V119H268.244ZM288.932 103.48V96.6H284.772V103.48L285.412 111.64H288.292L288.932 103.48ZM284.068 116.536C284.068 118.104 285.284 119.32 286.852 119.32C288.42 119.32 289.668 118.104 289.668 116.536C289.668 114.968 288.42 113.72 286.852 113.72C285.284 113.72 284.068 114.968 284.068 116.536Z" fill="white"/>
</svg>
