<svg width="281" height="526" viewBox="0 0 281 526" fill="none" xmlns="http://www.w3.org/2000/svg">
<path d="M180.904 46.5655C180.904 46.5655 166.757 46.8264 152.935 51.3916" stroke="#D3D5D4" stroke-width="1.066" stroke-miterlimit="10"/>
<path d="M112.955 32.1653C112.955 32.1653 116.909 25.4423 122.235 26.1914C130.061 27.2908 140.764 23.6162 150.737 25.01C161.261 26.4783 165.044 38.717 165.23 38.7132C165.23 38.7132 173.861 37.2039 179.317 31.0622C189.078 20.0721 187.155 8.8471 186.659 8.944C178.702 10.4869 170.679 7.47566 167.168 5.90297C137.705 -11.0053 122.354 13.785 122.354 13.785C117.222 12.4099 111.964 14.0795 106.974 23.6572C106.974 23.6572 101.276 35.0014 107.633 55.7296C107.633 55.7296 110.373 66.1085 115.799 79.9236C115.799 79.9236 110.786 46.9792 112.955 32.1653Z" fill="#393B42"/>
<path d="M139.841 21.9242C139.841 21.9242 106.222 12.8608 113.403 58.6103C113.5 59.229 114.712 70.3757 114.712 70.3757C114.712 70.3757 115.449 77.6614 117.469 89.3672C120.645 107.766 123.298 130.823 110.143 145.28C112.285 144.881 165.116 146.755 165.116 146.755C165.116 146.755 149.531 118.95 157.662 95.4977C160.908 86.1323 174.634 86.9932 172.67 61.7892C172.67 61.7892 172.375 47.6537 171.175 34.2411C170.002 21.1267 163.677 18.2161 139.841 21.9242Z" fill="#C85846"/>
<path d="M110.202 58.465L116.075 59.6054C115.591 53.1581 115.036 41.9406 115.99 38.7803C118.852 29.3255 135.089 30.2945 149.187 35.6088C154.446 37.5803 172.334 43.353 182.404 26.9553C188.519 16.9975 168.179 12.7974 168.179 12.7974L138.119 9.85703L107.034 27.6038L110.202 58.465Z" fill="#393B42"/>
<path d="M114.325 52.8338C113.628 52.8413 104.143 51.7792 104.781 60.7569C105.37 69.1533 115.476 67.3681 115.476 67.3681L114.325 52.8338Z" fill="#C85846"/>
<path d="M111.861 50.3518H115.409C115.409 50.3518 115.625 56.855 117.049 64.6439C119.151 76.1297 156.392 72.4775 161.598 72.2129C169.704 71.7992 172.861 70.5955 172.861 70.5955C172.861 70.5955 171.109 82.2677 166.633 88.1895C164.587 90.9025 158.8 92.0206 154.111 92.505C116.967 96.3399 115.525 82.5136 113.635 69.5073L111.861 50.3518Z" fill="#393B42"/>
<path d="M204.996 275.745H54.2235C55.0359 315.413 54.2235 429.373 54.1974 489.631C54.1899 508.287 54.5924 525.888 54.5924 525.888L116.728 525.788L129.843 331.695H132.008L145.6 525.788L195.001 525.888C195.001 525.888 204.899 355.803 204.996 275.745Z" fill="#680F38"/>
<path d="M144.92 509.204L205.342 511.235C205.342 511.235 237.25 512.737 237.585 526H205.778H145.781L144.92 509.204Z" fill="#393B42"/>
<path d="M54.5986 509.204L125.955 511.235C125.955 511.235 159.41 512.737 159.749 526H120.637H54.5986V509.204Z" fill="#393B42"/>
<path d="M196.763 123.989C195.049 120.303 190.007 115.76 177.768 112.641C177.768 112.641 168.28 112.089 160.618 110.628C150.716 108.742 123.783 109.76 115.543 110.039C110.731 110.2 88.6058 116.96 83.3846 119.215C55.7135 131.17 54.6141 259.068 54.2266 275.716H204.999L204.791 212.816C204.582 206.074 201.116 133.346 196.763 123.989Z" fill="#85ACD9"/>
<path d="M111.605 110.039L113.316 99.2058L136.336 99.3325V119.502L111.605 110.039Z" fill="#85ACD9"/>
<path d="M164.848 112.022L162.862 99.5486H144.034V118.451L164.848 112.022Z" fill="#85ACD9"/>
<path d="M136.332 103.734L144.031 103.954V118.067H136.332V103.734Z" fill="#680F38"/>
<path d="M126.242 99.2952C126.242 99.2952 120.011 369.372 119.604 368.381C119.194 367.394 50.8609 368.385 50.8609 368.385C50.8609 368.385 48.0286 191.335 64.0685 143.889L111.607 110.039L113.317 99.2058L126.242 99.2952Z" fill="#EBEBEB"/>
<path d="M54.2267 217.008C29.0637 214.045 1.78023 206.335 2.66347 172.086C3.30074 147.117 21.6251 135.027 33.67 129.262C56.6007 118.29 109.997 110.151 115.539 110.039L111.879 138.676C98.1166 138.966 68.7983 145.198 52.9671 152.774C46.7621 155.74 40.5794 166.052 40.5421 175.388C40.5011 186.356 47.2018 205.094 93.1414 188.655L102.838 204.732C85.919 213.035 73.0132 217.239 54.2267 217.008Z" fill="#C85846"/>
<path d="M151.736 99.3772L146.049 368.213H205.174C205.174 368.213 208.174 176.402 201.902 148.007L165.018 111.851L163.032 99.3772H151.736Z" fill="#EBEBEB"/>
<path d="M232.229 218.465C217.702 218.465 201.386 213.669 192.174 206.931C177.949 196.526 166.362 180.438 156.509 154.283L171.338 146.584C179.972 164.647 187.877 175.011 195.692 180.266C225.401 200.253 243.812 178.489 245.257 175.526H280.501C280.501 186.985 274.561 199.548 264.26 208.571C256.032 215.778 242.962 218.465 232.229 218.465Z" fill="#C85846"/>
<path d="M190.946 214.295H166.641L166.883 182.133H191.192L190.946 214.295Z" fill="#85ACD9"/>
<path d="M174.698 204.237L175.906 190.921L184.596 198.788L174.698 204.237Z" stroke="#393B42" stroke-width="0.37" stroke-miterlimit="10"/>
<path d="M178.679 206.991C177.159 209.189 174.14 209.737 171.945 208.217C169.746 206.696 169.198 203.681 170.723 201.483C172.243 199.284 175.254 198.736 177.453 200.256C179.648 201.777 180.196 204.792 178.679 206.991Z" fill="#36AF7C"/>
<path d="M187.178 196.314C188.542 197.737 188.497 199.999 187.074 201.363C185.654 202.727 183.392 202.679 182.024 201.259C180.66 199.832 180.708 197.573 182.128 196.205C183.556 194.841 185.814 194.89 187.178 196.314Z" fill="#FFD85A"/>
<path d="M179.417 190.284C179.771 192.222 178.485 194.081 176.543 194.435C174.602 194.789 172.742 193.504 172.392 191.562C172.038 189.62 173.323 187.761 175.265 187.41C177.203 187.056 179.063 188.342 179.417 190.284Z" fill="#DD0933"/>
<path d="M184.602 184.138L172.885 184.108L172.941 177.769L184.658 177.795L184.602 184.138Z" fill="#393B42"/>
<path d="M233.885 184.328C248.375 176.472 240.672 165.665 239.8 164.647C225.139 147.586 179.084 149.092 163.886 148.824L154.055 109C161.05 109.123 235.834 115.734 262.473 140.394C267.053 144.631 286.011 164.081 279.538 187.463C279.538 187.463 269.271 225.099 225.034 219.818C177.392 214.131 162.772 174.139 162.772 174.139L183.548 164.629C183.548 164.629 210.03 197.256 233.885 184.328Z" fill="#EBEBEB"/>
<path d="M0.0176245 174.139C0.0176245 174.139 -1.85693 145.611 33.0589 126.732C65.1425 109.384 111.652 107.919 117.198 107.803L113.039 142.783C99.2758 143.077 68.6158 143.375 53.5337 154.462C34.3186 168.59 43.8926 185.566 47.556 188.849C54.2306 194.827 70.5947 193.697 70.5947 193.697L77.0122 214.631C77.0122 214.631 56.2803 222.46 32.8577 214.631C-1.09294 203.283 0.0176245 174.139 0.0176245 174.139Z" fill="#EBEBEB"/>
<path d="M92.264 191.547C92.264 191.547 98.715 183.997 94.9435 182.942C91.3286 181.928 88.5149 193.191 70.5967 194.827C70.5967 194.827 84.5012 192.93 92.264 191.547Z" fill="#C85846"/>
<path d="M171.871 149.953C171.871 149.953 173.429 140.144 176.682 142.328C179.798 144.422 172.087 149.342 183.551 164.633C183.551 164.633 178.937 168.408 175.888 163.529C173.861 160.287 170.861 158.245 171.871 149.953Z" fill="#C85846"/>
<path d="M140.335 130.563C140.834 133.32 149.156 154.037 149.156 154.037L168.669 145.369L208.009 152.163L214.982 143.237L200.298 101.867H185.104L165.315 123.746L140.335 130.563Z" fill="#D3D5D4"/>
<path d="M175.36 146.521L208.01 152.159L214.983 143.237L200.296 101.863H195.168L175.36 146.521Z" fill="#36AF7C"/>
<path d="M118.871 191.335H115.535V164.972C115.535 147.56 127.778 144.571 127.9 144.542L186.559 125.151L187.607 128.319L128.795 147.75C128.251 147.888 118.871 150.318 118.871 164.972V191.335Z" fill="#36AF7C"/>
<path d="M162.775 174.139C162.775 174.139 140.336 136.894 159.246 128.632C159.246 128.632 166.818 123.254 173.131 151.943C174.417 157.786 177.63 158.42 181.614 165.695L162.775 174.139Z" fill="#C85846"/>
<path d="M89.4639 162.624C89.6614 164.282 95.2552 211.653 95.2552 211.653L137.487 206.666L132.53 164.673L137.077 157L89.4639 162.624Z" fill="#D3D5D4"/>
<path d="M135.199 188.849C135.199 188.849 94.5291 193.649 93.1465 193.813L95.2558 211.653L137.487 206.666L135.199 188.849Z" fill="#DD0933"/>
<path d="M91.6698 174.139L91.2822 171.344L100.588 170.595L100.979 172.876L91.6698 174.139Z" fill="#393B42"/>
<path d="M92.9187 180.583L92.5273 177.926L101.833 177.18L102.224 179.316L92.9187 180.583Z" fill="#393B42"/>
<path d="M93.5378 186.359L93.1465 184.079L102.452 183.33L102.843 185.096L93.5378 186.359Z" fill="#393B42"/>
<path d="M77.0108 214.631C77.0108 214.631 127.866 200.253 117.878 183.728C117.878 183.728 115.229 179.759 91.7688 191.126C91.7688 191.126 88.5638 192.337 76.0195 197.607L77.0108 214.631Z" fill="#C85846"/>
<path d="M134.11 47.2251C134.11 47.2251 121.897 48.6972 110.15 51.3916" stroke="#D3D5D4" stroke-width="1.066" stroke-miterlimit="10"/>
<path d="M179.069 42.3617C179.069 42.3617 181.167 57.2948 173.784 59.0948C170.568 59.8812 166.256 59.9669 163.629 56.937C161.329 54.2873 159.253 49.1034 158.057 49.1593C156.697 49.7556 155.154 54.7867 151.055 58.3532C148.267 60.7793 143.381 60.8538 140.02 59.6985C135.171 58.0364 133.505 48.8984 133.968 42.5704C137.601 41.4375 175.905 41.7915 179.069 42.3617Z" fill="#D3D5D4"/>
</svg>
