<svg xmlns:xlink="http://www.w3.org/1999/xlink">
	<symbol
		id="wave"
		xmlns="http://www.w3.org/2000/svg"
		viewBox="0 0 120 120"
		fill="none"
	>
		<circle cx="60" cy="60" r="60" fill="#FFD85A"/>

		<mask id="mask0" mask-type="alpha" maskUnits="userSpaceOnUse" x="0" y="0" width="120" height="120">
			<circle cx="60" cy="60" r="60" fill="white"/>
		</mask>

		<g mask="url(#mask0)">
			<path d="M32.0547 41.218C32.0547 41.218 33.4272 35.1296 36.581 29.3786C38.9702 25.0242 40.9284 22.8819 42.616 23.005C42.616 23.005 45.3271 23.0574 43.2065 27.8783L41.2397 32.257C41.2397 32.257 44.0581 30.0866 44.4901 31.1922C44.868 32.1552 42.299 32.7836 40.4848 36.5096C39.9841 37.5357 39.3578 39.5218 38.8494 41.0183L32.0547 41.218Z" fill="#C95946"/>
			<path d="M18.2051 82.8578C18.2051 82.8578 25.2608 54.0981 33.3922 35.8754L40.8722 36.465L27.9149 76.9856C40.5591 75.8305 53.5135 76.3213 57.4686 70.3143L57.3825 70.9825C57.8445 70.0679 58.3326 69.1844 58.8749 68.3659L70.1166 64.2268C70.1659 66.051 70.3853 68.0507 70.7226 70.1988C72.1773 73.244 91.9487 92.9806 96.646 110.376L96.7978 110.934L96.6644 111.496C96.619 111.683 96.2111 113.088 95.2677 115.253C95.2677 115.254 95.2677 115.255 95.2677 115.256C93.2177 121.084 89.2143 126.345 86.3167 129.316L86.2703 129.264C85.4207 130.231 84.5102 131.203 83.5302 132.171C85.2419 147.895 89.2994 165.534 85.5705 184.803L43.5331 185.561C43.5331 185.561 55.9869 91.299 54.9991 86.0717C54.9991 86.0717 24.0188 88.8163 18.2051 82.8578ZM82.4612 123.944C83.8433 121.736 88.1057 114.814 89.1738 111.701C84.6755 100.373 77.8247 90.72 74.2398 86.0717C76.92 96.6601 80.2903 109.377 82.4612 123.944Z" fill="#37AF7C"/>
			<path d="M95.2963 63.5595C95.2963 63.5595 97.9649 56.5003 91.2987 55.5722C91.2987 55.5722 87.0459 54.9573 87.563 50.7484C88.141 46.0361 87.8559 43.8404 81.7184 42.4012C81.7184 42.4012 76.9379 42.2179 76.2904 37.5114C76.2904 37.5114 74.1872 27.2858 63.593 29.2331C63.593 29.2331 55.2625 30.6937 53.4028 41.5681C52.0284 49.5962 50.4897 49.2772 45.8803 52.3612C45.8803 52.3612 39.248 56.2559 42.2403 64.2908L95.2963 63.5595Z" fill="#670F38"/>
			<path d="M69.9822 68.3484C68.3652 57.7979 73.0548 49.3586 73.0548 49.3586C78.798 35.1577 64.8567 31.3483 64.1811 31.3483C64.1811 31.3483 65.6154 34.9133 59.3078 39.2959C59.3078 39.2959 51.8655 42.9482 61.41 53.1729C63.8351 57.0676 61.41 61.8556 57.1235 69.2397" fill="#C95946"/>
			<path d="M61.1681 64.5332C61.1681 64.5332 57.9051 58.9607 44.216 64.83C44.216 64.83 31.7284 69.3212 26.31 66.2382L23.7207 74.9209C23.7207 74.9209 30.3531 75.8141 45.9635 69.4831C49.1231 68.202 53.5653 66.6435 57.5281 69.1592L61.1681 64.5332Z" fill="#F3A4B8"/>
			<path d="M69.6572 61.9914L70.8972 69.7275H56.4746L60.4374 61.8556L69.6572 61.9914Z" fill="#F3A4B8"/>
			<path d="M69.4831 120.211C70.5926 119.848 89.3521 138.393 88.5296 140.665C88.0753 141.926 75.4127 153.026 74.1031 153.227C72.6572 153.45 71.303 152.994 70.4477 152.069C55.1987 135.573 54.3239 135.184 54.1867 133.453C54.0485 131.722 66.3785 121.225 69.4831 120.211Z" fill="#393B42"/>
		</g>
	</symbol>
	<symbol
		id="triangle"
		xmlns="http://www.w3.org/2000/svg"
		viewBox="0 0 12 8"
		fill="none"
	>
		<path
			d="M6 0L11.1962 7.5H0.803848L6 0Z"
			fill="currentColor"
		/>
	</symbol>
	<symbol
		id="options"
		xmlns="http://www.w3.org/2000/svg"
		viewBox="0 0 20 6"
		fill="none"
	>
		<circle cx="2.66682" cy="2.66682" r="2.66682" fill="currentColor"/>

		<circle cx="10.0008" cy="2.66673" r="2.66682" fill="currentColor"/>

		<circle cx="17.3328" cy="2.66673" r="2.66682" fill="currentColor"/>
	</symbol>
	<symbol
		id="stop"
		xmlns="http://www.w3.org/2000/svg"
		viewBox="0 0 16 17"
		fill="none"
	>
		<rect
			x="1"
			y="1.5"
			width="14"
			height="14"
			rx="1"
			stroke="currentColor"
			stroke-width="2"
		/>
	</symbol>
	<symbol
		id="record"
		xmlns="http://www.w3.org/2000/svg"
		viewBox="0 0 16 17"
		fill="none"
	>
		<circle
			cx="8"
			cy="8.5"
			r="7"
			stroke="currentColor"
			stroke-width="2"
		/>

		<circle
			cx="8"
			cy="8.5"
			r="3"
			fill="currentColor"
		/>
	</symbol>
	<symbol
		id="loading"
		xmlns="http://www.w3.org/2000/svg"
		viewBox="0 0 40 40"
		fill="none"
	>
		<path
			d="M20.7408 4.66554e-05C21.2504 4.66554e-05 21.7274 0.0971887 22.1749 0.291473C22.617 0.465875 23.0187 0.723455 23.3565 1.04918C23.6943 1.3749 23.9614 1.76225 24.1422 2.1886C24.3437 2.61717 24.4445 3.08002 24.4445 3.57144C24.4445 4.06287 24.3437 4.52286 24.1422 4.95429C23.9616 5.3808 23.6947 5.76833 23.3571 6.09428C23.016 6.42204 22.6152 6.68644 22.1749 6.87427C21.72 7.05442 21.2325 7.14571 20.7408 7.14284C20.2312 7.14284 19.7541 7.05427 19.3067 6.87427C18.4195 6.49393 17.71 5.80983 17.3156 4.95429C17.1288 4.51565 17.0341 4.04562 17.0371 3.57144C17.0371 3.08002 17.129 2.62002 17.3156 2.1886C17.5141 1.75717 17.7867 1.37718 18.1245 1.04861C18.4652 0.722897 18.8593 0.468614 19.3067 0.291473C19.7577 0.0968917 20.2467 -0.00247047 20.7408 4.66554e-05ZM4.83868 8.59426C4.83457 7.96612 5.02383 7.35093 5.38248 6.82657C5.74114 6.3022 6.25307 5.89224 6.85348 5.64857C7.26474 5.47195 7.70993 5.38068 8.16013 5.38068C8.61034 5.38068 9.05552 5.47195 9.46679 5.64857C9.86975 5.81142 10.2164 6.04285 10.5097 6.33999C10.8179 6.62284 11.0579 6.95713 11.2268 7.34284C11.4104 7.73981 11.5052 8.1696 11.5052 8.60425C11.5052 9.03891 11.4104 9.4687 11.2268 9.86567C10.8902 10.6298 10.2592 11.2382 9.46679 11.5628C8.62824 11.8926 7.68907 11.8926 6.85051 11.5628C6.45691 11.4038 6.09651 11.1773 5.78682 10.8942C5.49295 10.5948 5.25801 10.2462 5.09349 9.86567C4.92335 9.46196 4.83678 9.03003 4.83868 8.59426V8.59426ZM2.96313 17.857C3.35253 17.8503 3.73906 17.9224 4.09782 18.0686C4.45658 18.2147 4.77961 18.4317 5.04608 18.7056C5.33011 18.9626 5.55515 19.274 5.70672 19.62C5.85829 19.9659 5.93301 20.3387 5.92608 20.7141C5.92968 21.097 5.85099 21.4764 5.69497 21.8284C5.38781 22.5081 4.82592 23.0509 4.12164 23.3484C3.75564 23.4992 3.36114 23.5751 2.96313 23.5713C2.56612 23.5747 2.17267 23.4989 1.80759 23.3484C1.4575 23.2023 1.13662 22.9983 0.859445 22.7456C0.596305 22.4785 0.38371 22.1691 0.231301 21.8313C0.0748746 21.4784 -0.003824 21.0979 0.000191589 20.7141C-0.00427893 20.3408 0.0695288 19.9704 0.217184 19.6253C0.36484 19.2801 0.583298 18.9673 0.859445 18.7056C1.13151 18.4332 1.45849 18.2175 1.82028 18.0715C2.18207 17.9256 2.571 17.8526 2.96313 17.857V17.857ZM5.57941 32.834C5.58366 32.3452 5.73445 31.8679 6.01361 31.4599C6.29277 31.0518 6.68837 30.7303 7.15273 30.5341C7.47106 30.4025 7.81379 30.3346 8.16013 30.3346C8.50647 30.3346 8.8492 30.4025 9.16753 30.5341C9.49346 30.6683 9.76901 30.8483 10.0001 31.0712C10.3616 31.4254 10.6072 31.8742 10.7062 32.3619C10.8052 32.8495 10.7534 33.3545 10.5572 33.814C10.2797 34.4175 9.7691 34.8928 9.13385 35.1388C8.4986 35.3848 7.78889 35.382 7.1557 35.1312C6.54722 34.8704 6.05982 34.4025 5.78682 33.8169C5.64858 33.5064 5.57798 33.1719 5.57941 32.834V32.834ZM20.7408 35.714C21.3571 35.714 21.8815 35.9226 22.3141 36.3397C22.524 36.5364 22.6899 36.7726 22.8015 37.0335C22.9131 37.2944 22.9681 37.5746 22.963 37.8569C22.9681 38.1391 22.9131 38.4193 22.8015 38.6802C22.6899 38.9412 22.524 39.1773 22.3141 39.374C22.1101 39.5764 21.8653 39.7363 21.5947 39.844C21.3241 39.9516 21.0335 40.0046 20.7408 39.9997C20.4481 40.0046 20.1575 39.9516 19.8869 39.844C19.6163 39.7363 19.3715 39.5764 19.1675 39.374C18.9576 39.1773 18.7917 38.9412 18.6801 38.6802C18.5685 38.4193 18.5135 38.1391 18.5186 37.8569C18.5186 37.2626 18.7349 36.7569 19.1675 36.3397C19.3715 36.1373 19.6163 35.9774 19.8869 35.8697C20.1575 35.7621 20.4481 35.7091 20.7408 35.714V35.714ZM31.4577 32.834C31.4577 32.3283 31.6355 31.9055 31.9911 31.5626C32.3466 31.2198 32.7851 31.0483 33.3096 31.0483C33.834 31.0483 34.2755 31.2198 34.6281 31.5626C34.9837 31.9055 35.1614 32.3283 35.1614 32.834C35.1614 33.3397 34.9837 33.7655 34.6281 34.1055C34.4563 34.2734 34.2508 34.4056 34.024 34.4941C33.7972 34.5825 33.5541 34.6253 33.3096 34.6197C33.0651 34.6253 32.8219 34.5825 32.5952 34.4941C32.3684 34.4056 32.1628 34.2734 31.9911 34.1055C31.8169 33.9398 31.6798 33.7416 31.5881 33.5229C31.4963 33.3043 31.452 33.0698 31.4577 32.834ZM38.5184 19.2856C38.713 19.2835 38.906 19.32 39.0854 19.3927C39.2648 19.4654 39.4268 19.5729 39.5614 19.7084C39.702 19.8382 39.8134 19.9944 39.8888 20.1674C39.9643 20.3404 40.0021 20.5265 39.9999 20.7141C40.0021 20.9018 39.9643 21.0879 39.8888 21.2609C39.8134 21.4338 39.702 21.5901 39.5614 21.7199C39.4268 21.8554 39.2648 21.9629 39.0854 22.0356C38.906 22.1083 38.713 22.1448 38.5184 22.1427C38.3238 22.1448 38.1309 22.1083 37.9515 22.0356C37.7721 21.9629 37.6101 21.8554 37.4755 21.7199C37.3349 21.5901 37.2235 21.4338 37.1481 21.2609C37.0726 21.0879 37.0348 20.9018 37.037 20.7141C37.0348 20.5265 37.0726 20.3404 37.1481 20.1674C37.2235 19.9944 37.3349 19.8382 37.4755 19.7084C37.6101 19.5729 37.7721 19.4654 37.9515 19.3927C38.1309 19.32 38.3238 19.2835 38.5184 19.2856V19.2856ZM33.3096 4.66572C33.8666 4.66572 34.3911 4.76858 34.8829 4.98C35.8586 5.38706 36.6372 6.13681 37.0607 7.07713C37.277 7.55141 37.3866 8.05712 37.3866 8.5914C37.3866 9.12854 37.277 9.63425 37.0607 10.1114C36.6372 11.0517 35.8586 11.8014 34.8829 12.2085C34.3879 12.4175 33.853 12.5246 33.3125 12.5228C32.7555 12.5228 32.2311 12.4171 31.7363 12.2085C30.762 11.8004 29.9847 11.0508 29.5615 10.1114C29.3443 9.63313 29.2333 9.11635 29.2355 8.59426C29.2355 8.05712 29.3452 7.55141 29.5615 7.07713C29.9836 6.13626 30.7611 5.38549 31.7363 4.97715C32.2311 4.76858 32.7555 4.66286 33.3096 4.66286V4.66572Z"
			fill="currentColor"
		/>
	</symbol>
	<symbol
		id="nav-close"
		xmlns="http://www.w3.org/2000/svg"
		viewBox="0 0 22 22"
		fill="none"
		stroke="currentColor"
		stroke-width="2.5"
		stroke-linecap="round"
		stroke-linejoin="round"
	>
		<line x1="18" y1="4" x2="4" y2="18"></line>

		<line x1="4" y1="4" x2="18" y2="18"></line>
	</symbol>
	<symbol
		id="burger"
		xmlns="http://www.w3.org/2000/svg"
		viewBox="0 0 16 12"
		fill="none"
	>
		<rect
			x="0"
			y="0"
			width="16"
			height="2"
			fill="currentColor"
		></rect>

		<rect
			x="0"
			y="5"
			width="16"
			height="2"
			fill="currentColor"
		></rect>

		<rect
			x="0"
			y="10"
			width="16"
			height="2"
			fill="currentColor"
		></rect>
	</symbol>
	<symbol
		id="audio-off"
		xmlns="http://www.w3.org/2000/svg"
		viewBox="0 0 22 15"
		fill="none"
	>
		<path
			d="M20.4992 4.71425L14.9277 10.2857"
			stroke="currentColor"
			stroke-width="1.5"
			stroke-linecap="round"
			stroke-linejoin="round"
		/>

		<path
			d="M14.9277 4.71425L20.4992 10.2857"
			stroke="currentColor"
			stroke-width="1.5"
			stroke-linecap="round"
			stroke-linejoin="round"
		/>
	</symbol>
	<symbol
		id="audio-sound"
		xmlns="http://www.w3.org/2000/svg"
		viewBox="0 0 22 15"
		fill="none"
	>
		<path
			d="M13.8086 4.75C14.6215 5.56312 15.0781 6.6658 15.0781 7.81555C15.0781 8.96531 14.6215 10.068 13.8086 10.8811"
			stroke="currentColor"
			stroke-width="1.5"
			stroke-linecap="round"
			stroke-linejoin="round"
		/>

		<path
			d="M16.8164 2C18.2251 3.45884 19.0164 5.4372 19.0164 7.5C19.0164 9.5628 18.2251 11.5412 16.8164 13"
			stroke="currentColor"
			stroke-width="1.5"
			stroke-linecap="round"
			stroke-linejoin="round"
		/>
	</symbol>
	<symbol
		id="audio-base"
		xmlns="http://www.w3.org/2000/svg"
		viewBox="0 0 22 15"
		fill="none"
	>
		<path
			d="M9.51433 1L4.78415 4.78415H1V10.4604H4.78415L9.51433 14.2445V1Z"
			stroke="currentColor"
			stroke-width="1.5"
			stroke-linecap="round"
			stroke-linejoin="round"
		/>
	</symbol>
	<symbol
		id="settings"
		xmlns="http://www.w3.org/2000/svg"
		viewBox="0 0 18 18"
		fill="none"
	>
		<path
			d="M10.0131 18H7.98722C7.5251 18 7.12947 17.6859 7.02514 17.2355L6.70886 15.88C6.38192 15.7717 6.06306 15.6398 5.75522 15.4855L4.57237 16.2209C4.18078 16.4645 3.67861 16.4072 3.35241 16.0802L1.92012 14.648C1.59318 14.3214 1.53588 13.8192 1.7798 13.4276L2.51486 12.2448C2.36057 11.9369 2.22869 11.6181 2.12033 11.2915L0.764082 10.9752C0.314082 10.8705 0 10.4749 0 10.0128V7.98686C0 7.52547 0.313714 7.12984 0.763347 7.02478L2.11996 6.70849C2.22833 6.38192 2.3602 6.06306 2.51449 5.75522L1.77906 4.57237C1.53588 4.18078 1.59318 3.67898 1.91939 3.35241L3.35204 1.91976C3.67861 1.59355 4.18041 1.53588 4.57237 1.77943L5.75486 2.51449C6.06196 2.36094 6.38082 2.22906 6.70849 2.11996L7.02478 0.763714C7.12947 0.314082 7.5251 0 7.98722 0H10.0131C10.4745 0 10.8698 0.313714 10.9752 0.76298L11.2915 2.11959C11.6188 2.22833 11.9377 2.36057 12.2448 2.51449L13.4276 1.77906C13.82 1.53514 14.3214 1.59318 14.6476 1.91902L16.0799 3.35167C16.4064 3.67824 16.4645 4.18004 16.2209 4.572L15.4851 5.75486C15.6391 6.06196 15.7713 6.38082 15.88 6.70812L17.2367 7.02441C17.6863 7.1302 18 7.52547 18 7.98686V10.0128C18 10.4749 17.6859 10.8705 17.2363 10.9749L15.8804 11.2911C15.7717 11.6184 15.6394 11.9373 15.4855 12.2444L16.2209 13.4276C16.4652 13.8196 16.4072 14.3218 16.0799 14.648L14.6483 16.0799C14.3207 16.4061 13.8192 16.4634 13.428 16.2202L12.2451 15.4851C11.9373 15.6394 11.6184 15.7713 11.2919 15.8797L10.9756 17.2359C10.8702 17.6863 10.4745 18 10.0131 18ZM8.07796 16.898H9.92241L10.3643 15.0047L10.6777 14.9165C11.1365 14.7864 11.581 14.6028 11.9987 14.3695L12.2819 14.2108L13.9327 15.2372L15.2372 13.9324L14.2108 12.2815L14.3699 11.9979C14.6024 11.5821 14.7864 11.1376 14.9169 10.6769L15.0054 10.364L16.898 9.92241V8.07759L15.0054 7.63604L14.9169 7.32306C14.7864 6.86241 14.6024 6.41792 14.3699 6.00208L14.2108 5.71849L15.2372 4.06763L13.9327 2.76282L12.2819 3.78955L11.9983 3.63049C11.5824 3.39796 11.138 3.21392 10.6773 3.08351L10.3643 2.99498L9.92278 1.10204H8.07796L7.63641 2.99461L7.32343 3.08314C6.86204 3.21392 6.41755 3.39796 6.00282 3.63049L5.71886 3.78955L4.06763 2.76318L2.76318 4.06763L3.78955 5.71849L3.63086 6.00171C3.39759 6.41939 3.21355 6.86388 3.08388 7.32269L2.99571 7.63604L1.10204 8.07759V9.92204L2.99535 10.364L3.08351 10.6773C3.21355 11.1361 3.39722 11.5806 3.63049 11.9983L3.78918 12.2815L2.76318 13.9327L4.06727 15.2368L5.71849 14.2108L6.00208 14.3695C6.41865 14.6028 6.86314 14.7868 7.32269 14.9165L7.63604 15.0047L8.07796 16.898ZM16.9858 8.0978C16.9858 8.09816 16.9858 8.09816 16.9858 8.0978V8.0978Z"
			fill="currentColor"
		/>

		<path
			d="M9.00167 12.8572C6.87474 12.8572 5.14453 11.127 5.14453 9.00003C5.14453 6.87309 6.87474 5.14288 9.00167 5.14288C11.1286 5.14288 12.8588 6.87309 12.8588 9.00003C12.8588 11.127 11.1286 12.8572 9.00167 12.8572ZM9.00167 6.24492C7.48233 6.24492 6.24657 7.48068 6.24657 9.00003C6.24657 10.5194 7.48233 11.7551 9.00167 11.7551C10.521 11.7551 11.7568 10.5194 11.7568 9.00003C11.7568 7.48068 10.521 6.24492 9.00167 6.24492Z"
			fill="currentColor"
		/>
	</symbol>
	<symbol
		id="scribe"
		xmlns="http://www.w3.org/2000/svg"
		viewBox="0 0 15 20"
		fill="none"
	>
		<path
			d="M12.1153 20H3.7366C3.39049 20 3.10974 19.7192 3.10974 19.3731C3.10974 19.027 3.39049 18.7463 3.7366 18.7463H12.1153C12.5995 18.7463 12.9934 18.358 12.9934 17.8808V2.11884C12.9934 1.64201 12.5995 1.25373 12.1153 1.25373H2.13149C1.64763 1.25373 1.25373 1.64166 1.25373 2.11884V16.3534C1.25373 16.6995 0.972979 16.9802 0.626867 16.9802C0.280755 16.9802 0 16.6995 0 16.3534V2.11884C0 0.95049 0.956464 0 2.13149 0H12.115C13.2907 0 14.2468 0.95049 14.2468 2.11884V17.8805C14.2472 19.0495 13.2907 20 12.1153 20Z"
			fill="currentColor"
		/>

		<path
			d="M11.2146 6.52619H3.03409C2.68798 6.52619 2.40723 6.24544 2.40723 5.89933C2.40723 5.55322 2.68798 5.27246 3.03409 5.27246H11.2146C11.5607 5.27246 11.8415 5.55322 11.8415 5.89933C11.8415 6.24544 11.5607 6.52619 11.2146 6.52619Z"
			fill="currentColor"
		/>

		<path
			d="M11.2146 10.6269H3.03409C2.68798 10.6269 2.40723 10.3461 2.40723 10C2.40723 9.65392 2.68798 9.37317 3.03409 9.37317H11.2146C11.5607 9.37317 11.8415 9.65392 11.8415 10C11.8415 10.3461 11.5607 10.6269 11.2146 10.6269Z"
			fill="currentColor"
		/>

		<path
			d="M11.2146 14.7275H3.03409C2.68798 14.7275 2.40723 14.4467 2.40723 14.1006C2.40723 13.7545 2.68798 13.4738 3.03409 13.4738H11.2146C11.5607 13.4738 11.8415 13.7545 11.8415 14.1006C11.8415 14.4467 11.5607 14.7275 11.2146 14.7275Z"
			fill="currentColor"
		/>
	</symbol>
	<symbol
		id="pause"
		xmlns="http://www.w3.org/2000/svg"
		viewBox="0 0 10 16"
		fill="none"
	>
		<line
			x1="1.25"
			y1="1.25"
			x2="1.25"
			y2="14.75"
			stroke="currentColor"
			stroke-width="2.5"
			stroke-linecap="round"
		/>

		<line
			x1="8.25"
			y1="1.25"
			x2="8.25"
			y2="14.75"
			stroke="currentColor"
			stroke-width="2.5"
			stroke-linecap="round"
		/>
	</symbol>
	<symbol
		id="question"
		xmlns="http://www.w3.org/2000/svg"
		viewBox="0 0 20 22"
		fill="none"
	>
		<path
			d="M18.6737 7.54165C19.008 8.73471 19.0959 10.0161 18.8886 11.3185C18.8862 11.3348 18.8838 11.3506 18.881 11.3669C18.6101 12.9776 17.8935 14.4904 16.8237 15.7314C15.9456 16.7493 14.8554 17.6369 13.6174 18.1857C13.0482 18.4377 12.4258 18.4508 11.9144 18.7963C11.3819 19.1557 10.9381 19.6268 10.4152 19.9992C9.14562 20.9022 7.48298 21.1543 5.93898 20.9145C6.57096 20.611 7.10986 20.1217 7.47579 19.5277C7.64596 19.2515 7.83332 19.0126 7.6184 18.7083C7.467 18.4935 7.17817 18.3945 6.94487 18.3002C6.36243 18.064 5.77759 17.8374 5.24188 17.5061C4.51163 17.0544 3.84849 16.4985 3.27683 15.861C2.13231 14.5835 1.3685 12.9851 1.10485 11.2956C0.962231 10.3822 0.965827 9.44833 1.11124 8.5354C1.88543 3.66609 6.49346 0.342089 11.4027 1.11039C13.5112 1.44084 15.3324 2.47224 16.6631 3.92761"
			stroke="currentColor"
			stroke-width="1.5"
			stroke-miterlimit="10"
			stroke-linecap="round"
			stroke-linejoin="round"
		/>
	</symbol>
	<symbol
		id="retake"
		xmlns="http://www.w3.org/2000/svg"
		viewBox="0 0 14 17"
		fill="none"
	>
		<path
			d="M3.56156 3.11154C6.97899 1.56423 10.9996 3.02276 12.6555 6.38679C14.3647 9.85931 12.9321 14.0695 9.45954 15.7787C5.98702 17.4879 1.77683 16.0553 0.0676364 12.5827C-0.279549 11.8774 0.805609 11.3432 1.15279 12.0486C2.56826 14.9243 6.04973 16.109 8.92542 14.6935C11.8011 13.2781 12.9858 9.7966 11.5703 6.9209C10.2083 4.15376 6.91627 2.94318 4.09573 4.1967L5.87696 4.80283C6.60562 5.05078 6.21991 6.18432 5.49125 5.93631L2.33356 4.8618C2.00972 4.75161 1.79522 4.45275 1.87873 4.07466L3.00749 0.8903C3.25544 0.16164 4.38898 0.547348 4.14097 1.27601L3.56156 3.11154Z"
			fill="currentColor"
		/>
	</symbol>
	<symbol
		id="play"
		xmlns="http://www.w3.org/2000/svg"
		viewBox="0 0 14 18"
		fill="none"
	>
		<path
			d="M1 1L13 9L1 17V7.051"
			stroke="currentColor"
			stroke-width="1.5"
			stroke-linecap="round"
			stroke-linejoin="round"
		/>
	</symbol>
	<symbol
		id="save"
		xmlns="http://www.w3.org/2000/svg"
		viewBox="0 0 12 13"
		fill="none"
	>
		<path
			d="M11.8727 3.40091L9.10645 0.634738L9.09921 0.627259C9.02045 0.548612 8.91176 0.5 8.79186 0.5H7.97994H7.9686H4.04274H4.0314H4.02018H0.445709H0.26248C0.117489 0.5 0 0.617489 0 0.76248V2.93638C0 3.19862 0.212541 3.41116 0.474779 3.41116C0.692507 3.41116 0.868981 3.23468 0.868981 3.01696V1.51663C0.868981 1.43496 0.935084 1.36886 1.01675 1.36886H3.44927C3.53093 1.36886 3.59703 1.43496 3.59703 1.51663V3.23058V3.41393C3.59703 3.55892 3.71452 3.67641 3.85951 3.67641H7.95738H8.14073C8.28572 3.67641 8.40321 3.55892 8.40321 3.41393V1.51663C8.40321 1.43496 8.46931 1.36886 8.55097 1.36886C8.59018 1.36886 8.62769 1.38442 8.65543 1.41216L11.0878 3.84468C11.1156 3.87243 11.1311 3.90994 11.1311 3.94915V11.4834C11.1311 11.565 11.065 11.6311 10.9834 11.6311H9.56868C9.48702 11.6311 9.42092 11.565 9.42092 11.4834V7.4615V7.27815C9.42092 7.13316 9.30343 7.01567 9.15844 7.01567H3.02479H2.84144C2.69645 7.01567 2.57896 7.13316 2.57896 7.27815V11.4834C2.57896 11.565 2.51286 11.6311 2.43119 11.6311H1.01675C0.935084 11.6311 0.868981 11.565 0.868981 11.4834V6.38335C0.868981 6.16563 0.692507 5.98915 0.474779 5.98915C0.212541 5.98927 0 6.20181 0 6.46405V12.0544V12.2378C0 12.3827 0.117489 12.5002 0.26248 12.5002H3.00223H3.01345H8.97521H8.98655H8.99789H11.5543H11.7376C11.8826 12.5002 12.0001 12.3827 12.0001 12.2378V3.70814C12 3.5968 11.9574 3.4857 11.8727 3.40091ZM7.38622 2.80743H4.61366C4.532 2.80743 4.46589 2.74133 4.46589 2.65967V1.51663C4.46589 1.43496 4.532 1.36886 4.61366 1.36886H7.38634C7.468 1.36886 7.53411 1.43496 7.53411 1.51663V2.65967C7.53399 2.74121 7.46788 2.80743 7.38622 2.80743ZM8.40429 11.6311H3.59571C3.51404 11.6311 3.44794 11.565 3.44794 11.4834V8.03241C3.44794 7.95075 3.51404 7.88465 3.59571 7.88465H8.40429C8.48596 7.88465 8.55206 7.95075 8.55206 8.03241V11.4834C8.55206 11.565 8.48584 11.6311 8.40429 11.6311Z"
			fill="currentColor"
		/>
	</symbol>
	<symbol
		id="info"
		xmlns="http://www.w3.org/2000/svg"
		viewBox="0 0 7 20"
		fill="none"
	>
		<path
			d="M3.32136 6.64202C1.48983 6.64202 0 5.15219 0 3.32101C0 1.48983 1.48983 0 3.32136 0C5.15289 0 6.64272 1.48983 6.64272 3.32101C6.64237 5.15219 5.15254 6.64202 3.32136 6.64202ZM3.32136 1.25046C2.17954 1.25046 1.25081 2.17919 1.25081 3.32066C1.25081 4.46247 2.17954 5.39121 3.32136 5.39121C4.46317 5.39121 5.39191 4.46247 5.39191 3.32066C5.39191 2.17954 4.46282 1.25046 3.32136 1.25046Z"
			fill="currentColor"
		/>

		<path
			d="M3.31448 20C1.80608 20 0.579102 18.773 0.579102 17.2643V10.8718C0.579102 10.5266 0.859123 10.2466 1.20433 10.2466C1.54954 10.2466 1.82956 10.5266 1.82956 10.8718V17.2646C1.82956 18.0833 2.49545 18.7495 3.31413 18.7495C4.13282 18.7495 4.79905 18.0833 4.79905 17.2646V12.9753C4.79905 12.6301 5.07908 12.35 5.42428 12.35C5.76949 12.35 6.04951 12.6301 6.04951 12.9753V17.2643C6.05021 18.773 4.82324 20 3.31448 20Z"
			fill="currentColor"
		/>

		<path
			d="M5.42511 10.9587C5.0799 10.9587 4.79988 10.6787 4.79988 10.3335C4.79988 9.76327 4.46693 9.23652 3.95175 8.99155C3.63984 8.8433 3.50701 8.4704 3.65561 8.15814C3.80385 7.84623 4.1764 7.71305 4.48901 7.862C5.43737 8.31305 6.05034 9.28313 6.05034 10.3335C6.05069 10.6787 5.77066 10.9587 5.42511 10.9587Z"
			fill="currentColor"
		/>

		<path
			d="M1.20531 17.886C0.8601 17.886 0.580078 17.606 0.580078 17.2608V10.3293C0.580078 8.82122 1.80706 7.59424 3.31546 7.59424C4.82421 7.59424 6.05119 8.82122 6.05119 10.3293C6.05119 10.6745 5.77117 10.9545 5.42596 10.9545C5.08075 10.9545 4.80073 10.6745 4.80073 10.3293C4.80073 9.51093 4.1345 8.84505 3.31581 8.84505C2.49712 8.84505 1.83124 9.51093 1.83124 10.3293V17.2608C1.83054 17.606 1.55052 17.886 1.20531 17.886Z"
			fill="currentColor"
		/>
	</symbol>
	<symbol
		id="phone"
		xmlns="http://www.w3.org/2000/svg"
		viewBox="0 0 16 20"
		fill="none"
	>
		<path
			d="M11.3488 19.2035C11.089 19.2035 10.8278 19.1789 10.5675 19.1286C6.83476 18.4067 3.73531 16.3122 1.8401 13.2309C-0.017251 10.2123 -0.487504 6.6043 0.515817 3.07117C1.10223 1.00558 3.31625 -0.339348 5.45196 0.0749736C5.66838 0.116707 5.88307 0.176941 6.08915 0.254384L6.17219 0.285791C6.76033 0.518982 7.1071 1.08862 7.04256 1.70601L6.53273 6.58795C6.49143 6.97388 6.20704 7.29613 5.82455 7.39035C5.81939 7.39164 5.24244 7.52846 4.78724 7.63989C4.94643 8.78175 5.33709 9.85606 5.95147 10.8366C6.56758 11.8201 7.3717 12.65 8.34404 13.3062C8.65424 12.9568 9.04877 12.5059 9.0492 12.5055C9.30864 12.2129 9.72038 12.1088 10.0796 12.2435L14.7452 13.992C15.3311 14.2122 15.6895 14.7741 15.6375 15.3911L15.6276 15.4883C15.6052 15.703 15.5635 15.9203 15.5032 16.1328C14.9882 17.9459 13.2178 19.2035 11.3488 19.2035ZM4.65731 1.28954C3.35067 1.28954 2.11588 2.16293 1.75792 3.42396C0.853986 6.60473 1.2739 9.84745 2.93893 12.555C4.64268 15.3248 7.43881 17.2089 10.8128 17.8615C12.3018 18.1498 13.8533 17.217 14.2616 15.7796C14.302 15.6389 14.3295 15.4952 14.3442 15.3532L14.3519 15.2779C14.3528 15.2681 14.3567 15.2242 14.2921 15.2001L9.86021 13.5389C9.65799 13.7691 9.31036 14.1645 9.10341 14.3938C8.79794 14.7328 8.30102 14.8068 7.92155 14.5698C6.68159 13.7953 5.62234 12.7413 4.85823 11.5211C4.08036 10.279 3.61183 8.90695 3.46511 7.44241C3.42123 6.9941 3.72498 6.57332 4.17114 6.46275C4.4693 6.38789 4.97612 6.26613 5.27686 6.19428L5.75916 1.57264C5.76088 1.55801 5.76561 1.51284 5.70452 1.48917L5.63611 1.46293C5.49757 1.4113 5.35344 1.37043 5.20716 1.34246C5.02431 1.30718 4.84016 1.28954 4.65731 1.28954Z"
			fill="currentColor"
		/>
	</symbol>
	<symbol
		id="edit"
		xmlns="http://www.w3.org/2000/svg"
		viewBox="0 0 11 17"
		fill="none"
	>
		<path
			d="M0.497888 16.5C0.407454 16.5 0.316741 16.4754 0.236355 16.4258C0.0700008 16.323 -0.0209914 16.1324 0.00412916 15.9384L0.474442 12.2764C0.483094 12.2083 0.505703 12.1427 0.541151 12.0835L1.03351 11.2638C1.17531 11.0282 1.48094 10.952 1.71707 11.0932C1.95293 11.235 2.02913 11.5409 1.88761 11.7768L1.44912 12.5069L1.13204 14.9746L3.22375 13.5659L9.72327 2.74538L7.95172 1.68138L3.33456 9.36744C3.19332 9.60273 2.88741 9.67949 2.65128 9.5377C2.41542 9.39618 2.33922 9.08999 2.48102 8.85442L7.3544 0.741316C7.42223 0.628274 7.53248 0.546493 7.66088 0.514673C7.78871 0.483133 7.92436 0.502671 8.03796 0.571055L10.6633 2.14807C10.8992 2.28958 10.9754 2.59577 10.8336 2.83135L4.02091 14.1738C3.98323 14.2364 3.93271 14.2897 3.87214 14.3307L0.776168 16.4151C0.692432 16.4718 0.595021 16.5 0.497888 16.5Z"
			fill="currentColor"
		/>
	</symbol>
	<symbol
		id="close"
		xmlns="http://www.w3.org/2000/svg"
		viewBox="0 0 16 16"
		fill="none"
	>
		<path
			d="M3.86004 16.0003C3.72408 16.0003 3.59171 15.9542 3.48639 15.8688L0.522646 13.4625C0.403966 13.3658 0.329627 13.2275 0.316586 13.0777C0.303544 12.9279 0.35245 12.7794 0.453198 12.6647L4.6657 7.86316L0.161388 3.30013C0.0534673 3.19081 -0.00489471 3.04421 0.000322004 2.89318C0.00521268 2.74215 0.0723779 2.59934 0.18682 2.49634L2.80724 0.150051C3.04004 -0.05848 3.40293 -0.0477375 3.62235 0.174063L7.97147 4.57722L10.5554 1.59239C10.7614 1.35384 11.1289 1.32256 11.375 1.52256C11.6215 1.72288 11.6535 2.07833 11.4471 2.31688L8.44619 5.78386C8.3399 5.90676 8.1847 5.97975 8.0194 5.98512C7.85833 5.99681 7.69433 5.92699 7.57989 5.81166L3.1773 1.35416L1.41144 2.9352L5.86913 7.45116C6.07552 7.66 6.0853 7.98575 5.89195 8.20629L1.7189 12.9624L3.7756 14.6322L7.54044 10.0309C7.64673 9.90108 7.80649 9.82304 7.97734 9.81767C8.15373 9.81293 8.31316 9.87959 8.42793 10.0028L12.7272 14.6063L14.6062 12.6837L10.2838 8.50392C10.0758 8.30266 10.0552 7.98323 10.2362 7.75858L14.3897 2.59397L13.0151 1.31087C12.7836 1.09476 12.777 0.738044 12.9997 0.513716C13.2224 0.289703 13.5905 0.282436 13.8223 0.498866L15.5742 2.13394C15.7884 2.33425 15.8122 2.65906 15.6293 2.88654L11.4703 8.05811L15.8291 12.2739C16.0525 12.4897 16.0574 12.8385 15.8406 13.0603L13.1399 15.824C13.0284 15.938 12.8791 16.0019 12.7109 16.0003C12.5488 15.9984 12.3949 15.9314 12.286 15.8148L8.02559 11.2527L4.31585 15.7867C4.21804 15.9061 4.07523 15.982 3.91873 15.9974C3.89917 15.9993 3.87928 16.0003 3.86004 16.0003Z"
			fill="currentColor"
		/>
	</symbol>
	<symbol
		id="clock"
		xmlns="http://www.w3.org/2000/svg"
		viewBox="0 0 18 18"
		fill="none"
	>
		<path
			d="M8.99982 18C4.03705 18 0 13.9626 0 9.00018C0 7.97532 0.17081 6.97078 0.507439 6.01403C0.624403 5.68275 0.987063 5.50944 1.31906 5.62498C1.65069 5.74194 1.82471 6.10531 1.7081 6.43659C1.4189 7.25713 1.27234 8.11938 1.27234 8.99982C1.27234 13.2605 4.73919 16.7269 8.99982 16.7269C13.2605 16.7269 16.7273 13.2605 16.7273 8.99982C16.7273 4.73883 13.2605 1.27199 8.99982 1.27199C7.61159 1.27199 6.24974 1.64463 5.06155 2.34962C4.75987 2.52899 4.3694 2.4295 4.18967 2.12675C4.0103 1.82436 4.11015 1.43424 4.41254 1.25487C5.79686 0.434336 7.38336 0 8.99982 0C13.9626 0 17.9996 4.0374 17.9996 9.00018C18 13.9626 13.9626 18 8.99982 18Z"
			fill="currentColor"
		/>

		<path
			d="M8.898 10.2051C8.80493 10.2051 8.71186 10.1848 8.62449 10.1434C8.40269 10.0379 8.26147 9.81429 8.26147 9.56895V4.13475C8.26147 3.7835 8.5464 3.49858 8.89765 3.49858C9.24889 3.49858 9.53382 3.7835 9.53382 4.13475V8.29661C10.1575 7.86548 10.8112 7.47572 11.4876 7.13231C11.7996 6.97399 12.1837 7.09773 12.3431 7.41189C12.5018 7.72534 12.377 8.10832 12.0635 8.26737C11.0807 8.76553 10.1507 9.36997 9.29882 10.0625C9.18399 10.1566 9.04135 10.2051 8.898 10.2051Z"
			fill="currentColor"
		/>
	</symbol>
	<symbol
		id="calendar"
		xmlns="http://www.w3.org/2000/svg"
		viewBox="0 0 18 18"
		fill="none"
	>
		<path
			d="M14.0785 4.452C13.4561 4.452 12.9497 3.9456 12.9497 3.3232V3.0584H5.64726V3.324C5.64726 3.9464 5.14086 4.4528 4.51846 4.4528C3.89606 4.4528 3.39046 3.9456 3.39046 3.324V3.0584H3.32406C2.40886 3.0584 1.66406 3.8032 1.66406 4.7184V6.3784H16.9337V4.7176C16.9337 3.8024 16.1889 3.0576 15.2737 3.0576H15.2073V3.3232C15.2073 3.9456 14.7009 4.452 14.0785 4.452Z"
			stroke="currentColor"
			stroke-width="0.5"
		/>

		<path
			d="M14.0784 3.788C14.3344 3.788 14.5432 3.5792 14.5432 3.3232V3.0584V2.7264V2.1288C14.5432 1.8728 14.3344 1.664 14.0784 1.664C13.8224 1.664 13.6136 1.8728 13.6136 2.1288V2.7264V3.0584V3.324C13.6144 3.58 13.8224 3.788 14.0784 3.788Z"
			stroke="currentColor"
			stroke-width="0.5"
		/>

		<path
			d="M4.51827 3.788C4.77427 3.788 4.98307 3.5792 4.98307 3.3232V3.0584V2.7264V2.1288C4.98307 1.8728 4.77427 1.664 4.51827 1.664C4.26227 1.664 4.05347 1.8728 4.05347 2.1288V2.7264V3.0584V3.324C4.05347 3.58 4.26227 3.788 4.51827 3.788Z"
			stroke="currentColor"
			stroke-width="0.5"
		/>

		<path
			d="M1.332 6.3776H1.664V4.7176C1.664 3.8024 2.4088 3.0576 3.324 3.0576H3.3904V2.3936H3.324C2.0424 2.3944 1 3.4368 1 4.7176V6.7096C1 6.5264 1.1488 6.3776 1.332 6.3776Z"
			fill="currentColor"
			stroke="currentColor"
			stroke-width="0.5"
		/>

		<path
			d="M15.2734 2.3944H15.207V3.0584H15.2734C16.1886 3.0584 16.9334 3.8032 16.9334 4.7184V6.3784H17.2654C17.4486 6.3784 17.5974 6.5272 17.5974 6.7104V4.7184C17.5974 3.4368 16.555 2.3944 15.2734 2.3944Z"
			fill="currentColor"
			stroke="currentColor"
			stroke-width="0.5"
		/>

		<path
			d="M12.9504 2.3944H5.64722V3.0584H12.9504V2.3944Z"
			fill="currentColor"
			stroke="currentColor"
			stroke-width="0.5"
		/>

		<path
			d="M4.5182 4.452C5.1406 4.452 5.647 3.9456 5.647 3.3232V3.0584H4.983V3.324C4.983 3.58 4.7742 3.7888 4.5182 3.7888C4.2622 3.7888 4.0534 3.58 4.0534 3.324V3.0584H3.3894V3.324C3.3902 3.9456 3.8966 4.452 4.5182 4.452Z"
			fill="currentColor"
			stroke="currentColor"
			stroke-width="0.5"
		/>

		<path
			d="M4.05346 2.7264V2.1288C4.05346 1.8728 4.26226 1.664 4.51826 1.664C4.77426 1.664 4.98306 1.8728 4.98306 2.1288V2.7264C4.98306 2.5432 5.13186 2.3944 5.31506 2.3944H5.64706V2.1288C5.64706 1.5064 5.14066 1 4.51826 1C3.89586 1 3.39026 1.5064 3.39026 2.1288V2.3944H3.72226C3.90546 2.3944 4.05346 2.5432 4.05346 2.7264Z"
			fill="currentColor"
			stroke="currentColor"
			stroke-width="0.5"
		/>

		<path
			d="M4.05346 3.0584V2.7264C4.05346 2.5432 3.90466 2.3944 3.72146 2.3944H3.39026V3.0584H4.05346Z"
			fill="currentColor"
			stroke="currentColor"
			stroke-width="0.5"
		/>

		<path
			d="M4.98315 2.7264V3.0584H5.64715V2.3944H5.31515C5.13195 2.3944 4.98315 2.5432 4.98315 2.7264Z"
			fill="currentColor"
			stroke="currentColor"
			stroke-width="0.5"
		/>

		<path
			d="M14.5432 3.324C14.5432 3.58 14.3344 3.7888 14.0784 3.7888C13.8224 3.7888 13.6136 3.58 13.6136 3.324V3.0584H12.9496V3.324C12.9496 3.9464 13.456 4.4528 14.0784 4.4528C14.7008 4.4528 15.2072 3.9464 15.2072 3.324V3.0584H14.5432V3.324Z"
			fill="currentColor"
			stroke="currentColor"
			stroke-width="0.5"
		/>

		<path
			d="M13.6144 2.7264V2.1288C13.6144 1.8728 13.8232 1.664 14.0792 1.664C14.3352 1.664 14.544 1.8728 14.544 2.1288V2.7264C14.544 2.5432 14.6928 2.3944 14.876 2.3944H15.208V2.1288C15.2072 1.5064 14.7008 1 14.0784 1C13.456 1 12.9496 1.5064 12.9496 2.1288V2.3944H13.2816C13.4656 2.3944 13.6144 2.5432 13.6144 2.7264Z"
			fill="currentColor"
			stroke="currentColor"
			stroke-width="0.5"
		/>

		<path
			d="M14.5433 2.7264V3.0584H15.2073V2.3944H14.8753C14.6921 2.3944 14.5433 2.5432 14.5433 2.7264Z"
			fill="currentColor"
			stroke="currentColor"
			stroke-width="0.5"
		/>

		<path
			d="M13.6144 3.0584V2.7264C13.6144 2.5432 13.4656 2.3944 13.2824 2.3944H12.9504V3.0584H13.6144Z"
			fill="currentColor"
			stroke="currentColor"
			stroke-width="0.5"
		/>

		<path
			d="M1 6.7096V14.676C1 15.96 2.04 17 3.324 17H11.6224C11.8056 17 11.9544 16.8512 11.9544 16.668C11.9544 16.4848 11.8056 16.336 11.6224 16.336H3.324C2.4072 16.336 1.664 15.5928 1.664 14.676V7.0416H1.332C1.1488 7.0416 1 6.8928 1 6.7096Z"
			fill="currentColor"
			stroke="currentColor"
			stroke-width="0.5"
		/>

		<path
			d="M17.2654 7.0416H16.9334V14.6768C16.9334 15.496 16.3374 16.1784 15.5558 16.3128C15.3942 16.3408 15.2734 16.4752 15.2734 16.6392V16.64C15.2734 16.8408 15.4518 17.0032 15.6502 16.9704C16.7526 16.7896 17.5966 15.8304 17.5966 14.6776V6.7096C17.5974 6.8928 17.4486 7.0416 17.2654 7.0416Z"
			fill="currentColor"
			stroke="currentColor"
			stroke-width="0.5"
		/>

		<path
			d="M17.2656 6.3776H16.9336H1.664H1.332C1.1488 6.3776 1 6.5264 1 6.7096C1 6.8928 1.1488 7.0416 1.332 7.0416H1.664H16.9336H17.2656C17.4488 7.0416 17.5976 6.8928 17.5976 6.7096C17.5976 6.5264 17.4488 6.3776 17.2656 6.3776Z"
			fill="currentColor"
			stroke="currentColor"
			stroke-width="0.5"
		/>
	</symbol>
	<symbol
		id="check"
		xmlns="http://www.w3.org/2000/svg"
		viewBox="0 0 18 14"
		fill="none"
	>
		<path
			d="M7.01173 13.7949C6.87189 13.7949 6.73785 13.7393 6.64037 13.6399L0.812851 7.71105C0.618175 7.51309 0.617885 7.19824 0.811981 6.99971L3.22904 4.52962C3.32652 4.42993 3.46114 4.37377 3.60127 4.37377H3.60157C3.74199 4.37377 3.87632 4.43021 3.9738 4.52991L6.82083 7.44462L12.5398 1.24678C12.7325 1.0385 13.0595 1.02303 13.2713 1.21326C13.4828 1.40349 13.4976 1.72693 13.3052 1.93549L7.21424 8.53613C7.11763 8.64041 6.98185 8.70086 6.83882 8.70287C6.70304 8.70172 6.55797 8.64872 6.45875 8.54673L3.60069 5.62056L1.9046 7.3538L6.99346 12.5312L16.0988 2.35519L14.8977 1.21269C14.6917 1.01673 14.6856 0.693286 14.8838 0.490167C15.0817 0.286476 15.4098 0.28046 15.6155 0.476416L17.1746 1.95898C17.3745 2.14892 17.387 2.46033 17.2037 2.66574L7.39964 13.6221C7.30418 13.7287 7.16811 13.7914 7.02392 13.7949C7.01957 13.7949 7.0158 13.7949 7.01173 13.7949Z"
			fill="currentColor"
		/>
	</symbol>
	<symbol
		id="video"
		xmlns="http://www.w3.org/2000/svg"
		viewBox="0 0 35 25"
		fill="none"
	>
		<path
			d="M28.2859 23.2795H4.89613C3.5471 23.2795 2.44434 22.1762 2.44434 20.8278V4.56229C2.44434 3.21447 3.5471 2.1111 4.89613 2.1111H30.7953C32.1431 2.1111 33.2471 3.21447 33.2471 4.56229V18.2128"
			stroke="currentColor"
			stroke-width="2"
			stroke-miterlimit="10"
			stroke-linecap="round"
			stroke-linejoin="round"
		/>

		<path
			d="M14.6872 17.0472C14.8675 17.1528 15.0652 17.2053 15.2633 17.2053C15.4615 17.2053 15.6591 17.1528 15.8395 17.0472L22.0934 13.3909C22.454 13.1803 22.6695 12.8023 22.6695 12.3806C22.6695 11.9588 22.454 11.5808 22.0934 11.3702L15.8395 7.71389C15.4782 7.50272 15.0485 7.50272 14.6872 7.71389C14.3266 7.92447 14.1111 8.30247 14.1111 8.72422V16.0369C14.1111 16.4586 14.3266 16.8366 14.6872 17.0472ZM15.2633 8.72422L21.5178 12.3806L15.2639 16.0369V8.72422H15.2633Z"
			fill="currentColor"
			stroke="currentColor"
		/>
	</symbol>
	<symbol
		id="camera-strike"
		xmlns="http://www.w3.org/2000/svg"
		viewBox="0 0 23 22"
		fill="none"
	>
		<line
			x1="6.33279"
			y1="1.47293"
			x2="15.4729"
			y2="20.6672"
			stroke="currentColor"
			stroke-width="2"
			stroke-linecap="round"
		/>
	</symbol>
	<symbol
		id="camera"
		xmlns="http://www.w3.org/2000/svg"
		viewBox="0 0 39 24"
		fill="none"
	>
		<path
			d="M36.3832 3.57442C36.1639 3.57442 35.9401 3.61876 35.7176 3.7062L28.3268 7.10528V5.09982C28.3268 3.1117 26.7151 1.5 24.7269 1.5H4.39971C2.4116 1.5 0.799927 3.11167 0.799927 5.09979V18.9002C0.799927 20.8883 2.4116 22.5 4.39968 22.5H16.1033C16.4827 22.5 16.7902 22.1924 16.7902 21.8131V21.7972C16.7902 21.4178 16.4827 21.1103 16.1033 21.1103H4.39971C3.17909 21.1103 2.1896 20.1208 2.1896 18.9002V5.09982C2.1896 3.87919 3.17912 2.88964 4.39978 2.88964H24.727C25.9476 2.88964 26.9371 3.87913 26.9371 5.09975V18.9002C26.9371 20.1208 25.9476 21.1103 24.727 21.1103H23.5247C23.1453 21.1103 22.8378 21.4179 22.8378 21.7972V21.8131C22.8378 22.1925 23.1453 22.5 23.5247 22.5H24.727C26.7151 22.5 28.3268 20.8883 28.3268 18.9002V16.895L35.6813 20.2785L35.7177 20.294C35.94 20.3813 36.1638 20.4256 36.383 20.4257C36.8093 20.4257 37.1957 20.2574 37.4704 19.9519C37.7334 19.6594 37.8724 19.27 37.8724 18.8256V5.17438C37.8724 4.24733 37.2461 3.57442 36.3832 3.57442ZM36.4827 18.8256C36.4827 18.9336 36.4581 18.9993 36.437 19.0227C36.4291 19.0315 36.411 19.036 36.3832 19.036C36.3547 19.036 36.3076 19.0307 36.2412 19.0064L28.3268 15.3653V8.63477L36.2413 4.99373C36.3077 4.96942 36.3548 4.96413 36.3832 4.96413C36.411 4.96413 36.4291 4.96856 36.437 4.97738C36.4581 5.00084 36.4827 5.06647 36.4827 5.17438V18.8256Z"
			fill="currentColor"
		/>

		<path
			d="M36.383 20.4257C36.1638 20.4256 35.94 20.3813 35.7177 20.294L35.6813 20.2785L28.3268 16.895V18.9002C28.3268 20.8883 26.7151 22.5 24.727 22.5H23.5247C23.1453 22.5 22.8378 22.1925 22.8378 21.8131V21.7972C22.8378 21.4179 23.1453 21.1103 23.5247 21.1103H24.727C25.9476 21.1103 26.9371 20.1208 26.9371 18.9002V5.09975C26.9371 3.87913 25.9476 2.88964 24.727 2.88964H4.39978C3.17912 2.88964 2.1896 3.87919 2.1896 5.09982V18.9002C2.1896 20.1208 3.17909 21.1103 4.39971 21.1103H16.1033C16.4827 21.1103 16.7902 21.4178 16.7902 21.7972V21.8131C16.7902 22.1924 16.4827 22.5 16.1033 22.5H4.39968C2.4116 22.5 0.799927 20.8883 0.799927 18.9002V5.09979C0.799927 3.11167 2.4116 1.5 4.39971 1.5H24.7269C26.7151 1.5 28.3268 3.1117 28.3268 5.09982V7.10528L35.7176 3.7062C35.9401 3.61876 36.1639 3.57442 36.3832 3.57442C37.2461 3.57442 37.8724 4.24733 37.8724 5.17438V18.8256C37.8724 19.27 37.7334 19.6594 37.4704 19.9519C37.1957 20.2574 36.8093 20.4257 36.383 20.4257ZM36.383 20.4257V20.4257ZM36.4827 18.8256C36.4827 18.9336 36.4581 18.9993 36.437 19.0227C36.4291 19.0315 36.411 19.036 36.3832 19.036C36.3547 19.036 36.3076 19.0307 36.2412 19.0064L28.3268 15.3653V8.63477L36.2413 4.99373C36.3077 4.96942 36.3548 4.96413 36.3832 4.96413C36.411 4.96413 36.4291 4.96856 36.437 4.97738C36.4581 5.00084 36.4827 5.06647 36.4827 5.17438V18.8256Z"
			stroke="currentColor"
			stroke-width="1"
		/>
	</symbol>
	<symbol
		id="chevron-left"
		xmlns="http://www.w3.org/2000/svg"
		viewBox="0 0 16 17"
		fill="none"
	>
		<path
			d="M11 14.5L5 8.5L11 2.5"
			stroke="currentColor"
			stroke-width="2"
			stroke-linecap="round"
			stroke-linejoin="round"
		/>
	</symbol>
	<symbol
		id="chevron-right"
		xmlns="http://www.w3.org/2000/svg"
		viewBox="0 0 16 17"
		fill="none"
	>
		<path
			d="M5 14.5L11 8.5L5 2.5"
			stroke="currentColor"
			stroke-width="2"
			stroke-linecap="round"
			stroke-linejoin="round"
		/>
	</symbol>
	<symbol
		id="logo"
		xmlns="http://www.w3.org/2000/svg"
		viewBox="0 0 495 103"
		fill="none"
	>
		<title>Thiscovery logo</title>

		<path
			d="M43.7054 77.9689C41.9368 78.5945 37.8822 79.0116 35.2795 79.0116C27.1624 79.0116 21.231 76.3007 17.7942 71.7286C15.1992 68.2918 14.0485 63.8201 14.0485 56.6376L14.0485 38.9515H2.28882e-05V27.5058L14.0485 27.5058V13.4573H27.5795V27.5058H44.2229V38.9515H27.5795L27.5795 58.1976C27.5795 61.3178 28.0969 63.1945 29.24 64.5461C30.5915 66.1062 32.7772 67.0407 36.1136 67.0407C38.083 67.0407 40.6857 66.7317 41.6279 66.5232L43.7054 77.9689Z"
			fill="currentColor"
		/>

		<path
			d="M66.5972 77.969H53.0739L53.0739 4.08913H66.5972V31.1434C70.3429 28.2318 75.1313 26.4631 80.329 26.4631C87.303 26.4631 93.6515 29.5833 97.8142 34.5802C101.143 38.5345 103.02 43.6318 103.02 52.2663V77.969H89.4887V51.2313C89.4887 46.2345 88.3456 43.6318 86.4689 41.7627C84.7003 39.9864 81.9972 38.9515 78.877 38.9515C73.1542 38.9515 68.4662 42.5891 66.5972 45.1918V77.969Z"
			fill="currentColor"
		/>

		<path
			d="M120.467 0.968979C125.355 0.968979 129.31 4.71472 129.31 9.60348C129.31 14.4922 125.355 18.2457 120.467 18.2457C115.578 18.2457 111.624 14.4922 111.624 9.60348C111.624 4.71472 115.578 0.968979 120.467 0.968979Z"
			fill="currentColor"
		/>

		<path
			d="M142.037 62.5689C145.474 65.6891 150.78 67.5658 155.877 67.5658C159.515 67.5658 162.326 65.7972 162.326 63.2949C162.326 55.703 137.875 58.4061 137.875 42.172C137.875 32.4949 147.243 26.4631 157.229 26.4631C163.786 26.4631 170.961 28.9577 174.297 31.5604L167.949 41.3457C165.346 39.4689 161.909 37.9089 158.271 37.9089C154.526 37.9089 151.406 39.3685 151.406 41.9635C151.406 48.5205 175.857 45.9178 175.857 63.403C175.857 73.0802 166.388 79.0116 155.769 79.0116C148.803 79.0116 141.412 76.6174 135.48 72.2461L142.037 62.5689Z"
			fill="currentColor"
		/>

		<path
			d="M231.618 67.6662C225.687 75.5747 218.195 79.0116 208.727 79.0116C193.118 79.0116 181.672 67.3573 181.672 52.7837C181.672 38.1174 193.427 26.4631 208.827 26.4631C217.57 26.4631 225.378 30.5178 230.058 36.5573L220.481 44.9833C217.778 41.4461 213.724 38.9515 208.827 38.9515C201.027 38.9515 195.203 45.0837 195.203 52.7837C195.203 60.6922 200.926 66.5232 209.144 66.5232C214.658 66.5232 219.029 63.1945 221.215 59.8658L231.618 67.6662Z"
			fill="currentColor"
		/>

		<path
			d="M260.966 66.5232C268.875 66.5232 274.281 60.3833 274.281 52.7914C274.281 45.1918 268.875 38.9515 260.966 38.9515C253.058 38.9515 247.651 45.1918 247.651 52.7914C247.651 60.3833 253.058 66.5232 260.966 66.5232ZM260.966 26.4631C276.258 26.4631 287.812 38.2178 287.812 52.7914C287.812 67.3573 276.258 79.0116 260.966 79.0116C245.667 79.0116 234.12 67.3573 234.12 52.7914C234.12 38.2178 245.667 26.4631 260.966 26.4631Z"
			fill="currentColor"
		/>

		<path
			d="M315.167 58.3058L329.007 27.5058H343.055L319.847 77.969H310.487L287.279 27.5058H301.327L315.167 58.3058Z"
			fill="currentColor"
		/>

		<path
			d="M377.385 46.2344C376.968 41.7627 372.906 37.3914 367.392 37.3914C361.777 37.3914 357.197 41.6546 356.571 46.2344H377.385ZM389.974 69.96C385.085 75.7833 377.069 79.0116 369.268 79.0116C354.177 79.0116 342.84 68.6085 342.84 52.7914C342.84 38.743 352.409 26.4631 367.392 26.4631C381.34 26.4631 391.225 38.2255 391.225 52.274C391.225 53.6255 391.117 54.9771 390.909 56.1201H355.946C356.679 63.1945 362.402 68.091 369.577 68.091C375.3 68.091 379.88 64.8627 382.274 62.26L389.974 69.96Z"
			fill="currentColor"
		/>

		<path
			d="M430.142 39.4689C429.208 39.16 427.23 38.9515 425.253 38.9515C419.322 38.9515 414.634 43.2147 412.973 46.2344V77.9689H399.442V27.5057L412.456 27.5057V32.603C415.468 28.8573 420.982 26.4631 427.122 26.4631C429.099 26.4631 430.242 26.6716 431.702 26.8802L430.142 39.4689Z"
			fill="currentColor"
		/>

		<path
			d="M445.141 102.938L459.081 72.8639L436.506 27.498H451.381L466.163 57.7806L479.794 27.498H494.044L459.289 102.938H445.141Z"
			fill="currentColor"
		/>
	</symbol>
</svg>
