<svg xmlns:xlink="http://www.w3.org/1999/xlink">
	<symbol
		id="chevron-left"
		xmlns="http://www.w3.org/2000/svg"
		viewBox="0 0 16 17"
		fill="none"
	>
		<path
			d="M11 14.5L5 8.5L11 2.5"
			stroke="currentColor"
			stroke-width="2"
			stroke-linecap="round"
			stroke-linejoin="round"
		/>
	</symbol>
	<symbol
		id="chevron-right"
		xmlns="http://www.w3.org/2000/svg"
		viewBox="0 0 16 17"
		fill="none"
	>
		<path
			d="M5 14.5L11 8.5L5 2.5"
			stroke="currentColor"
			stroke-width="2"
			stroke-linecap="round"
			stroke-linejoin="round"
		/>
	</symbol>
	<symbol
		id="logo"
		xmlns="http://www.w3.org/2000/svg"
		viewBox="0 0 495 103"
		fill="none"
	>
		<path d="M43.7054 77.9689C41.9368 78.5945 37.8822 79.0116 35.2795 79.0116C27.1624 79.0116 21.231 76.3007 17.7942 71.7286C15.1992 68.2918 14.0485 63.8201 14.0485 56.6376L14.0485 38.9515H2.28882e-05V27.5058L14.0485 27.5058V13.4573H27.5795V27.5058H44.2229V38.9515H27.5795L27.5795 58.1976C27.5795 61.3178 28.0969 63.1945 29.24 64.5461C30.5915 66.1062 32.7772 67.0407 36.1136 67.0407C38.083 67.0407 40.6857 66.7317 41.6279 66.5232L43.7054 77.9689Z" fill="currentColor"/>

		<path d="M66.5972 77.969H53.0739L53.0739 4.08913H66.5972V31.1434C70.3429 28.2318 75.1313 26.4631 80.329 26.4631C87.303 26.4631 93.6515 29.5833 97.8142 34.5802C101.143 38.5345 103.02 43.6318 103.02 52.2663V77.969H89.4887V51.2313C89.4887 46.2345 88.3456 43.6318 86.4689 41.7627C84.7003 39.9864 81.9972 38.9515 78.877 38.9515C73.1542 38.9515 68.4662 42.5891 66.5972 45.1918V77.969Z" fill="currentColor"/>

		<path d="M120.467 0.968979C125.355 0.968979 129.31 4.71472 129.31 9.60348C129.31 14.4922 125.355 18.2457 120.467 18.2457C115.578 18.2457 111.624 14.4922 111.624 9.60348C111.624 4.71472 115.578 0.968979 120.467 0.968979Z" fill="currentColor"/>

		<path d="M142.037 62.5689C145.474 65.6891 150.78 67.5658 155.877 67.5658C159.515 67.5658 162.326 65.7972 162.326 63.2949C162.326 55.703 137.875 58.4061 137.875 42.172C137.875 32.4949 147.243 26.4631 157.229 26.4631C163.786 26.4631 170.961 28.9577 174.297 31.5604L167.949 41.3457C165.346 39.4689 161.909 37.9089 158.271 37.9089C154.526 37.9089 151.406 39.3685 151.406 41.9635C151.406 48.5205 175.857 45.9178 175.857 63.403C175.857 73.0802 166.388 79.0116 155.769 79.0116C148.803 79.0116 141.412 76.6174 135.48 72.2461L142.037 62.5689Z" fill="currentColor"/>

		<path d="M231.618 67.6662C225.687 75.5747 218.195 79.0116 208.727 79.0116C193.118 79.0116 181.672 67.3573 181.672 52.7837C181.672 38.1174 193.427 26.4631 208.827 26.4631C217.57 26.4631 225.378 30.5178 230.058 36.5573L220.481 44.9833C217.778 41.4461 213.724 38.9515 208.827 38.9515C201.027 38.9515 195.203 45.0837 195.203 52.7837C195.203 60.6922 200.926 66.5232 209.144 66.5232C214.658 66.5232 219.029 63.1945 221.215 59.8658L231.618 67.6662Z" fill="currentColor"/>

		<path d="M260.966 66.5232C268.875 66.5232 274.281 60.3833 274.281 52.7914C274.281 45.1918 268.875 38.9515 260.966 38.9515C253.058 38.9515 247.651 45.1918 247.651 52.7914C247.651 60.3833 253.058 66.5232 260.966 66.5232ZM260.966 26.4631C276.258 26.4631 287.812 38.2178 287.812 52.7914C287.812 67.3573 276.258 79.0116 260.966 79.0116C245.667 79.0116 234.12 67.3573 234.12 52.7914C234.12 38.2178 245.667 26.4631 260.966 26.4631Z" fill="currentColor"/>

		<path d="M315.167 58.3058L329.007 27.5058H343.055L319.847 77.969H310.487L287.279 27.5058H301.327L315.167 58.3058Z" fill="currentColor"/>

		<path d="M377.385 46.2344C376.968 41.7627 372.906 37.3914 367.392 37.3914C361.777 37.3914 357.197 41.6546 356.571 46.2344H377.385ZM389.974 69.96C385.085 75.7833 377.069 79.0116 369.268 79.0116C354.177 79.0116 342.84 68.6085 342.84 52.7914C342.84 38.743 352.409 26.4631 367.392 26.4631C381.34 26.4631 391.225 38.2255 391.225 52.274C391.225 53.6255 391.117 54.9771 390.909 56.1201H355.946C356.679 63.1945 362.402 68.091 369.577 68.091C375.3 68.091 379.88 64.8627 382.274 62.26L389.974 69.96Z" fill="currentColor"/>

		<path d="M430.142 39.4689C429.208 39.16 427.23 38.9515 425.253 38.9515C419.322 38.9515 414.634 43.2147 412.973 46.2344V77.9689H399.442V27.5057L412.456 27.5057V32.603C415.468 28.8573 420.982 26.4631 427.122 26.4631C429.099 26.4631 430.242 26.6716 431.702 26.8802L430.142 39.4689Z" fill="currentColor"/>

		<path d="M445.141 102.938L459.081 72.8639L436.506 27.498H451.381L466.163 57.7806L479.794 27.498H494.044L459.289 102.938H445.141Z" fill="currentColor"/>
	</symbol>
</svg>
