<svg
	viewBox="0 0 1226 1168"
	fill="none"
	xmlns="http://www.w3.org/2000/svg"
>
	<path
		d="M532.802 1167.13C536.268 1160.42 533.886 1154.06 531.084 1148.06C528.238 1141.95 528.003 1135.81 529.271 1129.51C532.131 1115.27 536.607 1101.67 543.073 1088.51C552.179 1069.97 565.037 1054.29 578.419 1038.95C582.496 1034.28 587.643 1029.99 593.158 1027.23C603.834 1021.92 613.271 1014.49 623.778 1009.29C636.282 1003.1 648.381 995.179 663.784 995.745C669.933 995.973 676.251 991.17 682.526 988.75C686.964 987.036 691.344 984.66 695.952 984.05C701.865 983.263 708.589 989.25 711.443 995.466C716.346 1006.15 716.53 1016.21 710.3 1026.65C706.879 1032.38 705.117 1039.09 702.647 1045.37C701.017 1049.51 699.941 1053.04 694.617 1047.94C690.938 1044.41 685.674 1042.73 680.609 1046.95C670.073 1055.72 657.826 1060.91 644.193 1061.06C635.729 1061.16 630.133 1065.46 624.876 1070.55C620.128 1075.14 616.611 1077.95 611.907 1070.57C609.909 1067.43 607.594 1067.43 607.314 1072.33C606.82 1080.89 598.459 1086.42 593.489 1086.45C584.679 1086.53 583.499 1093.09 579.355 1096.94C576.089 1099.98 573.885 1104.22 571.466 1108.08C566.497 1116 559.404 1121.98 556.632 1132.04C553.24 1144.32 545.749 1155.48 540.028 1167.13C537.617 1167.13 535.213 1167.13 532.802 1167.13ZM646.686 1033.7C645.292 1032.62 644.179 1031.34 643.803 1031.53C642.586 1032.14 641.642 1033.3 640.588 1034.24C641.252 1034.89 642.114 1036.22 642.549 1036.08C643.84 1035.7 644.953 1034.75 646.686 1033.7ZM584.222 1047.1C582.917 1046.15 582.268 1045.37 581.486 1045.2C580.955 1045.08 579.658 1045.97 579.695 1046.11C579.982 1047.04 580.336 1048.26 581.059 1048.63C581.553 1048.87 582.673 1047.9 584.222 1047.1Z"
		fill="#ffffff25"
	/>

	<path
		d="M889.111 1073.28C886.331 1081.58 891.145 1088.72 896.653 1091.72C902.382 1094.85 903.938 1098.5 905.648 1103.65C908.435 1112.05 917.062 1117.86 916.42 1128.01C916.339 1129.25 920.844 1130.33 921.625 1132.17C923.048 1135.49 924.56 1139.7 923.631 1142.84C922.621 1146.26 919.259 1149.81 914.289 1147.46C911.547 1146.15 909.084 1145.17 907.565 1149.01C905.847 1153.36 906.828 1156.95 910.868 1159.23C914.547 1161.31 918.507 1162.9 922.341 1164.71C923.174 1165.52 924.007 1166.33 924.847 1167.14C908.811 1167.14 892.782 1167.14 876.746 1167.14C876.665 1166.37 876.879 1165.22 876.451 1164.87C866.608 1157 863.003 1144.89 856.596 1134.8C851.693 1127.07 848.987 1117.25 847.918 1108.04C847.21 1101.94 839.852 1096.07 846.097 1089.31C846.126 1089.28 845.249 1088.04 844.917 1088.1C836.401 1089.55 837.249 1082.09 836.327 1077.97C832.479 1060.76 829.456 1043.37 826.138 1026.05C823.609 1012.88 822.503 999.776 823.926 986.256C825.777 968.639 834.809 962.726 850.631 960.173C859.53 958.739 868.186 957.643 877.011 959.754C880.086 960.489 883.242 961.188 886.066 962.527C886.795 962.873 886.965 966.771 886.464 966.999C875.146 972.148 878.825 981.571 880.388 989.713C882.077 998.518 882.711 998.364 873.797 998.106C872.919 998.084 872.02 998.702 871.135 999.026C871.637 1000.11 871.843 1001.66 872.684 1002.17C875.323 1003.8 878.493 1004.68 880.86 1006.59C881.878 1007.42 881.406 1010.07 881.605 1011.88C879.865 1011.7 877.233 1012.18 876.525 1011.23C872.484 1005.82 871.275 1005.5 869.1 1012.82C867.906 1016.86 864.19 1013.5 862.649 1010.49C861.742 1008.71 860.725 1006.98 859.759 1005.23C858.675 1007.32 856.397 1009.59 856.714 1011.43C858.247 1020.56 857.886 1030.15 863.453 1038.39C865.827 1041.9 866.999 1042.63 870.575 1039.52C876.031 1034.77 877.815 1035.41 878.781 1041.71C880.573 1053.38 883.478 1064.29 894.168 1071.35C894.685 1071.68 894.323 1073.36 894.368 1074.41C892.524 1074.14 890.674 1073.87 888.83 1073.6C888.263 1072.62 887.916 1071.22 887.068 1070.77C886.043 1070.22 884.598 1070.49 883.33 1070.4C884.119 1071.36 884.738 1072.65 885.756 1073.19C886.633 1073.65 887.968 1073.28 889.111 1073.28ZM883.846 1130.92C885.616 1132.94 887.245 1135.1 889.206 1136.9C890.445 1138.03 892.178 1138.63 893.689 1139.46C894.463 1137.41 895.916 1135.31 895.798 1133.3C895.702 1131.67 893.026 1130.26 892.731 1128.54C891.529 1121.48 879.533 1117.97 886.007 1108.37C886.139 1108.17 884.665 1106.43 883.706 1106.11C882.866 1105.83 881 1106.29 880.786 1106.87C879.828 1109.42 879.599 1112.25 878.552 1114.75C876.908 1118.67 874.814 1122.41 872.912 1126.22C876.672 1127.9 880.425 1129.57 884.185 1131.25C881.524 1133.17 878.855 1135.08 876.193 1137C877.048 1137.62 877.911 1138.78 878.766 1138.78C884.311 1138.75 882.925 1134.06 883.846 1130.92ZM874.711 1105.09C874.269 1104.6 873.347 1103.59 872.426 1102.59C870.037 1105.84 867.581 1109.07 865.355 1112.43C865.163 1112.72 866.321 1114.56 867.028 1114.69C870.287 1115.28 874.829 1110.01 874.711 1105.09ZM875.412 977.533C872.617 975.907 871.061 974.289 869.594 974.362C868.216 974.428 866.925 976.289 865.591 977.356C866.962 978.459 868.245 980.284 869.72 980.46C871.106 980.615 872.691 979.018 875.412 977.533ZM908.111 1141.68C906.761 1139.78 906.157 1138.92 905.545 1138.07C904.8 1138.64 903.363 1139.32 903.436 1139.74C903.657 1140.98 904.476 1142.11 905.058 1143.29C906.032 1142.78 907.012 1142.26 908.111 1141.68ZM857.879 1076.67C857.267 1078.36 856.5 1079.39 856.721 1080.15C856.957 1080.97 858.107 1081.53 858.859 1082.21C859.25 1081.31 860.002 1080.37 859.928 1079.51C859.855 1078.72 858.896 1078.01 857.879 1076.67Z"
		fill="#ffffff25"
	/>

	<path
		d="M277.864 1167.13C279.221 1164.76 283.873 1163.76 280.637 1159.44C279.309 1157.67 278.897 1155.12 278.417 1152.85C276.087 1141.94 277.658 1134.02 289.182 1127.51C309.686 1115.93 328.959 1102.13 348.49 1088.89C358.473 1082.12 365.669 1073.14 371.111 1061.95C379.295 1045.12 379.007 1028.31 376.78 1010.46C375.424 999.585 372.298 988.676 377.363 976.9C380.607 969.353 377.842 959.291 378.049 950.361C378.093 948.294 379.265 946.249 379.914 944.189C382.074 945.513 385.355 946.352 386.196 948.257C389.506 955.804 393.215 963.483 394.623 971.486C397.248 986.433 400.337 1001.36 398.789 1016.89C397.823 1026.63 399.253 1036.61 399.357 1046.48C399.393 1049.96 399.917 1054.44 398.074 1056.77C391.401 1065.21 392.78 1075.86 389.875 1085.23C388.245 1090.48 386.233 1095.03 383.586 1099.65C376.227 1112.46 370.115 1126.1 359.601 1136.84C355.001 1141.54 351.189 1147.91 342.961 1146.69C342.223 1146.58 340.867 1146.63 340.756 1146.95C336.657 1158.63 324.292 1157.95 316.108 1163.48C314.501 1164.56 313.063 1165.9 311.552 1167.12C300.308 1167.13 289.086 1167.13 277.864 1167.13Z"
		fill="#ffffff25"
	/>

	<path
		d="M924.837 1167.13C924.004 1166.32 923.171 1165.51 922.33 1164.7C921.593 1162.5 919.897 1160.08 920.325 1158.13C921.129 1154.47 923.156 1151.09 924.675 1147.59C927.477 1149.51 930.898 1150.95 932.94 1153.48C936.317 1157.65 938.802 1162.54 941.662 1167.12C936.066 1167.13 930.448 1167.13 924.837 1167.13Z"
		fill="#ffffff25"
	/>

	<path
		d="M0.139789 305.719C0.139789 304.918 -0.206741 303.8 0.1914 303.373C9.23069 293.664 5.29351 280.011 10.9928 268.868C16.3309 258.43 22.0966 248.088 28.0539 238.158C31.5856 232.281 40.4553 229.096 47.4965 225.984C52.348 223.836 58.1652 223.748 63.5844 223.005C69.0773 222.255 74.6586 221.107 80.122 221.446C88.4019 221.953 90.0387 225.241 86.4702 232.347C82.6067 240.041 77.888 247.382 74.7913 255.355C70.5224 266.337 65.1696 277.658 64.5797 289.059C64.1521 297.422 58.9542 305.263 62.4637 314.311C65.5899 322.365 66.3566 331.31 68.5243 339.761C69.8883 345.072 72.0265 350.177 73.6117 355.444C74.2679 357.621 74.1573 360.019 74.7619 362.218C75.3959 364.528 75.8457 367.389 77.4456 368.831C83.2629 374.075 89.4636 378.268 91.8451 386.911C93.2312 391.95 100.324 395.179 102.86 400.217C105.736 405.925 112.843 409.794 111.229 417.709C111.066 418.489 112.29 420.048 113.227 420.475C123.822 425.33 128.563 435.583 135.405 443.925C136.739 445.558 139.047 446.896 141.119 447.33C147.659 448.698 146.28 452.023 143.633 455.841C142.756 457.106 141.723 458.268 140.765 459.482C142.903 460.592 144.142 463.983 147.718 461.357C149.096 460.35 152.252 460.541 153.837 461.475C154.796 462.034 154.552 465.116 154.316 466.992C154.198 467.926 152.849 469.478 152.119 469.449C139.025 468.794 131.372 480.21 120.179 483.667C119.818 483.777 119.464 484.359 119.199 484.307C116.205 483.66 113.227 482.932 110.241 482.218C109.467 486.514 106.576 488.419 102.573 487.83C99.5793 487.389 95.8044 486.683 93.9906 484.66C82.7468 472.126 71.938 459.217 61.0628 446.359C59.5292 444.55 57.7818 442.52 57.251 440.32C53.3138 424.138 40.094 413.009 34.2251 397.9C33.5837 396.245 31.91 394.958 30.6124 393.597C29.5212 392.45 27.1249 391.17 27.3019 390.42C29.2926 382.019 21.9638 378.298 18.9262 372.406C15.7042 366.168 14.5171 358.923 11.8481 352.362C6.34048 338.842 2.62449 324.918 0.832851 310.449C0.641153 308.882 0.375725 307.308 0.139789 305.719ZM85.9246 449.375C83.3735 450.986 81.169 452.384 78.9571 453.781C81.0658 455.23 83.3072 457.944 85.2389 457.746C87.0158 457.562 88.4609 454.222 90.0534 452.273C89.0138 451.538 87.9669 450.809 85.9246 449.375ZM79.628 407.117C80.557 406.609 81.4787 406.102 82.4076 405.594C83.5062 402.843 84.708 400.122 85.5559 397.29C85.637 397.01 82.7321 395.451 82.651 395.561C80.9625 397.819 79.1267 400.092 78.1239 402.674C77.6963 403.792 79.0751 405.609 79.628 407.117ZM119.088 452.722C118.491 453.48 117.687 454.303 117.776 454.414C118.432 455.223 119.265 455.885 120.047 456.591C120.445 456.106 121.271 455.355 121.16 455.179C120.615 454.296 119.826 453.56 119.088 452.722ZM21.4404 298.71C20.5851 299.43 19.6561 300.004 19.0663 300.828C18.8746 301.093 19.575 301.99 19.8625 302.601C20.7399 301.99 21.691 301.453 22.4283 300.696C22.5832 300.548 21.8901 299.577 21.4404 298.71Z"
		fill="#ffffff25"
	/>

	<path
		d="M835.802 317.069C828.724 318.673 821.233 319.327 814.678 322.137C808.109 324.954 802.542 322.91 800.242 318.386C795.236 308.529 784.958 305.124 778.234 297.658C774.304 293.288 770.625 288.691 766.982 284.072C766.319 283.233 766.142 281.792 766.208 280.651C766.525 274.936 766.083 274.318 761.401 272.752C756.933 271.251 752.487 270.052 756.063 263.233C757.383 260.718 754.235 256.098 755.23 253.141C758.481 243.454 756.306 233.156 759.359 223.557C759.838 222.056 760.465 220.343 761.585 219.372C763.289 217.893 765.478 216.974 767.462 215.819C765.589 214.789 763.554 213.95 761.925 212.626C761.283 212.104 761.18 210.383 761.46 209.383C762.662 205.175 763.045 200.166 765.655 197.047C772.785 188.507 772.711 177.878 774.805 168.132C778.035 153.105 786.447 141.424 795.907 130.287C800.802 124.528 805.366 119.43 807.976 111.729C811.729 100.659 817.392 95.429 829.439 98.305C835.308 99.71 843.418 102.446 849.154 95.223C849.818 94.3918 854.559 95.3481 855.989 96.8339C859.757 100.747 862.573 100.924 867.344 98.0255C869.673 96.6132 874.252 98.8935 877.813 99.4966C877.091 102.395 877.172 105.903 875.506 108.073C867.078 119.026 857.641 129.236 849.626 140.475C841.442 151.957 834.327 164.05 830.692 178.143C827.728 189.64 822.855 200.696 818.247 211.7C812.724 224.888 809.761 237.805 816.964 251.427C819.559 256.326 817.111 262.821 820.717 267.573C824.204 272.178 829.417 275.907 831.526 280.99C833.959 286.852 843.595 292.516 834.512 300.446C834.467 300.482 836.517 302.895 837.586 304.197C840.181 301.88 842.592 298.114 846.227 302.843C848.107 305.293 850.754 307.713 851.307 310.486C852.17 314.833 845.232 318.636 837.372 318.68C836.974 318.68 836.576 318.614 836.178 318.577C836.06 318.099 835.927 317.584 835.802 317.069ZM793.385 191.832C793.348 191.707 793.157 191.074 792.972 190.434C792.301 190.78 791.527 191.008 790.981 191.494C789.529 192.781 787.804 193.973 786.889 195.598C786.123 196.966 786.344 198.893 786.13 200.571C787.501 199.857 789.315 199.467 790.156 198.357C791.505 196.554 792.228 194.274 793.385 191.832ZM823.821 137.268C822.973 136.194 822.361 135.422 821.749 134.642C821.041 135.355 819.92 135.981 819.758 136.804C819.618 137.511 820.562 138.437 821.026 139.269C821.86 138.673 822.7 138.07 823.821 137.268ZM778.624 213.745C777.976 215.172 777.083 216.201 777.253 217.003C777.474 218.033 778.551 218.879 779.258 219.806C779.988 218.592 780.976 217.437 781.301 216.12C781.419 215.664 779.863 214.804 778.624 213.745ZM836.842 110.206C835.507 109.007 834.46 108.066 833.42 107.124C833.052 107.683 832.248 108.397 832.381 108.772C832.897 110.17 833.723 111.457 834.438 112.788C835.087 112.09 835.736 111.391 836.842 110.206ZM769.644 231.987C768.833 231.339 767.978 230.655 767.122 229.971C766.864 230.662 766.216 231.523 766.429 232.009C766.805 232.869 767.698 233.502 768.376 234.23C768.745 233.59 769.106 232.943 769.644 231.987ZM857.405 109.213C857.095 108.287 856.859 107.176 856.712 107.191C855.731 107.279 854.773 107.595 853.807 107.845C854.146 108.735 854.478 109.633 854.817 110.523C855.694 110.074 856.572 109.633 857.405 109.213Z"
		fill="#ffffff25"
	/>

	<path
		d="M628.378 413.906C628.378 405.594 628.194 397.283 628.518 388.985C628.592 387.095 630.332 385.19 631.549 383.454C632.168 382.579 634.188 381.615 634.114 381.475C628.983 371.987 638.752 364.44 637.44 355.304C636.629 349.655 639.755 344.859 645.786 343.947C654.346 342.652 663.024 341.939 671.68 341.475C679.598 341.049 687.546 341.306 695.48 341.218C701.902 341.152 705.33 343.586 703.855 348.169C699.491 361.674 694.514 374.98 689.795 388.368C688.94 390.788 689.235 394.267 684.936 393.274C684.7 394.848 683.926 396.576 684.324 397.981C686.912 407.213 689.714 416.385 692.523 425.558C693.179 427.713 694.33 429.736 694.868 431.913C696.556 438.695 699.034 445.469 699.41 452.34C699.948 462.115 705.168 469.456 709.739 477.29C712.843 482.615 716.758 487.301 716.965 494.245C717.053 497.261 715.955 505.889 725.001 502.042C725.761 501.718 727.714 504.653 729.329 505.771C735.014 509.736 739.932 515.716 748.469 511.567C749.937 510.854 755.599 514.384 755.474 515.539C754.936 520.482 752.488 525.271 756.219 530.045C756.314 530.17 754.633 532.369 754.007 532.259C749.413 531.479 745.373 531.92 742.46 536.047C731.865 532.479 721.565 541.711 710.432 536.032C703.199 532.34 693.644 533.024 686.625 529.088C666.976 518.077 652.997 502.123 643.345 481.041C633.414 459.372 632.035 436.422 628.378 413.906ZM666.29 458.018C669.984 455.797 672.977 454.002 675.963 452.207C675.219 451.501 674.246 450.052 673.774 450.199C670.279 451.295 666.887 452.707 663.459 454.017C664.167 455.01 664.875 456.01 666.29 458.018ZM675.469 409.669C677.534 410.368 678.566 411.038 679.525 410.942C680.328 410.861 681.574 409.949 681.648 409.302C681.729 408.574 680.815 407.213 680.137 407.066C679.429 406.911 678.492 407.897 675.469 409.669Z"
		fill="#ffffff25"
	/>

	<path
		d="M185.939 631.096C188.799 615.37 191.977 599.776 201.746 585.447C210.07 573.237 218.881 561.792 230.287 552.693C247.282 539.129 264.815 526.109 285.695 518.893C289.072 517.731 293.511 519.886 297.094 519.011C301.171 518.018 305.418 513.112 308.544 513.921C313.182 515.127 315.77 513.288 319.22 511.78C326.932 508.412 329.491 509.714 335.5 516.032C341.686 522.534 346.087 529.544 348.727 538.261C350.74 544.903 355.016 550.89 358.526 557.04C361.902 562.961 360.443 567.639 354.183 568.588C342.423 570.376 330.604 572.685 318.8 572.729C315.357 572.744 308.574 580.541 306.517 570.559C305.801 570.787 304.894 570.817 304.408 571.28C292.169 583.027 279.966 594.818 267.779 606.632C266.931 607.455 266.415 609.059 265.486 609.302C251.462 613.002 247.577 626.359 239.725 635.936C237.601 638.526 234.777 640.593 232.89 643.321C230.412 646.911 222.206 648.272 228.061 655.635C229.189 657.055 227.404 660.953 226.66 663.623C224.861 670.125 222.111 676.128 230.177 681.387C233.966 683.858 230.781 689.618 225.458 690.295C224.359 690.434 222.767 689.14 222.081 689.574C219.486 691.199 215.268 695.127 215.04 694.892C210.815 690.574 206.73 686.014 203.317 681.027C199.387 675.289 195.391 669.397 192.81 663.013C190.149 656.429 189.035 649.206 187.487 642.211C186.72 638.783 186.492 635.238 185.939 631.096ZM243.942 576.819C243.013 579.085 242.003 580.372 242.313 580.975C243.706 583.675 245.417 586.227 247.193 588.706C247.474 589.096 248.764 589.022 249.45 588.779C250.091 588.559 251.101 587.492 251.027 587.374C249.184 584.454 247.216 581.615 243.942 576.819ZM290.466 577.488C291.999 575.819 293.26 574.642 294.196 573.252C294.344 573.038 292.618 571.111 292.434 571.207C290.901 572.038 289.485 573.112 288.202 574.289C288.106 574.377 289.323 575.885 290.466 577.488Z"
		fill="#ffffff25"
	/>

	<path
		d="M617.768 184.587C618.461 188.434 618.425 192.656 620.12 196.003C621.204 198.143 624.787 199.151 627.42 200.284C628.091 200.571 629.388 199.416 630.406 198.915C629.808 198.114 629.233 197.29 628.599 196.518C627.383 195.024 625.628 193.737 625.046 192.038C624.485 190.412 625.127 188.375 625.237 186.521C626.564 186.963 628.172 187.073 629.174 187.904C633.768 191.692 634.166 187.632 635.655 184.844C636.99 182.343 637.786 177.724 642.077 180.21C645.012 181.909 650.21 182.711 648.352 188.647C646.361 195.002 645.225 201.637 643.095 207.934C640.956 214.23 638.759 220.703 635.265 226.271C631.984 231.508 627.007 235.694 622.701 240.276C620.983 242.1 619.096 243.763 617.238 245.455C614.613 247.853 612.312 251.486 609.245 252.347C598.842 255.267 590.245 261.335 580.933 266.256C575.293 269.243 567.905 268.949 561.306 270.125C561.38 269 561.844 267.691 561.431 266.793C560.945 265.734 559.691 265.013 558.777 264.153C558.829 265.374 558.549 266.757 559.035 267.772C559.463 268.669 560.746 269.162 561.653 269.839C550.659 275.583 539.666 270.67 528.681 269.75C527.766 269.677 526.115 268.309 526.218 267.956C526.624 266.551 527.28 264.741 528.415 264.116C532.846 261.666 537.484 259.57 542.077 257.415C557.605 250.125 564.867 233.914 578.065 223.954C581.103 221.666 581.051 215.083 582.032 210.398C582.555 207.889 581.228 204.491 582.481 202.718C587.923 195.01 587.915 186.256 588.741 177.518C589.427 170.221 591.108 163.02 591.771 155.716C592.855 143.756 587.723 133.002 584.007 122.123C581.906 115.966 577.659 110.405 574.6 104.874C571.429 99.1509 568.362 92.6779 564.801 86.9332C562.021 82.4536 557.811 78.4594 553.402 75.4951C549.679 72.9942 549.369 71.4863 551.817 68.088C557.052 60.8206 565.251 59.0994 572.852 58.7831C585.113 58.2756 597.493 59.5407 609.754 60.7765C612.828 61.0854 616.522 63.4981 618.373 66.0578C622.273 71.4716 626.078 77.3046 628.179 83.5496C630.524 90.5301 631.762 97.5326 640.352 99.4525C640.669 99.526 641.133 100.011 641.133 100.298C641.074 112.95 650.681 122.976 650.733 135.583C650.74 136.775 650.328 138.136 650.77 139.136C657.509 154.502 648.086 164.072 638.59 173.752C636.687 175.686 635.626 178.415 633.864 180.526C632.964 181.608 630.31 182.858 630.244 182.77C624.419 174.502 622.148 186.668 617.584 184.925C616.508 184.528 615.439 183.822 614.362 183.8C613.131 183.778 611.885 184.366 610.646 184.69C611.767 185.477 612.932 186.955 613.993 186.889C615.284 186.786 616.508 185.411 617.768 184.587ZM616.036 122.564C615.21 124.131 614.119 125.3 614.377 125.881C615.04 127.367 616.301 128.588 617.319 129.92C618.189 129.007 619.966 127.632 619.774 127.257C618.97 125.675 617.577 124.381 616.036 122.564ZM608.478 242.843C609.842 241.085 611.184 240.1 611.066 239.349C610.845 237.996 609.747 236.782 609.017 235.51C608.434 236.29 607.402 237.055 607.372 237.849C607.336 239.202 607.933 240.578 608.478 242.843ZM635.235 131.67C634.564 133.281 633.982 134.112 633.923 134.988C633.878 135.642 634.498 136.348 634.822 137.025C635.611 136.415 636.96 135.878 637.041 135.186C637.137 134.348 636.179 133.377 635.235 131.67Z"
		fill="#ffffff25"
	/>

	<path
		d="M355.519 193.208C346.509 190.699 336.194 190.464 329.839 185.344C322.731 179.614 311.443 180.012 307.58 169.942C307.122 168.743 305.169 167.963 303.76 167.308C293.637 162.608 286.242 155.561 283.035 144.528C280.366 135.341 278.183 125.859 268.923 120.269C267.699 119.526 267.596 115.966 267.898 113.848C268.908 106.713 271.939 99.2098 262.214 95.2451C261.661 95.0171 261.705 91.6702 262.45 90.3021C263.644 88.1101 265.657 86.3595 267.323 84.4249C265.17 84.2484 262.921 84.4102 260.894 83.8291C257.384 82.814 254.553 71.2877 256.013 66.992C259.64 56.3411 263.15 45.646 266.247 34.8332C268.717 26.205 270.457 17.3709 272.676 8.66179C272.919 7.6982 274.003 6.51394 274.939 6.23442C283.846 3.57903 291.617 -1.90828 302.315 0.673555C312.121 3.04207 322.805 1.85781 333.105 2.12997C342.446 2.38006 344.253 5.49886 340.345 13.6195C332.869 29.184 325.71 44.903 318.492 60.5853C318.034 61.5783 317.931 62.9023 318.116 63.9909C320.158 76.3484 320.283 89.5003 324.906 100.828C330.915 115.561 339.409 129.662 348.994 142.424C354.641 149.949 364.514 154.289 372.388 160.188C374.482 161.755 376.812 163.498 377.97 165.712C380.255 170.089 383.05 172.016 388.284 172.067C393.372 172.119 394.537 175.319 390.88 178.842C387.599 181.998 383.403 184.359 379.297 186.455C376.171 188.044 372.573 188.743 369.144 189.692C364.765 190.905 360.355 191.972 355.519 193.208ZM300.546 135.951C300.317 135.341 300.236 134.421 299.808 134.215C299.403 134.024 298.297 134.429 298.12 134.841C297.928 135.274 298.474 136.025 298.703 136.635C299.314 136.407 299.926 136.187 300.546 135.951Z"
		fill="#ffffff25"
	/>

	<path
		d="M992.48 293.274C1003.52 294.178 1011.61 294.451 1019.56 295.62C1025.76 296.532 1026.09 298.143 1022.27 303.027C1011.14 317.224 999.853 331.295 988.956 345.668C983.404 352.987 978.693 360.931 973.369 368.426C965.215 379.901 967.943 393.664 965.399 406.278C963.01 418.128 962.759 430.405 961.499 442.49C961.255 444.851 961.558 448.235 960.157 449.353C951.53 456.267 958.313 463.586 959.294 470.596C959.906 474.951 964.743 478.717 960.953 483.667C966.335 491.001 962.236 491.92 955.556 492.678C948.095 493.524 940.677 495.355 933.444 497.459C924.575 500.041 919.878 499.254 914.57 491.861C911.178 487.139 908.782 481.703 905.803 476.665C903.798 473.266 901.453 470.059 899.47 466.646C898.607 465.168 897.457 462.167 897.848 461.894C905.582 456.554 900.177 451.729 898.179 446.087C896.653 441.799 891.75 435.296 900.716 432.273C900.996 432.178 901.173 431.78 901.401 431.523C892.259 423.726 904.564 414.531 899.794 406.411C899.455 405.83 899.411 404.491 899.794 404.167C907.499 397.599 903.193 388.331 905.309 380.541C906.216 377.216 907.831 374.024 909.526 371.001C912.181 366.278 917.128 362.851 916.531 356.312C916.361 354.495 918.698 352.214 920.284 350.508C926.366 343.961 932.906 337.812 938.716 331.038C944.563 324.226 949.223 316.348 955.409 309.905C959.021 306.139 964.389 303.733 969.366 301.659C977.771 298.173 986.486 295.414 992.48 293.274ZM929.972 430.993C929.588 430.898 929.175 430.655 928.836 430.729C926.551 431.207 924.287 431.758 922.016 432.281C923.432 434.458 924.847 436.643 926.263 438.82C927.118 436.826 927.981 434.833 928.822 432.832C929.124 432.111 929.36 431.369 929.625 430.64C930.938 429.552 932.243 428.47 933.555 427.382C933.267 427.124 932.98 426.867 932.685 426.609C931.778 428.066 930.871 429.53 929.972 430.993ZM932.803 444.315C932.479 443.13 932.272 441.762 932.08 441.762C931.048 441.769 929.81 441.843 929.035 442.417C926.868 444.02 924.656 445.683 922.916 447.705C921.611 449.221 920.18 451.435 920.365 453.171C920.527 454.679 922.864 457.062 924.258 457.077C926.197 457.091 929.057 455.723 929.905 454.105C931.513 451.03 931.97 447.352 932.803 444.315ZM950.52 439.394C949.429 437.216 948.987 435.635 947.977 434.642C947.49 434.164 945.285 434.414 944.932 434.995C942.277 439.327 939.719 443.741 937.581 448.338C937.16 449.235 938.392 451.516 939.476 452.259C940.169 452.737 942.58 451.964 943.221 451.052C945.883 447.279 948.161 443.241 950.52 439.394ZM929.043 401.755C926.831 402.409 925.312 402.395 924.641 403.138C918.728 409.699 933.732 407.683 929.116 413.84C930.009 414.083 930.901 414.318 931.793 414.561C931.852 411.302 932.206 408.007 931.815 404.8C931.653 403.564 929.795 402.534 929.043 401.755ZM952.931 384.55C954.332 382.284 955.962 380.732 955.652 379.908C955.143 378.548 953.447 377.533 952.061 376.679C951.855 376.554 949.849 378.305 949.997 378.827C950.461 380.49 951.538 381.983 952.931 384.55ZM918.595 485.712C918.971 484.609 919.377 484.006 919.325 483.432C919.237 482.343 918.89 481.284 918.647 480.21C918.204 480.482 917.342 480.835 917.379 481.019C917.644 482.446 918.079 483.844 918.595 485.712ZM924.051 468.529C922.186 466.404 921.323 465.418 920.461 464.432C919.524 465.33 918.588 466.234 917.651 467.132C918.698 468.117 919.613 469.368 920.844 469.964C921.404 470.236 922.599 469.221 924.051 468.529ZM954.251 403.469C953.3 402.093 952.681 401.196 952.061 400.306C951.25 400.894 949.776 401.49 949.776 402.078C949.776 403.027 950.572 404.241 951.398 404.8C951.796 405.065 953.034 404.064 954.251 403.469ZM950.336 425.513C949.871 424.668 949.636 423.873 949.105 423.424C948.81 423.174 948.036 423.483 947.475 423.542C947.814 424.204 948.036 424.999 948.552 425.469C948.869 425.749 949.65 425.513 950.336 425.513ZM923.225 420.188C921.743 419.489 920.674 418.548 919.996 418.776C919.141 419.055 918.61 420.298 917.939 421.122C918.765 421.696 919.679 422.799 920.409 422.696C921.257 422.571 921.957 421.387 923.225 420.188Z"
		fill="#ffffff25"
	/>

	<path
		d="M1039.32 49.2355C1035.9 75.4657 1041.65 97.6283 1057.22 115.032C1064.68 123.373 1066.95 135.973 1078.48 140.806C1082.01 142.284 1085.13 144.741 1088.58 146.44C1094.08 149.147 1101.29 150.457 1097.73 159.548C1097.61 159.842 1100.84 162.218 1101.38 161.872C1106.23 158.746 1108.22 161.372 1112.1 164.579C1119.81 170.942 1129.13 175.341 1137.78 180.578C1138.43 180.975 1139.43 182.086 1139.45 182.071C1147.96 173.141 1153.02 186.242 1160.32 185.425C1161.77 185.263 1163.61 187.169 1165 188.419C1166.07 189.375 1166.71 190.795 1167.53 192.009C1165.85 193.009 1164.27 194.473 1162.45 194.87C1161.13 195.164 1159.05 194.495 1158.07 193.502C1154.67 190.03 1152.6 192.832 1150.18 194.723C1142.07 201.085 1142.08 201.027 1131.24 195.826C1130.46 195.458 1129.03 196.753 1127.87 196.826C1120.7 197.297 1113.95 205.227 1106.07 197.106C1103.8 194.76 1097.35 197.305 1095.88 191.501C1095.86 191.405 1093.64 191.398 1093.14 191.957C1088.22 197.444 1086.99 196.297 1088.11 189.471C1088.23 188.765 1085.64 186.668 1084.66 186.874C1070.62 189.809 1060.18 183.836 1051.14 173.995C1050.12 172.884 1048.71 171.383 1047.44 171.354C1037.72 171.119 1034.01 162.115 1027.11 157.82C1026.14 157.216 1025.73 155.708 1024.75 155.164C1018.08 151.464 1027 140.276 1019.07 139.776C1011.17 139.276 1008.46 133.59 1003.27 130.559C1002.27 129.971 1000.53 128.831 1000.65 128.404C1003.4 119.283 995.484 114.605 992.425 107.926C991.577 106.08 992.159 103.579 992.085 101.38C993.781 101.909 995.447 102.601 997.187 102.924C998.618 103.189 1000.13 103.027 1001.6 103.057C1001.47 101.328 1001.63 99.5187 1001.13 97.9004C1000.68 96.4367 999.657 94.1343 998.655 94.0093C987.16 92.5529 990.773 83.4025 989.711 76.7824C988.473 69.0369 987.293 61.2546 986.659 53.4356C985.332 36.9663 992.248 30.3094 1008.15 31.8909C1011.5 32.2219 1014.96 31.5525 1018.36 31.2583C1021.14 31.0156 1024.08 29.8901 1026.61 30.508C1030.21 31.3907 1033.37 34.0167 1036.96 34.995C1043.56 36.7971 1037.92 40.7324 1038.73 43.5202C1039.5 46.102 1039.3 48.9486 1039.32 49.2355Z"
		fill="#ffffff25"
	/>

	<path
		d="M146.471 867.514C138.501 855.466 149.523 850.765 154.765 843.733C159.189 837.797 163.06 831.42 167.838 825.793C175.83 816.37 184.456 816.473 192.987 825.359C196.917 829.449 199.32 834.965 206.222 836.142C209.053 836.628 212.437 840.659 213.366 843.733C214.56 847.713 217.635 851.935 211.648 856.635C200.412 865.455 190.414 875.73 183.24 888.581C176.184 901.225 171.613 914.083 173.685 928.757C173.943 930.574 173.589 932.803 172.711 934.406C166.724 945.344 169.312 955.561 173.913 966.271C175.97 971.067 181.006 978.202 171.052 981.681C170.92 981.725 171.745 986.418 172.387 986.492C177.585 987.051 177.99 989.677 178.484 994.495C179.443 1003.82 182.23 1012.96 184.302 1022.17C184.648 1023.7 185.135 1026.47 185.703 1026.51C197.013 1027.29 193.046 1038.94 198.222 1044.17C199.844 1045.81 198.495 1050.37 198.509 1053.59C195.848 1052.07 191.107 1050.78 190.893 1048.98C190.141 1042.48 186.396 1042.56 181.824 1043.34C175.594 1044.39 171.598 1041.09 170.263 1035.83C168.87 1030.35 163.915 1029.27 160.922 1025.91C158.069 1022.71 148.838 1025.48 152.119 1016.53C154.043 1011.27 142.792 1009.9 148.13 1003.51C146.921 1002.88 145.475 1001.46 144.539 1001.74C140.447 1002.97 138.139 1000 140.764 998.187C145.807 994.686 144.502 993.686 140.521 991.118C130.051 984.373 129.159 972.906 126.792 962.225C126.129 959.246 126.564 955.701 125.067 953.296C120.238 945.506 123.585 936.893 121.83 928.831C120.297 921.791 133.487 917.694 128.835 912.965C122.715 906.756 125.458 900.342 123.585 894.274C123.261 893.222 123.143 891.508 123.747 890.876C126.298 888.176 129.166 885.771 131.909 883.263C127.751 879.886 130.073 876.039 131.15 872.317C131.585 870.802 131.924 869.044 132.912 867.948C134.527 866.153 136.429 864.462 137.948 868.507C138.759 870.677 140.72 872.413 142.158 874.348C143.544 872.148 144.922 869.964 146.471 867.514Z"
		fill="#ffffff25"
	/>

	<path
		d="M1225.13 511.648C1225.13 514.436 1224.92 517.246 1225.17 520.011C1225.63 525.006 1224.07 527.588 1218.51 526.985C1217.1 526.83 1215.51 528.22 1214 528.904C1215.16 529.728 1216.23 531.096 1217.49 531.273C1221.01 531.773 1225.75 531.163 1225.18 536.363C1224.56 542.056 1229.34 549.11 1221.08 553.288C1213.92 556.907 1207.41 561.534 1199.99 564.977C1192.73 568.353 1188.64 567.477 1181.68 566.595C1174.27 565.653 1176.34 564.123 1176.89 559.68C1178.17 549.412 1179.11 539.055 1179.27 528.721C1179.32 525.852 1175.85 523.064 1174.48 520.026C1165.62 500.431 1151.01 485.764 1133.66 473.818C1124.71 467.654 1114.66 463.079 1105.1 457.819C1104.42 457.437 1103.34 457.518 1102.88 456.996C1100.57 454.399 1098.89 450.685 1096.04 449.272C1093.33 447.933 1089.06 449.956 1086.16 448.787C1072.68 443.358 1059.47 437.29 1046.12 431.567C1041.6 429.633 1036.92 427.808 1037.73 421.725C1038.21 418.165 1049.7 410.596 1052.61 412.384C1058.75 416.172 1062.43 412.031 1067.4 410.067C1073.41 407.691 1080.43 405.756 1086.66 406.507C1094.84 407.5 1102.68 411.295 1110.65 413.899C1112.09 414.37 1113.49 415.304 1114.93 415.348C1124.56 415.613 1132.14 420.571 1139.74 425.661C1143.01 427.853 1146.53 429.699 1150.07 431.442C1151.83 432.303 1155.09 432.023 1155.62 433.185C1160.09 443.042 1170.62 443.233 1178.26 447.97C1179.86 448.963 1181.75 450.596 1182.13 452.251C1184.46 462.314 1192.47 466.455 1200.46 470.883C1203.14 472.362 1205.26 474.811 1207.69 476.76C1215 482.645 1214.99 482.601 1207.14 488.029C1206.3 488.618 1205.89 489.831 1205.28 490.751C1205.95 491.045 1206.64 491.633 1207.29 491.589C1221.98 490.707 1225.62 494.215 1225.48 509.265C1225.47 510.067 1225.48 510.861 1225.48 511.663C1225.36 511.648 1225.24 511.648 1225.13 511.648ZM1186.69 475.547C1185.81 477.518 1184.84 478.643 1185.08 479.372C1185.7 481.306 1186.85 483.071 1187.79 484.903C1189.49 484.013 1191.19 483.116 1192.89 482.226C1191.17 480.379 1189.46 478.533 1186.69 475.547ZM1214.34 514.657C1210.96 512.134 1209.19 510.317 1207.03 509.463C1206.34 509.191 1204.64 511.486 1203.4 512.604C1204.85 514.083 1206.07 516.106 1207.84 516.834C1208.98 517.305 1210.92 515.885 1214.34 514.657ZM1162.64 457.724C1161.6 457.113 1160.57 456.495 1159.53 455.885C1159.22 457.386 1158.48 458.96 1158.72 460.365C1158.92 461.453 1160.48 463.226 1161.17 463.108C1162.46 462.895 1163.77 461.689 1164.61 460.548C1164.83 460.254 1163.34 458.702 1162.64 457.724ZM1112.11 428.647C1109.94 427.154 1108.54 426.095 1107.01 425.3C1106.86 425.219 1105.19 427.073 1105.38 427.492C1106.14 429.14 1107.36 430.567 1108.42 432.082C1109.42 431.148 1110.42 430.221 1112.11 428.647ZM1208.99 551.119C1207.56 549.883 1206.58 548.662 1206.25 548.816C1204.93 549.427 1203.61 550.309 1202.73 551.442C1202.43 551.832 1203.43 553.222 1203.83 554.156C1205.29 553.288 1206.77 552.428 1208.99 551.119ZM1203.99 527.043C1203.56 526.131 1203.26 525.499 1202.97 524.859C1202.53 525.83 1201.82 526.786 1201.73 527.786C1201.68 528.419 1202.55 529.132 1203.01 529.809C1203.35 528.824 1203.71 527.831 1203.99 527.043Z"
		fill="#ffffff25"
	/>

	<path
		d="M436.438 401.975C435.848 403.005 435.494 404.322 434.639 405.028C429.345 409.382 422.37 407.786 416.804 409.721C411.694 411.501 407.462 416.554 401.173 416.9C393.667 417.312 391.92 415.039 394.773 407.808C399.861 394.943 399.839 382.498 393.903 369.714C390.438 362.24 383.692 358.864 377.86 354.524C361.927 342.674 343.251 337.113 324.531 330.92C305.265 324.55 284.975 323.417 265.96 316.716C264.08 316.054 261.779 316.142 260.246 315.076C258.439 313.818 256.22 311.744 256.095 309.89C255.984 308.184 258.012 305.58 259.781 304.631C267.427 300.541 274.97 295.282 283.205 293.516C293.918 291.229 305.258 291.302 316.31 291.405C324.826 291.486 333.334 292.501 341.164 297.121C344.755 299.239 349.599 299.555 353.949 300.019C366.8 301.402 378.31 305.896 389.081 313.031C392.871 315.539 397.907 316.216 402.412 317.606C403.525 317.952 404.786 317.893 405.98 317.9C411.355 317.922 410.765 326.712 418.286 325.307C422.466 324.528 427.827 328.507 432.243 331.06C434.713 332.487 436.409 335.319 438.304 337.643C438.724 338.158 438.554 339.886 438.576 339.879C448.22 339.239 446.908 348.367 450.749 352.957C455.424 358.548 456.699 364.314 456.471 371.258C456.08 383.167 452.909 393.546 442.565 400.526C440.832 401.696 438.311 401.703 436.151 402.248C436.305 401.107 436.888 399.798 436.519 398.864C435.767 396.944 434.558 395.186 433.371 393.472C433.238 393.281 432.044 393.818 431.343 394.024C432.324 395.782 433.246 397.569 434.307 399.276C434.89 400.254 435.708 401.085 436.438 401.975ZM431.557 359.276C432.862 360.401 433.843 361.247 434.831 362.1C435.745 360.541 437.109 359.055 437.382 357.385C437.537 356.473 435.848 355.252 434.986 354.178C433.983 355.686 432.966 357.194 431.557 359.276ZM410.308 341.019C408.826 340.342 408.015 339.754 407.16 339.673C406.659 339.629 405.56 340.659 405.619 340.776C406.039 341.644 406.688 342.409 407.263 343.211C408.067 342.63 408.871 342.049 410.308 341.019ZM296.845 306.639C296.418 307.367 296.012 307.919 295.791 308.537C295.739 308.684 296.41 309.324 296.536 309.265C297.133 308.985 297.656 308.551 298.202 308.176C297.76 307.676 297.325 307.176 296.845 306.639Z"
		fill="#ffffff25"
	/>

	<path
		d="M398.699 809.706C405.644 808.22 412.133 806.764 418.65 805.462C420.951 804.999 423.605 804.094 425.618 804.785C431.199 806.698 436.412 805.609 441.809 804.366C444.08 803.844 446.668 803.778 448.931 804.3C461.399 807.154 473.926 809.839 486.172 813.465C490.95 814.885 495.344 818.224 499.355 821.402C504.597 825.558 509.397 830.295 514.138 835.032C515.598 836.488 516.165 838.805 517.271 840.651C517.788 841.512 519.093 842.932 519.233 842.843C529.983 835.914 532.342 851.803 540.887 850.795C541.212 850.758 542.118 852.2 542.008 852.34C534.001 862.042 545.562 857.43 547.589 859.46C549.344 861.211 551.423 861.549 549.727 864.815C548.894 866.426 549.941 869 550.133 871.141C553.178 870.663 556.275 870.361 559.187 869.456C559.533 869.353 558.759 865.933 558.663 864.05C558.619 863.101 558.929 862.137 559.076 861.174C559.814 861.35 560.728 861.306 561.273 861.733C570.268 868.824 570.202 877.827 560.883 884.329C553.097 889.758 544.802 894.487 537.193 900.144C532.814 903.403 529.289 903.241 525.389 900.092C512.442 889.647 498.972 879.776 486.718 868.574C471.242 854.421 455.014 842.409 433.581 839.151C427.852 838.283 422.352 835.422 416.63 834.995C393.435 833.274 370.328 833.95 347.206 837.334C340.858 838.261 334.554 839.423 328.213 840.365C326.304 840.644 324.136 839.18 322.079 838.511C323.236 836.702 323.988 834.237 325.64 833.215C329.12 831.06 333.043 829.603 336.847 828.007C337.474 827.742 338.978 828.515 339.11 828.279C345.953 815.929 360.153 819.754 370.173 814.259C378.947 809.434 388.583 806.242 398.699 809.706Z"
		fill="#ffffff25"
	/>

	<path
		d="M807.901 658.268C809.139 662.174 810.223 666.139 811.654 669.971C813.578 675.12 816.313 680.041 817.604 685.322C818.201 687.757 816.992 691.494 815.266 693.494C798.537 712.95 781.564 732.192 764.592 751.435C753.621 763.873 748.364 778.511 747.14 794.848C746.395 804.778 746.145 814.178 752.146 823.299C755.862 828.949 755.678 837.135 759.357 842.829C765.919 852.972 764.282 864.175 766.14 874.958C767.32 881.814 770.092 888.375 771.589 895.193C772.083 897.43 770.807 900.048 770.343 902.49C768.05 901.299 765.196 900.615 763.582 898.82C759.63 894.421 755.501 889.897 752.795 884.719C746.506 872.685 738.971 860.74 735.756 847.816C732.342 834.09 728.501 820.615 724.026 807.242C723.074 804.403 722.92 800.806 723.738 797.945C726.967 786.676 723.539 775.672 723.303 764.557C723.215 760.534 725.53 756.495 726.451 752.406C729.799 737.584 731.9 722.336 739.981 709.074C743.136 703.895 744.891 696.907 752.692 695.995C753.4 695.914 754.461 695.414 754.646 694.863C759.888 679.585 775.224 674.818 785.686 664.984C789.085 661.791 789.638 655.591 796.156 655.319C796.539 655.304 796.133 648.654 797.033 645.344C797.778 642.623 799.908 640.276 801.42 637.761C803.256 639.96 805.829 641.887 806.758 644.417C808.314 648.647 808.815 653.266 809.766 657.716C809.147 657.893 808.527 658.077 807.901 658.268Z"
		fill="#ffffff25"
	/>

	<path
		d="M529.248 707.867C513.278 705.734 498.945 705.101 485.312 701.681C468.796 697.54 451.824 693.413 437.225 684.3C430.147 679.879 424.905 672.428 419.125 666.08C416.537 663.24 414.435 659.879 412.555 656.503C411.353 654.34 409.628 650.964 410.483 649.478C412.275 646.367 415.777 641.88 418.291 642.049C422.981 642.373 424.278 640.865 426.313 637.319C427.522 635.215 432.484 632.803 433.797 633.627C439.997 637.533 450.666 634.642 452.561 645.432C452.679 646.094 456.896 646.896 457.059 646.565C461.136 638.445 463.296 646.433 462.839 647.838C459.624 657.68 468.443 657.224 472.977 660.173C476.376 662.387 483.491 661.247 480.018 669.007C479.863 669.36 482.097 671.464 483.373 671.641C488.46 672.361 493.739 672.178 497.212 677.106C497.721 677.827 499.969 678.378 500.368 677.974C506.303 672.016 510.269 675.62 514.656 680.188C515.63 681.203 518.785 680.232 520.923 680.019C524.005 679.717 527.161 679.585 530.14 678.812C535.006 677.555 537.262 687.235 544.119 681.071C547.267 678.239 554.692 680.379 560.118 679.783C565.604 679.18 571.052 678.128 576.464 677.003C581.846 675.885 587.133 674.333 592.5 673.134C604.253 670.508 613.219 662.983 620.923 654.752C627.05 648.206 634.785 645.719 642.143 642.262C647.12 639.93 653.387 641.777 655.613 646.793C656.963 649.824 654.987 654.987 653.195 658.533C651.905 661.085 648.705 663.77 645.947 664.314C633.575 666.749 626.637 677.26 616.603 683.071C615.607 683.645 614.951 684.947 613.926 685.322C600.648 690.096 587.546 695.576 573.965 699.232C560.229 702.932 545.999 704.807 531.983 707.463C530.435 707.772 528.864 707.926 529.248 707.867Z"
		fill="#ffffff25"
	/>

	<path
		d="M996.979 841.159C1000.64 840.696 1003.42 840.387 1007.61 842.564C1019.81 848.904 1032.35 855.135 1047.01 854.973C1056.08 854.87 1065.18 856.723 1074.26 857.775C1089.72 859.57 1103.99 853.781 1118.43 850.155C1125.32 848.426 1131.1 842.476 1137.56 838.754C1139.82 837.452 1143.13 835.775 1145.1 836.525C1153.99 839.93 1162.76 843.807 1171.14 848.309C1173.27 849.449 1174.84 853.546 1174.72 856.194C1174.65 857.761 1170.61 858.982 1168.58 860.637C1158.31 869.007 1143.78 864.432 1133.37 872.281C1124.67 868.956 1117.16 878.849 1107.91 874.34C1105.49 873.163 1100.98 877.253 1097.44 877.253C1085.64 877.268 1073.85 876.231 1062.05 876.15C1042.49 876.01 1023.96 871.03 1005.6 865.021C997.76 862.453 989.532 860.615 982.292 856.871C975.361 853.288 969.116 848.081 963.218 842.865C946.216 827.823 931.448 810.942 922.084 789.949C921.118 787.786 920.02 785.653 919.371 783.395C916.621 773.869 918.648 771.207 928.875 771.229C933.991 771.236 939.219 771.236 944.188 772.251C947.454 772.921 950.559 775.12 953.345 777.157C954.82 778.239 956 780.335 956.383 782.159C957.607 787.97 972.751 781.424 966.646 794.701C964.294 799.82 967.561 807.647 968.667 814.178C969.765 820.615 969.242 828.088 977.521 830.832C978.613 831.192 980.39 832.523 980.493 832.391C988.094 822.284 987.814 836.812 992.312 836.12L992.076 835.819C994.973 836.267 989.318 845.616 997.281 840.791L996.979 841.159Z"
		fill="#ffffff25"
	/>

	<path
		d="M985.674 609.405C995.17 607.97 1004.67 606.521 1014.16 605.109C1015.64 604.888 1017.53 604.175 1018.56 604.793C1026.87 609.772 1034.84 607.772 1043.29 604.91C1047.14 603.608 1053.17 603.094 1055.86 605.205C1062.7 610.567 1069.96 609.383 1077.47 609.956C1083.03 610.376 1088.62 612.663 1093.68 615.164C1094.76 615.694 1093.4 620.74 1093.55 623.689C1093.66 625.8 1094.41 627.875 1094.88 629.964C1096.14 628.662 1097.3 627.271 1098.65 626.08C1102.92 622.314 1109.42 624.109 1110.15 630.398C1111.38 640.916 1117.92 647.308 1124.74 653.987C1129.76 658.893 1130.31 665.337 1125.41 669.662C1115.5 678.415 1103.49 683.093 1090.41 684.204C1084.08 684.741 1080.84 679.467 1078.2 674.517C1072.96 664.697 1068.68 654.267 1062.52 645.08C1056.46 636.061 1048.91 627.58 1036.48 627.441C1018.58 627.242 1000.66 627.72 982.769 627.176C969.062 626.764 955.946 629.662 942.785 632.509C937.078 633.744 931.667 636.746 925.945 637.437C916.736 638.54 907.38 638.437 898.075 638.665C897.242 638.687 895.827 637.459 895.686 636.65C895.546 635.841 896.461 634.429 897.301 633.943C910.543 626.293 922.524 617.444 938.546 613.796C954.25 610.221 969.94 610.618 985.674 609.405Z"
		fill="#ffffff25"
	/>

	<path
		d="M992.292 836.135C993.561 834.943 994.829 833.744 996.097 832.553C996.347 834.274 996.642 835.981 996.834 837.709C996.96 838.849 996.937 840.011 996.974 841.159L997.254 840.813C995.522 839.158 993.782 837.496 992.049 835.841C992.056 835.833 992.292 836.135 992.292 836.135Z"
		fill="#ffffff25"
	/>

	<path
		d="M870.752 1027.67C869.277 1028.53 868.407 1029.04 867.537 1029.55C867.11 1028.74 866.417 1027.95 866.35 1027.11C866.313 1026.68 867.5 1025.68 867.943 1025.79C868.783 1025.98 869.491 1026.77 870.752 1027.67Z"
		fill="#ffffff25"
	/>

	<path
		d="M225.347 695.179C226.387 696.356 227.338 697.437 228.289 698.518C227.736 698.768 226.969 699.371 226.675 699.195C225.731 698.621 224.912 697.805 224.182 696.966C224.087 696.848 224.765 696.061 225.347 695.179Z"
		fill="#ffffff25"
	/>
</svg>
