<svg
	viewBox="0 0 1393 1388"
	fill="none"
	xmlns="http://www.w3.org/2000/svg"
>
	<path
		d="M770.148 1031.52C770.148 1058.76 770.088 1086 770.241 1113.24C770.258 1116.15 771.528 1119.05 772.215 1121.95C773.731 1119.14 776.17 1116.48 776.619 1113.52C781.583 1080.77 786.648 1048.01 790.74 1015.15C792.053 1004.62 797.22 998.12 806.266 995.046C815.813 991.795 817.143 984.749 817.287 976.663C817.609 959.142 822.2 952.834 834.448 951.2C840.75 950.361 843.122 952.326 843.249 958.059C843.427 966.103 843.757 974.165 843.393 982.201C842.842 994.479 841.589 1006.73 841.081 1019.01C841.013 1020.67 843.537 1022.44 844.858 1024.16C845.655 1022.65 846.764 1021.22 847.188 1019.61C851.525 1003.35 855.608 987.027 860.046 970.794C862.596 961.48 870.762 959.964 878.563 959.659C884.467 959.43 885.39 964.054 885.018 969.423C883.222 995.444 882.112 1021.52 879.944 1047.51C879.317 1055.07 876.827 1062.75 873.769 1069.75C868.525 1081.74 864.773 1093.29 871.685 1105.96C872.439 1107.33 870.584 1111.34 868.83 1112.67C857.827 1120.99 849.195 1130.64 843.512 1143.71C841.191 1149.04 833.203 1152.73 827.019 1155.32C822.784 1157.09 818.151 1154.95 818.125 1148.37C818.1 1141.61 817.414 1134.83 816.668 1128.1C816.524 1126.82 814.762 1125.71 813.746 1124.52C812.967 1125.51 811.705 1126.4 811.476 1127.51C806.834 1149.48 793.823 1164.51 773.638 1173.89C771.486 1174.89 770.038 1177.37 768.25 1179.16C765.091 1182.33 762.329 1186.1 758.687 1188.58C746.718 1196.74 742.754 1194.89 742.661 1180.2C742.534 1158.88 743.66 1137.54 743.88 1116.21C744.109 1094.46 743.838 1072.71 743.914 1050.95C743.948 1040.65 744.71 1030.33 744.338 1020.04C744.143 1014.72 741.221 1009.42 741.382 1004.16C741.5 1000.3 744.075 996.003 746.786 993.031C747.59 992.142 752.622 994.987 755.638 996.283C756.408 996.613 757.196 997.477 757.493 998.264C759.941 1004.9 772.511 999.018 771.672 1009.96C771.156 1016.65 771.588 1023.41 771.588 1030.14C771.588 1030.59 771.52 1031.05 771.486 1031.51C771.054 1031.52 770.597 1031.52 770.148 1031.52ZM846.57 1043.44C845.231 1039.81 844.316 1037.31 843.393 1034.8C842.478 1038.13 841.216 1041.43 840.835 1044.81C840.708 1045.92 842.842 1047.28 843.944 1048.54C844.884 1046.71 845.824 1044.88 846.57 1043.44Z"
		fill="#ffffff15"
	/>

	<path
		d="M639.031 984.673C637.32 992.396 635.855 1000.18 633.686 1007.77C633.288 1009.17 630.044 1009.77 628.113 1010.74C627.384 1008.92 626.563 1007.12 625.961 1005.27C625.317 1003.29 624.885 1001.24 624.36 999.221C622.979 1001.14 621.345 1002.93 620.286 1005.01C618.439 1008.66 617.33 1012.74 615.153 1016.17C613.933 1018.07 611.239 1019.92 609.105 1020.05C607.766 1020.13 605.835 1017.16 604.92 1015.2C604.209 1013.68 604.632 1011.63 604.607 1009.81C604.53 1005.34 604.488 1000.88 604.429 996.41C602.557 1000.92 600.668 1005.43 598.821 1009.95C595.179 1018.82 591.774 1027.79 587.776 1036.49C586.869 1038.45 583.93 1039.49 581.931 1040.95C580.974 1038.63 579.203 1036.32 579.203 1034C579.203 1023.17 579.754 1012.35 579.94 1001.52C579.974 999.772 579.152 998.01 578.729 996.258C577.382 997.782 575.366 999.094 574.799 1000.87C570.08 1015.7 565.727 1030.65 560.983 1045.46C560.449 1047.12 558.137 1048.23 556.646 1049.61C555.994 1047.7 554.495 1045.64 554.816 1043.92C559.187 1020.67 563.872 997.468 568.336 974.233C570.326 963.876 574.858 953.96 571.512 942.74C570.394 938.981 573.604 934.044 574.46 929.573C579.991 900.435 584.802 871.153 591.105 842.184C594.764 825.35 600.668 808.998 605.809 792.503C606.216 791.199 608.486 790.471 609.892 789.471C610.07 791.14 610.689 792.901 610.358 794.459C608.452 803.418 606.182 812.292 604.386 821.268C603.988 823.258 605.03 825.536 605.411 827.687C606.25 825.909 607.122 824.147 607.936 822.361C614.322 808.312 620.591 794.213 627.215 780.275C627.96 778.7 630.654 778.048 632.441 776.973C632.636 778.861 633.339 780.859 632.958 782.621C629.756 797.355 626.317 812.038 623.081 826.764C622.615 828.889 622.835 831.167 622.742 833.377C624.352 832.048 626.224 830.93 627.511 829.347C635.643 819.355 637.744 807.212 639.641 794.992C643.055 773.001 651.026 752.661 662.529 733.693C663.486 732.11 665.841 731.365 667.543 730.23C668.272 732.22 669.966 734.421 669.585 736.174C666.12 752.162 662.554 768.132 658.514 783.984C652.076 809.252 645.24 834.419 638.625 859.636C638.303 860.864 638.548 862.253 638.531 863.557C639.87 862.82 641.979 862.397 642.428 861.296C645.494 853.802 648.756 846.308 650.899 838.526C653.575 828.847 654.727 818.736 657.48 809.083C660.453 798.651 664.079 796.821 675.523 797.016C676.573 797.033 677.649 794.806 678.724 793.629C681.469 790.623 684.095 787.498 687.026 784.695C688.169 783.603 690.016 783.239 691.541 782.545C692.235 784.162 693.743 785.94 693.472 787.38C692.133 794.552 690.236 801.614 688.745 808.753C688.398 810.404 688.872 812.225 688.965 813.969C690.473 813.004 692.006 812.072 693.48 811.048C693.828 810.81 693.904 810.218 694.217 809.896C698.334 805.687 699.876 796.5 707.957 800.259C709.752 801.098 708.109 810.844 706.915 816.238C701.832 839.339 696.792 862.465 690.846 885.353C684.773 908.716 677.674 931.808 670.94 954.993C670.186 957.593 669.432 960.548 667.696 962.428C665.739 964.537 662.664 965.604 660.072 967.128C658.861 964.511 656.853 961.971 656.599 959.261C656.142 954.468 656.26 949.489 656.997 944.73C661.3 916.964 666.019 889.257 670.135 861.465C670.72 857.536 668.814 853.252 668.06 849.128C666.281 853.04 663.655 856.783 662.876 860.881C657.463 889.232 652.686 917.709 647.129 946.026C645.477 954.443 641.818 962.454 639.412 970.752C638.15 975.113 637.6 979.677 636.727 984.148C637.498 984.335 638.26 984.504 639.031 984.673ZM619.337 899.605C618.498 895.413 618.016 893 617.533 890.595C616.406 892.881 614.822 895.049 614.212 897.463C606.674 927.185 598.991 956.882 592.045 986.748C590.529 993.243 591.748 1000.38 591.706 1007.22C593.925 1001.03 596.721 994.996 598.262 988.653C605.589 958.558 612.569 928.37 619.337 899.605ZM628.985 927.574C629.858 932.139 630.171 933.79 630.484 935.441C631.34 933.798 632.619 932.24 632.992 930.496C636.549 913.806 639.988 897.098 643.317 880.357C643.538 879.231 642.606 877.876 642.216 876.623C641.166 877.732 639.446 878.706 639.167 879.985C635.474 896.667 631.984 913.382 628.985 927.574ZM581.338 942.876C580.762 945.687 580.211 947.279 580.22 948.863C580.228 949.523 581.431 950.184 582.092 950.844C582.837 949.354 583.896 947.923 584.193 946.339C584.328 945.662 582.888 944.68 581.338 942.876Z"
		fill="#ffffff15"
	/>

	<path
		d="M1205.21 276.824C1207.96 277.053 1208.88 277.061 1209.79 277.222C1215.57 278.247 1221.35 279.297 1227.13 280.338C1223.83 276.562 1219.77 273.191 1217.49 268.881C1215.59 265.291 1215.78 260.6 1215.04 256.4C1218.89 256.061 1224.63 253.927 1226.29 255.671C1236.68 266.57 1237.49 254.681 1240.61 249.888C1242.55 246.916 1242.88 239.879 1243.98 239.87C1249.46 239.819 1255.86 240.065 1260.26 242.851C1269.83 248.914 1278.27 256.721 1287.37 263.563C1294.61 269.008 1302.09 274.114 1309.53 279.28C1310.11 279.686 1311.17 279.415 1312.01 279.449C1311.89 278.306 1312.21 276.79 1311.58 276.088C1308.3 272.345 1304.8 268.788 1301.35 265.198C1288.04 251.395 1274.41 237.889 1261.66 223.586C1259.01 220.614 1259.61 214.746 1258.71 210.216C1263.35 210.402 1268.94 208.988 1272.46 211.062C1286.08 219.082 1299.13 228.091 1312.22 236.966C1328.89 248.27 1342.37 263.953 1361.46 272.031C1370.37 275.8 1378.51 281.456 1387.5 284.945C1394.46 287.638 1392 290.644 1389.08 293.819C1382.13 301.364 1374.03 298.968 1366.28 295.445C1360.04 292.608 1354.17 288.984 1348.05 285.902C1347.03 285.394 1345.53 285.843 1344.25 285.851C1344.72 286.926 1344.94 288.205 1345.68 289.026C1350.81 294.734 1355.92 300.467 1361.27 305.962C1368.44 313.329 1377.07 319.68 1382.61 328.08C1385.27 332.12 1383.59 340.342 1381.56 345.812C1378.9 352.976 1372.42 349.97 1367.34 348.048C1356.47 343.924 1345.73 339.478 1334.9 335.27C1333.73 334.821 1332.28 335.1 1330.96 335.041C1331.32 336.565 1331.2 338.504 1332.11 339.529C1335.76 343.619 1339.13 348.42 1343.68 351.13C1352.77 356.533 1351.06 365.593 1351.85 373.265C1352.74 381.903 1344.9 386.255 1337.42 381.623C1291.73 353.357 1243.87 328.318 1203.37 292.295C1202.34 291.389 1201.21 290.39 1200.68 289.187C1199.29 285.987 1198.21 282.65 1197.01 279.373C1200.29 278.348 1203.59 277.324 1205.21 276.824Z"
		fill="#ffffff15"
	/>

	<path
		d="M1274.44 628.082C1273.02 658.55 1271.49 689.796 1270.28 721.043C1270.17 723.837 1272.13 726.708 1273.14 729.536C1275.46 727.25 1278.82 725.387 1279.93 722.618C1290.05 697.248 1299.42 671.573 1309.86 646.347C1312.88 639.065 1318.31 632.655 1323.39 626.448C1324.91 624.576 1328.95 624.746 1331.83 623.984C1332.6 627.328 1335.2 632.367 1333.88 633.772C1318.64 650.116 1318.72 673.385 1306.79 691.566C1298.46 704.251 1296.59 721.026 1291 735.65C1283.81 754.423 1279.32 773.611 1278.27 793.706C1277.91 800.421 1265.97 808.406 1259.66 806.111C1257.37 805.281 1254.55 800.7 1254.99 798.406C1259.16 776.609 1252.62 755.287 1252.57 733.719C1252.57 731.687 1250.84 729.663 1249.91 727.631C1248.62 729.799 1246.37 731.89 1246.18 734.151C1244.1 758.776 1242.33 783.417 1240.52 808.067C1240.14 813.267 1230.36 821.989 1225.27 820.71C1218.45 818.991 1218.72 813.919 1219.45 807.754C1221.81 788.007 1223.32 768.158 1225.08 748.343C1225.26 746.319 1224.99 744.253 1224.93 742.204C1223.56 743.982 1221.39 745.591 1220.95 747.573C1215.94 769.953 1208.38 791.987 1212.28 815.587C1212.95 819.66 1212.69 825.731 1210.2 828.018C1207.01 830.956 1200.98 832.286 1196.52 831.701C1194.68 831.464 1192.92 824.529 1192.5 820.498C1189.48 792.071 1186.61 763.619 1184.21 735.125C1183.77 729.951 1186.18 724.608 1186.41 719.307C1187.49 694.851 1189.15 670.371 1188.71 645.932C1188.54 636.228 1194.65 635.297 1200.01 633.501C1205.8 631.562 1212.1 637.879 1211.97 644.976C1211.65 663.766 1210.92 682.556 1210.26 701.346C1210.2 703.125 1208.85 705.081 1209.31 706.596C1210.25 709.738 1212.01 712.634 1213.43 715.623C1214.85 712.981 1216.68 710.475 1217.61 707.672C1227.2 678.881 1236.69 650.048 1246.14 621.206C1250.37 608.267 1261.08 603.042 1269.06 611.095C1272.48 614.576 1272.48 621.426 1274.44 628.082Z"
		fill="#ffffff15"
	/>

	<path
		d="M897.647 770.715C904.957 775.084 912.208 779.547 919.595 783.798C924.542 786.643 929.666 789.183 934.715 791.859C930.767 787.913 926.676 784.086 922.89 779.987C916.986 773.594 911.056 767.201 905.601 760.435C903.687 758.055 903.128 754.592 901.95 751.628C905.821 751.51 910.345 750.036 913.453 751.518C922.517 755.845 931.216 761.036 939.678 766.472C953.875 775.592 967.742 785.22 981.862 794.467C983.522 795.56 985.894 795.568 987.944 796.076C986.851 794.061 986.258 791.343 984.581 790.132C955.518 769.318 926.93 747.978 903.763 720.373C902.289 718.62 900.468 717.071 899.35 715.115C897.054 711.101 897.3 707.714 903.035 708.095C906.592 708.332 910.463 708.924 913.521 710.593C925.465 717.13 937.146 724.141 948.903 731.026C950.478 731.949 951.774 733.786 953.409 734.1C956.764 734.752 960.262 734.658 963.693 734.87C961.49 732.914 959.288 730.966 957.086 729.01C951.961 724.446 946.616 720.094 941.813 715.208C939.848 713.201 939.069 710.034 937.747 707.4C941.262 707.053 945.472 705.317 948.166 706.638C955.103 710.051 961.321 714.92 967.936 719.035C979.151 726.004 990.756 732.389 1001.64 739.841C1017.79 750.891 1033.39 762.713 1049.32 774.068C1056.01 778.836 1063.01 783.154 1069.74 787.862C1072.73 789.954 1076.35 792.012 1077.93 795.009C1079.33 797.685 1078.32 801.631 1078.37 805.018C1075.46 804.79 1071.93 805.526 1069.78 804.138C1063.3 799.946 1057.46 794.764 1051.11 790.352C1049.7 789.37 1047.18 789.988 1045.17 789.869C1046.05 791.639 1046.5 793.908 1047.88 795.094C1052.71 799.218 1058.19 802.622 1062.76 806.991C1065.64 809.735 1068.69 813.52 1069.19 817.178C1069.73 821.082 1067.35 825.384 1066.24 829.507C1062.24 828.424 1057.03 828.584 1054.43 826.061C1022.83 795.45 987.021 770.274 951.258 744.989C944.566 740.264 938.171 735.09 931.259 730.729C929.387 729.552 926.126 730.568 923.5 730.577C924.686 732.592 925.397 735.217 927.117 736.538C951.292 755.083 974.713 774.822 1000.18 791.41C1019.83 804.205 1033.72 821.886 1049.2 838.373C1054.12 843.606 1060.6 850.626 1053.63 857.214C1046.58 863.87 1041.2 854.759 1036.32 851.092C1008.39 830.083 980.871 808.541 953.181 787.219C951.783 786.143 950.157 785.178 948.479 784.704C946.523 784.153 944.405 784.213 942.355 784.001C943.202 785.627 943.643 787.82 944.973 788.777C953.037 794.594 961.533 799.827 969.461 805.823C988.706 820.379 1008.02 834.893 1026.59 850.279C1030.6 853.607 1035.01 863.227 1033.34 865.352C1028.11 872.016 1023.47 864.548 1018.86 861.592C1017.33 860.61 1015.62 859.882 1014.16 858.806C1010.16 855.868 1008.14 855.106 1008.1 861.753C1008.05 872.067 1005.92 873.642 997.363 868.485C965.006 848.992 929.065 835.325 900.51 809.616C898.477 807.787 896.444 805.84 894.945 803.587C893.785 801.851 893.446 799.556 892.743 797.516C895.182 797.651 897.681 797.533 900.053 798.015C902.027 798.422 903.856 799.531 905.745 800.336C904.83 798.041 904.373 795.399 902.916 793.51C899.392 788.946 895.03 785 891.701 780.309C887.779 774.771 889.922 772.044 897.647 770.715ZM963.659 824.037C954.883 818.101 948.674 813.85 942.372 809.743C941.94 809.464 940.83 810.209 940.043 810.472C943.922 814.341 947.7 818.313 951.715 822.039C953.35 823.555 955.4 824.748 957.45 825.629C958.288 825.993 959.644 825.13 963.659 824.037Z"
		fill="#ffffff15"
	/>

	<path
		d="M1055.88 525.764C1055.04 527.516 1054.71 529.743 1053.45 530.582C1047.68 534.435 1049.84 538.635 1051.42 543.783C1052.43 547.043 1051.22 553.987 1049.62 554.436C1045.83 555.511 1039.96 555.164 1037.2 552.776C1030.36 546.857 1024.91 539.354 1018.6 532.775C1016.68 530.785 1013.78 529.743 1011.33 528.262C1011.79 531.268 1011.55 534.612 1012.85 537.204C1015.63 542.767 1018.79 548.237 1022.54 553.183C1026.78 558.797 1028.76 563.429 1020.96 567.476C1016.05 570.025 1016.42 573.048 1019.49 577.358C1022.34 581.381 1024.5 586.157 1025.8 590.916C1026.62 593.913 1026.36 599.477 1024.68 600.383C1021.74 601.966 1016.36 602.322 1013.75 600.577C1007.72 596.572 1003.02 590.636 997.279 586.123C980.947 573.285 967.428 558.162 956.272 540.591C948.005 527.567 937.79 515.788 929.302 502.892C923.347 493.848 918.773 483.89 913.716 474.262C909.701 466.632 905.754 458.952 902.044 451.17C900.493 447.918 899.316 444.404 898.638 440.881C898.3 439.094 898.935 435.843 900.044 435.36C901.739 434.615 904.788 434.996 906.279 436.156C909.116 438.366 911.742 441.169 913.606 444.243C930.047 471.366 945.981 498.793 962.795 525.67C967.818 533.689 975.094 540.328 981.523 547.433C982.557 548.576 984.564 548.839 986.123 549.516C986.241 547.424 987.165 544.926 986.343 543.301C980.431 531.513 973.824 520.056 968.08 508.184C953.791 478.623 939.729 448.943 925.931 419.153C924.618 416.307 925.101 412.183 925.863 408.915C927.938 400.074 933.503 397.957 938.798 404.52C950.741 419.322 962.193 434.564 973.18 450.094C984.437 466.005 994.873 482.493 1005.78 498.649C1007.3 500.893 1009.31 502.968 1011.51 504.526C1012.63 505.322 1014.69 504.797 1016.32 504.873C1016.13 503.349 1016.38 501.571 1015.67 500.351C1006.97 485.456 997.973 470.731 989.376 455.776C980.126 439.687 970.376 423.81 962.422 407.086C956.247 394.104 952.181 380.082 947.92 366.287C947.099 363.628 949.725 359.911 950.758 356.685C954.434 358.37 959.288 359.09 961.6 361.893C982.938 387.694 996.796 418.035 1012.58 447.198C1025.9 471.823 1033.23 499.742 1053.18 520.742C1054.4 522.012 1054.91 523.892 1055.88 525.764ZM988.283 430.813C986.351 429.932 984.928 429.289 983.497 428.637C983.056 429.712 981.938 431.228 982.303 431.778C983.073 432.955 984.607 433.624 985.835 434.505C986.479 433.531 987.122 432.566 988.283 430.813Z"
		fill="#ffffff15"
	/>

	<path
		d="M503.713 898.927C503.196 900.858 501.782 903.102 502.324 904.668C504.73 911.663 500.698 915.414 495.505 917.895C493.735 918.742 489.906 917.48 488.195 915.905C482.164 910.376 476.751 904.177 470.856 898.495C469.416 897.115 467.001 896.751 465.028 895.921C465.451 898.275 465.358 900.9 466.417 902.932C469.085 908.072 473.168 912.645 474.947 918.014C476.141 921.621 475.464 926.905 473.448 930.064C472.431 931.656 465.858 931.393 463.08 929.767C458.971 927.371 458.954 927.007 457.624 932.096C454.101 945.619 450.331 946.686 441.2 936.787C418.744 912.433 396.789 887.631 374.587 863.049C367.717 855.444 360.128 848.391 353.978 840.253C348.972 833.623 350.141 826.62 354.486 818.88C359.213 810.471 363.787 811.293 369.674 815.984C376.408 821.353 382.778 827.187 389.301 832.835C390.605 833.961 391.876 835.122 393.155 836.265C392.452 834.444 392.062 832.412 391.003 830.82C382.304 817.796 373.477 804.849 364.677 791.884C363.906 790.75 362.635 789.818 362.245 788.582C360.746 783.848 358.086 777.921 364.473 775.618C367.701 774.457 374.528 776.126 376.036 778.683C380.186 785.754 385.709 791.063 391.893 796C392.782 796.711 393.841 797.202 394.823 797.795C395.027 796.592 395.679 795.238 395.349 794.205C393.993 789.945 391.655 785.881 390.995 781.545C390.376 777.497 391.418 773.196 391.723 769.013C396.018 769.419 401.744 768.208 404.353 770.511C416.864 781.579 428.918 793.222 440.395 805.357C457.641 823.588 474.235 842.429 491.177 860.94C497.58 867.935 504.899 874.218 510.422 881.822C513.259 885.734 513.581 891.797 513.895 896.963C513.971 898.182 509.439 899.681 507.034 901.053C505.924 900.358 504.814 899.647 503.713 898.927Z"
		fill="#ffffff15"
	/>

	<path
		d="M512.599 624.771C506.229 621.011 503.34 624.051 499.461 628.395C493.116 635.508 485.518 637.608 476.387 631.181C472.084 628.15 465.883 627.379 460.403 626.515C448.442 624.636 443.936 616.879 448.807 605.913C452.847 596.835 456.676 587.665 460.598 578.536C460.776 578.113 461.089 577.698 461.114 577.266C462.495 555.012 478.606 537.052 490.329 523.148C496.538 515.781 500.376 506.339 504.789 497.583C509.405 488.438 511.692 478.319 522.264 472.696C526.939 470.206 530.048 463.559 532.394 458.165C538.358 444.464 545.82 442.838 554.799 455.244C558.848 460.832 559.814 463.949 567.37 459.08C570.284 457.2 578.619 462.365 583.447 465.778C584.582 466.582 582.515 474.017 580.203 477.108C576.204 482.451 572.384 485.101 582.964 487.328C594.06 489.666 597.381 500.437 591.003 510.573C582.439 524.181 572.384 536.883 564.312 550.753C558.611 560.55 550.513 567.672 542.779 575.386C542.466 575.691 541.712 575.962 541.746 576.148C544.507 590.764 528.608 596.488 526.05 608.987C524.686 615.617 522.026 624.187 512.599 624.771ZM548.675 481.02C546.032 484.966 543.957 487.591 542.525 490.529C542.203 491.19 544.084 492.926 544.956 494.162C546.947 491.393 549.073 488.709 550.818 485.796C551.14 485.262 549.988 483.831 548.675 481.02ZM551.208 479.919C553.452 477.133 554.96 475.262 556.476 473.39C555.019 472.611 553.071 470.85 552.207 471.273C550.488 472.112 549.022 474.008 548.175 475.804C547.879 476.396 549.759 478.031 551.208 479.919Z"
		fill="#ffffff15"
	/>

	<path
		d="M494.319 1223.6C496.115 1210.38 499.495 1206.58 514.793 1201.86C523.975 1199.02 528.075 1206.77 532.496 1211.66C548.98 1229.87 564.651 1248.82 580.838 1267.32C582.168 1268.83 585.065 1268.98 587.233 1269.76C586.471 1267.92 585.505 1266.16 584.972 1264.25C578.983 1242.95 558.831 1230.51 551.115 1210.28C550.666 1209.1 549.581 1208.04 548.557 1207.22C545.38 1204.69 542.093 1202.29 538.849 1199.84C543.305 1195.04 547.54 1190 552.326 1185.55C554.452 1183.57 558.399 1183.42 560.28 1181.32C566.667 1174.2 572.461 1177.24 578.026 1181.86C581.888 1185.07 585.675 1188.61 588.589 1192.65C598.999 1207.04 608.842 1221.85 619.235 1236.25C628.316 1248.84 637.439 1261.44 647.324 1273.39C656.48 1284.46 651.102 1303.31 636.507 1305.34C628.79 1306.41 626.571 1310.34 622.53 1315.53C617.211 1322.37 614.509 1334.61 600.761 1331.21C599.118 1330.8 595.772 1335.96 593.671 1338.85C586.496 1348.73 584.497 1348.94 576.408 1339.57C554.935 1314.68 533.928 1289.53 518.46 1260.18C514.276 1252.24 506.907 1246.04 501.697 1238.58C498.555 1234.06 496.742 1228.63 494.319 1223.6Z"
		fill="#ffffff15"
	/>

	<path
		d="M911.734 1344.58C917.706 1344.58 924.177 1343.16 929.497 1345.02C933.868 1346.54 936.866 1351.96 940.475 1355.65C937.112 1358.41 934.045 1363.03 930.335 1363.63C896.572 1369.07 862.748 1375.2 828.332 1370.84C814.627 1369.11 801.015 1366.34 787.529 1363.28C783.608 1362.39 780.287 1358.87 776.696 1356.55C780.177 1353.96 783.311 1349.95 787.191 1349.02C801.26 1345.65 815.567 1343.29 829.798 1340.61C831.119 1340.37 832.83 1341.17 833.872 1340.6C838.819 1337.89 843.588 1334.86 848.425 1331.95C843.673 1330.88 838.971 1329.4 834.16 1328.81C807.85 1325.6 781.481 1322.86 755.24 1319.24C751.699 1318.75 746.422 1314.47 745.981 1311.38C745.109 1305.24 750.538 1304.97 755.536 1305.59C756.942 1305.76 758.509 1304.61 760 1304.07C758.653 1302.93 757.171 1301.92 755.993 1300.63C753.461 1297.84 751.08 1294.92 748.641 1292.05C752.139 1290.19 755.443 1287.56 759.178 1286.58C777.068 1281.9 794.967 1277.1 813.094 1273.53C821.098 1271.96 829.908 1274.45 837.93 1272.93C856.099 1269.47 874.048 1264.86 891.989 1260.33C899.663 1258.39 905.322 1260.46 910.074 1266.5C915.732 1273.69 914.741 1280.06 906.897 1284.85C904.195 1286.5 901.222 1287.77 898.723 1289.67C897.097 1290.91 896.097 1292.96 894.818 1294.65C897.02 1295.46 899.164 1296.72 901.425 1297C905.974 1297.53 911.243 1296.21 914.987 1298.09C918.942 1300.07 921.467 1304.89 924.618 1308.47C921.424 1310.99 918.587 1314.54 914.953 1315.81C908.651 1318 901.9 1319.12 895.25 1320.04C887.745 1321.09 887.923 1323.58 892.54 1328.5C896.182 1332.37 901.188 1336.9 892.345 1340.99C891.489 1341.39 891.26 1343.14 890.744 1344.25C892.26 1344.81 893.793 1345.87 895.292 1345.84C900.773 1345.7 906.245 1345.19 911.717 1344.83C911.725 1344.76 911.725 1344.67 911.734 1344.58ZM858.827 1312.2C861.088 1311.09 863.418 1309.95 865.747 1308.82C863.324 1308.1 860.885 1306.77 858.496 1306.84C856.192 1306.92 853.931 1308.45 851.652 1309.35C853.77 1310.19 855.887 1311.04 858.827 1312.2Z"
		fill="#ffffff15"
	/>

	<path
		d="M976.974 294.056C975.839 293.624 973.044 293.082 970.825 291.651C944.735 274.8 920.069 256.078 897.834 234.366C888.457 225.212 879.122 215.847 871.134 205.524C866.45 199.478 864.171 191.45 861.486 184.075C860.893 182.449 863.087 177.944 864.078 177.919C869.254 177.8 871.693 177.749 866.458 172.753C865.222 171.576 866.196 168.096 866.153 165.674C868.263 165.996 870.372 166.292 872.473 166.665C872.896 166.741 873.26 167.122 873.675 167.325C879.351 170.018 885.018 172.703 890.693 175.387C886.474 170.442 882.485 165.268 877.97 160.61C873.565 156.072 868.28 152.354 864.07 147.663C862.367 145.758 862.503 142.218 861.8 139.424C864.866 140.22 868.745 140.084 870.872 141.947C889.558 158.324 907.88 175.107 926.405 191.671C940.017 203.839 953.723 215.914 967.521 227.871C968.961 229.116 971.325 229.302 973.256 229.979C972.375 227.82 972.078 225.051 970.537 223.578C945.167 199.351 919.62 175.319 894.174 151.177C887.864 145.19 881.426 139.28 875.801 132.692C874.158 130.761 875.107 126.62 874.878 123.487C877.428 124.097 880.274 124.173 882.476 125.392C911.2 141.371 936.985 161.508 962.532 181.975C963.252 182.551 963.921 183.381 964.743 183.592C967.606 184.346 970.528 184.888 973.425 185.514C971.714 183.482 970.206 181.247 968.275 179.46C948.318 161.017 928.235 142.709 908.329 124.215C900.688 117.119 893.141 109.888 886.161 102.165C884.831 100.691 885.466 96.0256 886.873 93.9933C887.804 92.6554 892.607 92.2405 894.217 93.4175C915.588 109.024 937.196 124.376 957.678 141.092C969.605 150.83 979.837 162.702 990.316 174.091C992.467 176.428 993.865 183.423 992.958 183.982C984.352 189.291 990.79 193.635 993.34 198.115C994.915 200.884 997.795 203.162 998.566 206.066C999.599 209.978 999.159 214.28 999.354 218.412C995.093 216.812 990.561 215.677 986.639 213.467C982.811 211.308 979.829 207.675 976.043 205.406C974.077 204.229 971.181 204.584 968.707 204.245C969.613 206.481 970.071 209.072 971.494 210.91C979.761 221.554 988.664 231.741 996.431 242.724C998.973 246.314 1000.59 255.332 999.532 255.883C993.458 259.016 991.222 270.625 980.93 265.087C979.092 264.097 976.559 264.385 974.34 264.08C975.238 266.281 975.907 268.61 977.068 270.659C979.778 275.418 983.048 279.872 985.504 284.75C989.062 291.821 986.716 294.801 976.974 294.056ZM917.672 221.537C905.601 209.386 893.556 197.209 881.401 185.142C880.579 184.329 878.927 184.363 877.657 183.999C877.877 185.362 877.614 187.191 878.402 188.004C888.685 198.674 899.019 209.309 909.633 219.649C911.31 221.283 914.444 221.435 916.901 222.274C926.667 232.994 930.14 252.233 951.351 247.567C952.359 247.347 953.672 249.066 954.934 249.235C956.645 249.464 958.432 249.066 960.186 248.939C959.085 246.39 958.026 241.648 956.865 241.623C940.415 241.267 930.327 228.938 917.672 221.537Z"
		fill="#ffffff15"
	/>

	<path
		d="M1065.34 1119.78C1066.95 1147.27 1068.14 1174.79 1070.35 1202.23C1071.33 1214.3 1074.05 1226.27 1076.61 1238.15C1077.41 1241.88 1080.14 1245.24 1082.21 1248.62C1085.78 1254.42 1088.3 1260.39 1081.96 1265.64C1077.72 1269.15 1073.22 1270.85 1070.78 1262.96C1068.27 1254.85 1064.92 1247 1061.82 1239.08C1061.36 1237.91 1060.16 1237.02 1059.31 1236C1058.83 1237.28 1057.94 1238.57 1057.96 1239.85C1058.03 1246.19 1059.19 1252.65 1058.3 1258.83C1057.57 1263.9 1055.44 1272.04 1052.3 1272.9C1042.27 1275.62 1037.46 1283.38 1030.75 1289.58C1023.4 1296.35 1016.89 1293.99 1013.79 1284.18C1012.15 1279 1010.9 1273.66 1010.02 1268.3C1009.04 1262.29 1012.8 1253.58 1000.82 1254.61C999.938 1254.68 997.693 1249.24 997.575 1246.29C996.423 1218.27 996.067 1190.22 994.449 1162.22C993.797 1150.94 990.544 1139.81 988.537 1128.61C987.105 1120.62 985.631 1112.62 984.488 1104.59C984.124 1102 984.005 1098.87 985.149 1096.71C986.233 1094.66 989.113 1093.53 991.197 1092C992.188 1093.85 993.534 1095.61 994.093 1097.58C996.194 1104.99 997.888 1112.53 1000.08 1119.91C1000.62 1121.71 1002.46 1123.12 1003.7 1124.71C1004.29 1123.17 1005.32 1121.66 1005.41 1120.09C1006.43 1103.99 1007.48 1087.87 1008.1 1071.75C1008.27 1067.08 1009.43 1064.96 1014.13 1062.76C1019.53 1060.24 1021.31 1060.62 1021.63 1066.22C1021.94 1071.6 1021.86 1077 1021.9 1082.39C1022.2 1124.19 1022.51 1165.99 1022.77 1207.79C1022.87 1224.37 1022.72 1240.96 1023 1257.53C1023.03 1259.45 1025.01 1261.34 1026.1 1263.24C1027.44 1261.66 1029.61 1260.26 1030 1258.48C1032.38 1247.58 1033.91 1236.48 1036.57 1225.65C1042.44 1201.75 1035.59 1177.95 1036.46 1154.07C1037.24 1132.86 1035.82 1111.58 1036.02 1090.34C1036.11 1081.85 1032.74 1072.1 1043.01 1065.84C1044.84 1064.72 1042.89 1058.51 1044.55 1055.77C1047.1 1051.57 1051.28 1048.35 1054.76 1044.72C1056.69 1047.97 1059.95 1051.07 1060.33 1054.49C1062.79 1076.18 1064.6 1097.93 1066.63 1119.66C1066.22 1119.69 1065.78 1119.74 1065.34 1119.78Z"
		fill="#ffffff15"
	/>

	<path
		d="M419.947 107.703C408.893 105.527 396.018 102.784 383.058 100.497C374.452 98.9815 365.668 98.4226 357.087 96.7799C354.376 96.2633 352.064 93.6383 349.573 91.9786C352.038 89.7684 354.173 86.2881 357.011 85.5599C371.749 81.7578 386.692 78.7009 401.532 75.2714C405.412 74.3738 409.384 73.4423 412.95 71.7657C415.932 70.3685 418.38 67.8535 421.065 65.8297C418.041 65.1184 415.051 64.1107 411.976 63.7466C383.896 60.4102 355.765 57.4126 327.745 53.6359C324.111 53.1448 321.002 48.8177 317.648 46.2688C320.714 44.2196 323.687 42.0179 326.872 40.1889C328.524 39.2404 330.565 38.9441 332.42 38.3513C331.116 37.2081 329.634 36.2174 328.549 34.8964C326.22 32.0427 324.102 29.0112 321.891 26.0559C325.17 24.6333 328.321 22.8635 331.709 21.8558C347.108 17.2662 362.389 11.9399 378.094 8.76445C388.428 6.68134 400.024 9.93302 409.986 7.07934C432.094 0.728407 454.406 1.66834 476.776 1.68528C479.809 1.68528 485.476 4.27646 485.4 5.38575C485.112 9.81447 483.07 14.1331 481.596 18.4771C481.503 18.7481 480.69 18.6888 480.351 18.9683C475.955 22.5248 471.592 26.1237 467.222 29.7056C472.778 30.2814 478.369 30.6032 483.866 31.5347C486.882 32.0427 490.634 32.7879 492.413 34.8456C494.87 37.6908 497.225 42.0349 496.826 45.4136C496.572 47.5729 491.49 49.9524 488.195 50.7991C481.639 52.4927 474.845 53.3988 468.103 54.271C461.8 55.0839 459.098 57.5481 464.452 62.6627C469.771 67.7434 472.219 71.935 463.927 76.1266C465.019 77.8033 466.146 80.9449 467.188 80.9195C475.116 80.6993 483.028 79.8441 490.956 79.2344C494.607 78.9549 499.08 77.3714 501.739 78.8957C506.068 81.3768 509.219 85.9156 512.87 89.5822C509.702 92.4612 506.949 97.0254 503.298 97.9146C491.82 100.701 480.055 102.614 468.297 103.91C452.991 105.578 437.6 106.357 419.947 107.703ZM428.994 45.964C432.179 44.9224 434.669 44.1095 437.159 43.2881C434.822 42.4498 432.518 41.0695 430.146 40.951C428.358 40.8663 426.487 42.399 424.648 43.2119C426.122 44.1434 427.596 45.0748 428.994 45.964Z"
		fill="#ffffff15"
	/>

	<path
		d="M232.51 708.831C246.3 706.689 260.099 704.606 273.855 702.286C275.083 702.082 276.04 700.33 277.124 699.288C275.905 698.831 274.685 697.959 273.474 697.967C250.984 698.187 228.495 698.492 206.005 698.848C203.769 698.882 201.507 699.254 199.322 699.737C198.009 700.025 196.865 701.142 195.552 701.363C187.751 702.692 168.591 682.318 171.377 675.104C172.394 672.487 176.265 669.879 179.247 669.278C202.541 664.57 225.996 660.641 249.273 655.882C263.25 653.028 276.938 648.743 290.906 645.796C304.925 642.833 317.572 638.082 327.533 627.031C330.794 623.416 336.232 619.055 341.264 625.888C345.584 631.765 343.915 636.736 338.35 640.775C336.503 642.113 334.072 642.9 332.7 644.577C331.074 646.567 330.303 649.243 329.159 651.622C331.48 652.469 333.776 653.951 336.122 654.044C346.236 654.442 351.844 659.099 353.487 669.362C353.936 672.191 357.426 674.748 359.908 676.992C366.676 683.089 365.896 690.27 363.33 698.424C358.086 715.089 344.754 716.173 331.218 720.839C298.547 732.101 264.181 736.259 231.383 746.742C226.386 748.343 217.5 754.567 215.213 742.915C212.816 730.746 224.31 738.113 228.283 734.574C229.232 733.727 231.527 734.388 233.204 734.354C232.256 732.626 231.358 730.873 230.35 729.18C228.308 725.733 225.581 722.549 224.268 718.857C221.498 711.05 224.225 707.502 232.51 708.831Z"
		fill="#ffffff15"
	/>

	<path
		d="M459.725 224.679C475.32 218.286 485.569 229.599 496.954 236.289C510.939 244.503 524.39 253.606 538.18 262.158C539.764 263.141 542.009 263.073 543.949 263.496C543.008 262.031 542.339 260.27 541.094 259.135C530.717 249.727 520.705 239.82 509.659 231.25C494.497 219.497 478.462 208.87 462.936 197.574C458.387 194.263 451.585 191.129 456.913 183.788C461.453 177.53 467.925 175.506 474.981 179.579C484.078 184.838 492.794 190.748 501.833 196.117C521.4 207.727 540.933 219.395 560.788 230.505C565.371 233.071 571.258 233.215 576.382 234.951C579.415 235.976 583.15 237.313 584.633 239.71C585.565 241.209 583.718 246.154 581.736 247.441C571.037 254.393 578.797 257.882 583.955 262.15C589.47 266.714 595.848 270.694 600.041 276.283C605.606 283.692 603.116 287.342 592.9 287.63C586.056 287.825 585.006 290.441 587.36 296.233C588.385 298.74 588.436 301.644 588.936 304.362C585.632 304.777 581.787 306.505 579.11 305.404C562.668 298.689 546.49 291.347 530.235 284.175C523.094 281.025 516.089 277.561 508.838 274.708C506.271 273.692 503.154 274.047 500.291 273.776C502.019 276.308 503.247 279.458 505.551 281.27C530.006 300.493 554.698 319.418 579.127 338.674C582.761 341.536 591.248 342.468 586.335 350.428C582.193 357.126 576.061 354.907 570.394 352.714C539.527 340.757 512.785 322.255 487.034 301.763C473.219 290.771 457.608 282.007 442.767 272.294C440.472 270.796 437.651 269.957 435.66 268.162C434.161 266.807 433.602 264.411 432.628 262.48C434.627 261.769 436.592 260.524 438.616 260.439C456.227 259.703 467.281 272.582 480.512 280.898C483.477 282.761 486.026 285.284 488.762 287.494C487.204 284.2 486.382 280.161 483.943 277.739C474.235 268.086 464.011 258.949 454.008 249.6C449.408 245.307 444.707 241.107 440.361 236.568C438.718 234.858 437.947 232.326 436.77 230.175C439.091 229.269 441.344 227.906 443.75 227.584C446.393 227.228 449.171 227.812 451.89 227.99C452.864 228.871 453.711 230.006 454.838 230.573C458.217 232.258 461.707 233.723 465.155 235.281C463.351 231.759 461.538 228.219 459.725 224.679Z"
		fill="#ffffff15"
	/>

	<path
		d="M740.695 313.143C740.695 299.052 740.246 284.936 740.839 270.863C741.322 259.38 743.084 258.711 754.579 261.336C755.849 261.624 758.111 259.338 759.322 257.78C761.779 254.63 764.405 248.075 765.938 248.363C772.375 249.574 777.644 253.283 777.212 261.378C776.806 269.11 776.704 276.858 776.678 284.597C776.611 308.265 778.025 332.043 776.136 355.559C774.95 370.284 774.442 384.73 775.959 399.304C776.196 401.59 778.288 403.682 779.525 405.858C780.262 403.817 781.346 401.836 781.676 399.736C783.345 389.032 784.649 378.278 786.394 367.591C790.214 344.144 787.013 320.205 791.578 296.774C792.595 291.55 792.205 285.673 790.926 280.465C789.401 274.224 790.596 269.931 797.008 269.482C803.624 269.025 805.233 274.521 805.216 279.872C805.174 293.142 805.047 306.428 804.42 319.68C803.547 338.081 802.607 356.49 800.913 374.823C799.507 390.006 797.237 405.121 794.746 420.169C794.102 424.039 792.07 428.586 789.156 430.991C781.286 437.477 770.249 440.813 770.232 454.083C770.232 455.649 763.939 459.07 761.567 458.342C757.806 457.19 752.681 453.702 752.046 450.441C750.216 441.051 747.938 433.506 737.205 430.601C734.63 429.898 732.826 424.343 731.725 420.702C730.166 415.545 729.582 410.092 728.591 404.766C724.296 381.767 711.802 362.782 698.935 343.924C695.86 339.419 693.59 334.329 691.363 329.333C690.592 327.614 691.075 325.345 690.981 323.321C693.472 323.347 697.114 322.33 698.249 323.584C702.772 328.563 706.356 334.389 710.659 339.597C711.87 341.061 714.36 341.468 716.266 342.357C716.664 340.672 717.452 338.978 717.393 337.31C717.198 332.289 716.52 327.293 716.309 322.28C715.851 311.348 715.063 300.382 715.512 289.483C715.656 285.961 719.222 282.582 721.23 279.136C724.491 282.506 729.955 285.512 730.607 289.331C732.521 300.458 732.521 311.915 733.233 323.245C733.258 323.651 732.657 324.151 732.75 324.498C734.402 330.722 736.121 336.929 737.824 343.145C738.789 337.268 740.069 331.425 740.619 325.514C740.992 321.441 740.357 317.275 740.17 313.16C740.348 313.143 740.517 313.143 740.695 313.143Z"
		fill="#ffffff15"
	/>

	<path
		d="M322.798 324.126C333.098 326.048 337.469 331.722 338.079 343.899C338.621 354.738 338.892 365.61 339.925 376.407C340.222 379.532 342.738 382.453 344.237 385.468C345.084 382.589 346.626 379.726 346.668 376.839C346.871 362.257 346.956 347.667 346.566 333.085C346.202 319.553 345.143 306.039 344.474 292.507C344.144 285.809 346.736 282.405 354.19 282.71C364.541 283.133 369.801 286.74 369.844 295.623C369.903 306.487 368.81 317.369 369.158 328.216C369.75 346.922 373.401 365.831 371.529 384.231C368.751 411.54 376.459 436.224 383.998 461.442C387.42 472.882 386.412 473.373 374.951 475.236C365.608 476.752 356.155 478.174 347.134 480.901C339.087 483.331 331.963 483.34 325.305 478.149C323.332 476.616 321.832 474.398 320.358 472.323C319.113 470.57 318.41 467.09 317.131 466.92C308.559 465.769 309.245 460.392 308.203 453.533C305.857 438.163 300.868 423.209 297.386 407.992C294.328 394.63 292.007 381.098 289.034 367.719C288.06 363.341 285.942 359.234 284.536 354.941C281.377 345.279 284.265 340.401 294.447 341.062C302.18 341.57 306.043 337.937 310.541 332.95C313.819 329.283 318.647 327.014 322.798 324.126ZM351.462 408.763C349.819 406.316 348.481 404.317 347.142 402.327C346.278 403.682 344.449 405.316 344.737 406.341C345.397 408.653 347.117 410.66 348.405 412.794C349.302 411.608 350.192 410.423 351.462 408.763Z"
		fill="#ffffff15"
	/>

	<path
		d="M1225.38 1078.11C1231.8 1071.02 1237.3 1065.55 1242.13 1059.54C1268.73 1026.43 1295.12 993.159 1321.72 960.049C1323.96 957.255 1326.88 954.105 1330.06 953.233C1332.78 952.487 1337.07 953.995 1339.24 956.027C1340.51 957.212 1340.04 962.209 1338.56 964.063C1319.41 988.112 1299.21 1011.37 1280.8 1035.96C1269.1 1051.57 1260.12 1069.2 1249.47 1085.63C1245.4 1091.9 1240.55 1098.15 1231.12 1093.36C1229.8 1092.69 1226.65 1094.25 1225.1 1095.61C1217.93 1101.88 1211.24 1108.69 1203.91 1114.76C1201.85 1116.46 1198.23 1116.28 1195.31 1116.97C1194.53 1113.66 1192.99 1110.3 1193.2 1107.05C1193.38 1104.02 1196.64 1100.9 1196.22 1098.19C1195.91 1096.2 1210.01 1084.99 1192.46 1090.88C1186.16 1092.99 1186.96 1086.21 1188.58 1082.52C1192.6 1073.32 1197.39 1064.46 1201.49 1055.29C1202.92 1052.09 1207.96 1045.56 1197.47 1048.64C1196.86 1048.82 1193.21 1043.7 1193.75 1041.84C1195.91 1034.4 1198.29 1026.76 1202.17 1020.11C1212.3 1002.77 1222.78 985.58 1234.17 969.051C1238 963.496 1241 952.013 1252.67 959.617C1252.97 959.812 1255.5 956.958 1256.72 955.333C1261.11 949.524 1265.11 943.384 1269.9 937.939C1271.18 936.491 1274.78 937.067 1277.3 936.72C1277.67 939.472 1278.49 942.267 1278.24 944.959C1278.1 946.526 1276.27 947.949 1275.17 949.422C1264.74 963.631 1254.25 977.798 1243.93 992.092C1242.82 993.641 1242.7 995.911 1242.12 997.841C1244.08 996.791 1246.71 996.224 1247.9 994.607C1261.96 975.461 1275.76 956.129 1289.75 936.932C1292.72 932.859 1296 928.989 1299.45 925.314C1302.8 921.749 1306.36 916.27 1310.45 925.001C1310.84 925.83 1314.22 925.78 1316.04 925.356C1326.11 923.019 1324.79 929.641 1322.5 934.62C1319.69 940.734 1315.26 946.136 1311.32 951.691C1298.23 970.134 1285.2 988.62 1271.87 1006.89C1257.95 1025.95 1243.66 1044.76 1229.65 1063.76C1227.53 1066.65 1225.86 1069.93 1224.36 1073.21C1223.93 1074.16 1224.83 1075.71 1225.38 1078.11ZM1243.04 975.969C1242.09 974.589 1241.62 973.412 1241.23 973.437C1240.43 973.488 1239.32 973.996 1238.94 974.656C1236.15 979.669 1233.46 984.75 1230.86 989.865C1230.54 990.483 1230.96 991.474 1231.03 992.287C1231.69 991.922 1232.61 991.719 1232.99 991.16C1236.46 986.037 1239.83 980.846 1243.04 975.969Z"
		fill="#ffffff15"
	/>

	<path
		d="M70.0013 128.916C107.535 131.397 145.059 134.03 182.618 136.223C189.327 136.613 196.222 134.284 202.897 134.835C210.376 135.444 217.779 137.621 225.03 139.746C226.691 140.229 227.597 143.269 228.851 145.132C226.691 146.368 224.624 148.459 222.362 148.688C214.722 149.476 207.013 149.645 199.322 149.967C179.806 150.788 160.289 151.525 140.773 152.439C139.079 152.516 137.436 153.693 135.776 154.353C137.385 155.073 138.935 156.191 140.621 156.436C164.245 159.984 187.887 163.422 211.528 166.86C214.679 167.318 218.584 166.64 220.837 168.283C223.506 170.222 224.751 174.109 226.614 177.149C223.929 178.394 221.337 180.358 218.542 180.705C214.035 181.273 209.224 180.019 204.853 180.959C200.881 181.806 187.251 177.496 198.255 190.096C198.805 190.723 195.798 195.431 193.587 197.091C192.274 198.081 189.132 196.235 187.04 196.693C183.524 197.463 180.195 199.047 176.79 200.292C179.772 201.756 182.618 204.034 185.761 204.542C196.137 206.211 206.674 206.939 217.042 208.649C221.447 209.378 225.716 211.401 229.765 213.4C230.85 213.933 231.51 216.643 231.214 218.116C231.036 218.997 228.571 220.073 227.216 219.962C210.562 218.692 193.935 216.948 177.265 215.932C170.065 215.491 162.763 216.906 155.52 216.711C120.342 215.779 85.6549 210.97 51.4167 202.917C49.2059 202.4 46.6478 202.459 44.8351 201.333C41.684 199.377 38.9819 196.701 36.0934 194.33C40.4388 191.57 44.6148 186.878 49.172 186.48C56.5753 185.828 64.1989 188.597 71.7716 188.834C88.662 189.368 105.578 189.275 122.485 189.249C123.773 189.249 125.052 187.742 126.331 186.938C125.348 186.108 124.476 184.744 123.366 184.516C106.501 181.044 89.5853 177.792 72.7203 174.329C61.141 171.941 49.6294 169.358 38.1433 166.699C37.2115 166.488 35.8817 164.828 36.0087 164.04C36.1866 162.973 37.5165 161.348 38.4652 161.271C45.5974 160.679 52.8652 159.425 59.8874 160.204C86.4173 163.143 112.854 166.818 139.35 170.078C141.485 170.341 143.746 169.519 145.957 169.206C144.128 168.19 142.416 166.682 140.451 166.234C124.162 162.516 107.899 158.587 91.4742 155.522C76.8624 152.795 62.0135 151.356 47.3678 148.747C43.7763 148.104 37.5419 144.691 37.7452 143.328C38.7278 136.698 40.7014 129.364 49.333 128.662C56.1772 128.103 63.1062 128.551 70.0013 128.551C70.0013 128.67 70.0013 128.789 70.0013 128.916Z"
		fill="#ffffff15"
	/>

	<path
		d="M203.269 464.016C197.907 464.769 206.2 481.544 191.893 472.407C191.529 472.179 188.403 474.643 188.539 475.557C189.064 479.072 189.877 482.747 191.529 485.863C196.882 495.965 193.045 505.737 190.614 515.45C190.335 516.576 185.125 518.007 183.727 517.059C179.323 514.061 173.876 510.674 172.131 506.169C169.886 500.368 167.023 499.471 162.034 500.428C160.696 500.682 159.4 501.164 158.087 501.537C159.061 502.807 159.883 504.238 161.035 505.314C168.734 512.46 176.688 519.353 184.117 526.771C185.599 528.253 185.201 531.615 185.667 534.113C182.559 534.519 179.077 535.967 176.434 535.044C173.698 534.079 171.623 530.937 169.514 528.524C153.31 509.971 137.317 491.316 125.255 469.596C108.813 439.992 91.7875 410.71 75.0242 381.293C73.8976 379.32 72.1781 377.406 71.8731 375.297C71.3903 372.003 71.8816 368.565 71.9578 365.195C75.0157 366.55 79.2002 367.075 80.9367 369.412C87.6454 378.414 93.6765 387.923 99.7245 397.39C101.893 400.794 103.138 404.774 105.298 408.187C106.408 409.94 108.585 411.023 110.287 412.412C110.321 410.075 111.033 407.484 110.27 405.443C103.443 387.161 96.3108 368.98 89.3649 350.74C88.0689 347.336 86.2393 343.729 86.4426 340.316C86.5781 337.954 89.6275 335.591 91.796 333.72C92.084 333.466 95.0317 335.972 96.4633 337.471C97.2934 338.335 97.8186 340.799 98.0727 340.74C112.837 337.336 107.67 348.666 109.754 355.466C112.363 364.001 116.7 372.037 120.486 380.192C127.644 395.629 134.962 410.99 142.145 426.41C142.696 427.595 142.238 429.653 143.052 430.263C158.485 442.016 158.206 462.881 170.158 476.582C172.046 478.75 174.3 480.596 176.383 482.594C176.341 479.58 177.061 476.303 176.129 473.584C165.033 441.017 159.561 406.739 144 375.424C135.335 357.989 130.498 338.648 124.188 320.078C123.188 317.14 122.849 313.592 123.518 310.619C124.027 308.367 126.619 306.58 128.287 304.59C129.863 305.996 131.87 307.131 132.938 308.85C136.309 314.261 139.629 319.739 142.408 325.464C148.922 338.885 155.393 352.349 161.357 366.025C167.464 380.022 172.419 394.528 178.899 408.339C182.609 416.257 189.487 422.735 192.91 430.728C197.323 441.025 199.711 452.22 203.269 464.016Z"
		fill="#ffffff15"
	/>

	<path
		d="M1038.97 1.49894C1042.19 1.49894 1045.45 1.83765 1048.62 1.43966C1058.17 0.228751 1062.65 3.81068 1066.47 13.3286C1077.45 40.6884 1090.38 67.2692 1102.36 94.231C1105.87 102.148 1108.66 110.396 1112.09 118.356C1112.84 120.109 1114.91 121.303 1116.37 122.751C1116.7 120.507 1117.53 118.212 1117.3 116.027C1113.61 81.6815 1096.79 51.7475 1084.63 20.2638C1077.27 1.21103 1076.78 1.39732 1096.58 1.49894C1108.97 1.56668 1115.86 8.91682 1121.48 24.9889C1127.84 43.178 1135.5 60.715 1148.21 75.9234C1153.93 82.7739 1156.9 92.0801 1160.26 100.599C1161.16 102.868 1158.91 106.382 1158.11 109.321C1154.98 108.084 1151.09 107.619 1148.87 105.451C1144.82 101.488 1144.39 101.429 1139.17 105.857C1130.08 113.563 1129.64 120.219 1133.36 129.906C1134.49 132.845 1132.87 136.952 1132.16 140.457C1130.43 148.976 1125.07 151.542 1118.64 145.716C1113.14 140.737 1108.54 140.635 1101.53 141.279C1096.24 141.761 1087.91 137.299 1085.15 132.582C1066.99 101.547 1050.13 69.7672 1032.47 38.4359C1028.48 31.3652 1022.54 25.4123 1018.38 18.4178C1016.02 14.4294 1015.45 9.37409 1014.07 4.80142C1018.23 3.726 1022.34 2.25258 1026.58 1.6937C1030.64 1.16022 1034.84 1.57515 1038.98 1.57515C1038.97 1.55821 1038.97 1.52434 1038.97 1.49894Z"
		fill="#ffffff15"
	/>

	<path
		d="M394.137 1188.45C392.935 1202.45 391.664 1216.45 390.554 1230.45C390.232 1234.49 390.859 1238.66 390.156 1242.61C389.563 1245.96 387.496 1251.88 386.387 1251.81C381 1251.47 373.393 1253.21 372.775 1244.19C372.427 1239.16 372.283 1234.08 372.529 1229.04C372.825 1222.82 375.062 1216.01 364.185 1216.98C362.822 1217.1 359.518 1210.65 359.416 1207.17C359.095 1196.24 359.891 1185.3 360.221 1174.35C360.314 1171.2 360.594 1168.01 360.187 1164.91C359.975 1163.3 358.476 1161.84 357.561 1160.31C356.824 1161.76 355.842 1163.13 355.393 1164.67C350.327 1181.92 345.126 1199.15 340.476 1216.52C339.07 1221.77 338.054 1226.83 331.404 1226.16C324.255 1225.45 322.586 1219.85 323.408 1213.97C324.484 1206.29 326.991 1198.8 328.033 1191.11C329.303 1181.71 329.71 1172.2 330.455 1162.74C330.633 1160.45 329.956 1157.74 330.964 1155.94C344.118 1132.26 343.161 1105.06 350.37 1079.93C352.496 1072.51 355.495 1065.28 358.773 1058.28C359.925 1055.82 363.355 1052.54 365.295 1052.81C367.768 1053.16 370.623 1056.35 371.809 1059C373.656 1063.08 374.867 1067.68 375.231 1072.16C376.383 1086.26 376.993 1100.4 377.874 1114.54C377.942 1115.64 378.424 1116.71 378.721 1117.79C379.263 1116.78 380.11 1115.83 380.296 1114.77C382.304 1103.19 383.668 1091.47 386.446 1080.09C387.42 1076.08 391.783 1072.88 394.603 1069.32C397.314 1073.15 402.735 1077.41 402.218 1080.75C400.702 1090.51 408.741 1096.3 409.977 1104.34C413.196 1125.31 415.56 1146.4 418.177 1167.45C418.338 1168.75 417.965 1170.24 417.44 1171.48C414.814 1177.6 412.053 1183.66 409.342 1189.74C406.962 1183.8 404.599 1177.84 402.201 1171.91C401.083 1169.14 399.906 1166.39 398.754 1163.64C397.288 1166.21 395.044 1168.62 394.519 1171.37C393.443 1176.93 393.299 1182.68 392.765 1188.34C393.214 1188.38 393.672 1188.41 394.137 1188.45Z"
		fill="#ffffff15"
	/>

	<path
		d="M42.3107 1046.9C48.3672 1049 53.0599 1049.83 56.8971 1052.09C91.1099 1072.21 125.111 1092.68 159.341 1112.77C165.211 1116.21 171.928 1118.2 178.196 1120.97C181.39 1122.39 184.464 1124.05 187.59 1125.61C185.007 1129.62 183.287 1134.94 179.636 1137.33C173.902 1141.11 171.742 1146.55 175.985 1152.74C179.145 1157.35 180.271 1161.98 175.774 1166.37C171.496 1170.54 167.752 1172.38 161.628 1167.7C145.415 1155.33 128.448 1143.95 111.77 1132.2C109.906 1130.89 108.11 1129.31 106.035 1128.49C104.129 1127.74 101.884 1127.83 99.7922 1127.55C100.936 1129.7 101.596 1132.4 103.299 1133.91C113.218 1142.66 123.408 1151.09 133.446 1159.7C137.046 1162.78 143.238 1165.09 138.113 1171.49C134.412 1176.12 130.168 1178.92 123.883 1175.24C102.588 1162.8 81.123 1150.65 59.8618 1138.17C56.8632 1136.41 53.8646 1133.82 52.1705 1130.87C48.5197 1124.5 50.3747 1120.2 58.3286 1120.41C62.4369 1120.52 66.1301 1120.11 61.4204 1115.89C51.6707 1107.15 41.0571 1099.38 31.121 1090.84C28.3257 1088.43 24.5394 1084.34 25.0307 1081.74C25.5813 1078.8 30.2401 1074.91 33.4674 1074.53C42.531 1073.5 39.6255 1071.43 35.3309 1067.24C32.705 1064.67 29.0966 1058.92 30.0368 1057.66C33.3658 1053.2 38.4651 1050.06 42.3107 1046.9Z"
		fill="#ffffff15"
	/>

	<path
		d="M1338.11 1202.15C1333.6 1208.56 1331.49 1213.5 1327.78 1216.46C1316.75 1225.27 1305.09 1233.33 1293.64 1241.63C1292.55 1242.43 1290.89 1242.58 1290.01 1243.52C1284.14 1249.88 1278.4 1256.37 1272.62 1262.82C1279.25 1258.97 1286.02 1255.32 1292.46 1251.2C1304.4 1243.56 1315.92 1235.26 1328.06 1227.97C1336.15 1223.11 1344.95 1219.34 1353.65 1215.57C1354.76 1215.09 1358.85 1218.02 1358.7 1218.49C1355.39 1229.05 1355.47 1240.77 1344.27 1248.16C1315.23 1267.34 1287.92 1288.65 1262.92 1313.14C1252.11 1323.71 1237.46 1330.55 1224.13 1338.34C1216.68 1342.69 1213.12 1339.47 1210.99 1329.34C1209.77 1323.53 1211.79 1312 1199.18 1320.15C1185.36 1311.09 1182.26 1329.06 1172.65 1330.66C1168.99 1331.26 1165.37 1332.11 1161.73 1332.85C1163.41 1329.15 1164.57 1325.08 1166.91 1321.85C1169.77 1317.89 1173.6 1314.64 1177.01 1311.09C1172.21 1312.35 1167.39 1313.49 1162.64 1314.88C1159.6 1315.77 1156.67 1317.06 1153.66 1318.08C1150.72 1319.08 1147.75 1319.97 1144.79 1320.9C1146.5 1317.74 1147.4 1313.25 1150.05 1311.68C1159.74 1305.92 1169.56 1299.82 1180.14 1296.28C1198.28 1290.19 1213.81 1280.69 1227.61 1267.65C1247.3 1249.07 1269.02 1233.27 1293.39 1221.15C1305.22 1215.26 1316.54 1208.37 1328.28 1202.31C1330.29 1201.26 1333.29 1202.15 1338.11 1202.15Z"
		fill="#ffffff15"
	/>

	<path
		d="M719.748 680.879C718.68 677.907 717.486 674.977 716.571 671.962C715.419 668.177 713.208 664.138 713.742 660.548C714.928 652.478 711.158 653.562 706.474 655.746C702.298 657.694 697.919 661.386 697.309 652.791C695.683 653.443 693.802 653.773 692.464 654.806C686.721 659.235 681.41 664.265 675.379 668.22C672.981 669.795 669.119 669.134 665.925 669.49C667.103 666.34 667.687 662.758 669.619 660.167C671.745 657.304 675.285 655.526 677.852 652.918C679.233 651.512 679.843 649.353 680.8 647.541C678.572 647.634 676.065 647.101 674.167 647.947C667.636 650.835 661.343 654.247 654.922 657.372C653.372 658.126 651.669 658.583 650.043 659.176C650.348 657.118 649.907 654.341 651.085 653.13C654.837 649.294 658.691 645.026 663.401 642.748C676.59 636.363 690.761 631.875 703.501 624.762C714.479 618.64 724.737 610.731 734.054 602.246C762.414 576.427 795.187 557.646 829.281 540.837C832.144 539.423 835.854 539.736 839.175 539.253C838.167 542.607 838.175 547.069 835.956 549.101C828.561 555.867 820.234 561.609 812.492 568.01C801.336 577.223 790.333 586.623 779.389 596.081C778.313 597.013 778.068 598.901 777.432 600.349C778.932 599.672 780.558 599.189 781.913 598.292C797.914 587.681 813.653 576.656 829.933 566.495C838.395 561.211 847.755 557.341 856.81 553.031C858.301 552.319 860.275 552.624 862.02 552.463C861.918 554.512 861.613 556.57 861.749 558.602C863.121 579.171 846.375 586.047 833.432 595.514C811.12 611.823 789.452 628.666 769.351 647.863C757.12 659.548 740.695 666.848 726.134 676.095C725.381 676.577 724.457 676.781 723.61 677.119C722.289 678.373 721.018 679.626 719.748 680.879Z"
		fill="#ffffff15"
	/>

	<path
		d="M292.007 1388C282.3 1383.79 272.906 1379.18 263.131 1375.59C237.66 1366.26 212.019 1357.4 186.464 1348.31C182.626 1346.95 178.747 1345.6 175.079 1343.85C165.643 1339.33 156.401 1334.4 146.914 1330C134.183 1324.11 133.582 1319.66 143.535 1310.25C147.338 1306.65 157.231 1301.83 144.576 1296.22C143.45 1295.72 141.773 1293.74 142.001 1293.28C148.109 1281.13 137.58 1285.56 132.887 1283.79C127.805 1281.89 122.782 1279.58 118.216 1276.68C116.429 1275.55 115.963 1272.33 114.895 1270.07C117.267 1269.24 119.893 1267.32 121.977 1267.79C128.152 1269.16 134.09 1271.57 140.189 1273.35C141.332 1273.68 142.764 1273.01 144.068 1272.81C143.246 1271.87 142.577 1270.72 141.586 1270.02C133.844 1264.6 125.983 1259.34 118.309 1253.83C117.098 1252.95 116.632 1251.07 115.819 1249.64C117.106 1249.25 118.546 1248.29 119.656 1248.58C124.882 1249.99 130.651 1250.76 135.064 1253.57C145.991 1260.55 156.74 1267.96 166.71 1276.22C178.442 1285.94 192.495 1290.17 206.446 1294.13C243.903 1304.78 276.616 1324.69 309.296 1344.77C311.812 1346.31 313.446 1349.28 315.496 1351.57C312.184 1352.52 308.457 1354.96 305.645 1354.16C295.565 1351.32 285.764 1347.46 275.922 1343.82C265.672 1340.03 255.55 1335.88 245.25 1332.24C242.861 1331.39 239.964 1331.99 237.296 1331.93C239.235 1333.42 241.006 1335.28 243.157 1336.37C258.218 1344.03 273.516 1351.26 288.424 1359.22C296.819 1363.7 304.662 1369.22 312.599 1374.5C313.921 1375.38 314.429 1377.47 315.31 1378.99C313.895 1379.8 312.557 1380.84 311.049 1381.39C304.976 1383.58 298.868 1385.63 292.007 1388Z"
		fill="#ffffff15"
	/>

	<path
		d="M24.6072 844.191C24.6072 831.38 24.7851 818.568 24.5394 805.764C24.4039 798.617 25.7592 793.655 34.5686 795.823C40.0321 797.161 42.099 794.883 42.2091 789.463C42.2853 785.848 43.2425 782.232 44.0133 778.658C45.4025 772.24 50.2477 769.369 55.0251 773.256C61.4374 778.464 62.9282 773.73 64.58 769.936C67.2906 763.704 68.7136 756.904 71.5851 750.774C72.8896 747.988 76.3541 746.201 78.8445 743.965C80.852 746.607 84.2148 749.046 84.6553 751.925C87.6962 771.799 89.9325 791.64 84.2995 811.658C81.1908 822.691 80.1489 834.309 78.0821 845.648C77.3282 849.763 76.8454 854.09 75.1513 857.816C74.2619 859.772 69.0355 860.932 69.1795 861.991C69.6369 865.344 72.932 868.554 72.7626 871.687C72.6101 874.473 68.6628 876.844 67.4854 879.824C62.8774 891.493 58.3879 903.221 54.5084 915.144C52.8821 920.157 52.4416 923.409 45.8853 919.81C39.3121 916.211 35.1446 918.133 34.9921 926.923C34.9328 930.361 31.4853 936.424 29.1813 936.619C22.7945 937.169 16.7464 935.01 15.3657 926.737C10.5375 897.87 4.76901 869.138 0.686177 840.169C-0.863944 829.169 0.593 817.594 1.89747 806.416C2.321 802.809 6.6156 799.65 9.13984 796.28C10.7238 800.446 13.3667 804.519 13.7224 808.779C15.7977 833.31 17.2547 857.893 19.1775 882.441C19.3639 884.863 21.3375 887.149 22.481 889.503C23.074 887.208 24.1413 884.914 24.1667 882.61C24.3361 869.807 24.2429 856.995 24.2429 844.191C24.3615 844.183 24.4886 844.191 24.6072 844.191Z"
		fill="#ffffff15"
	/>

	<path
		d="M232.772 1018C228.317 1015.53 222.887 1013.96 219.567 1010.43C203.998 993.895 188.962 976.858 173.842 959.905C161.585 946.161 149.405 932.359 137.368 918.421C135.055 915.745 132.904 912.518 131.998 909.182C131.455 907.184 132.989 904.067 134.547 902.306C135.174 901.603 138.91 902.619 140.341 903.864C144.839 907.785 147.821 915.152 155.851 908.835C156.452 908.361 160.399 911.324 162.17 913.255C178.052 930.547 193.757 947.99 209.622 965.282C210.986 966.772 213.154 967.526 214.942 968.618C214.705 966.357 215.035 963.842 214.137 961.886C204.413 940.894 189.665 923.493 174.766 906.032C168.862 899.114 166.066 889.579 161.738 881.297C160.298 878.537 158.671 875.835 156.816 873.337C150.108 864.302 142.755 855.69 136.783 846.215C134.937 843.285 136.707 838.086 136.817 833.919C140.832 835.046 147.033 834.935 148.49 837.501C154.733 848.509 166.947 853.472 173.664 863.396C182.355 876.225 194.909 885.76 201.922 900.265C206.268 909.25 216.111 915.457 222.879 923.425C237.033 940.098 250.722 957.17 264.791 973.919C266.612 976.095 269.577 977.315 272.008 978.975C271.923 976.527 271.491 974.021 271.915 971.667C272.11 970.574 274.727 968.805 274.998 969.016C283.232 975.13 292.482 980.744 295.057 991.465C296.09 995.775 295.878 1002.1 293.371 1005.15C289.458 1009.89 282.673 1009.26 277.523 1005.86C272.516 1002.57 268.611 997.57 263.504 994.505C256.422 990.254 248.714 987.036 241.167 983.598C240.303 983.208 238.778 984.267 237.558 984.656C237.99 985.867 238.253 987.18 238.888 988.272C241.116 992.117 244.267 995.614 245.639 999.721C250.154 1013.16 247.579 1016.45 232.772 1018Z"
		fill="#ffffff15"
	/>

	<path
		d="M659.581 1.38915C666.417 0.29679 671.728 2.26134 675.921 12.3974C682.68 28.732 692.879 43.6609 701.739 59.1233C702.552 60.5375 704.212 61.469 705.483 62.6291C705.534 60.6476 706.288 58.3358 705.525 56.7439C698.436 41.9504 691.058 27.2925 683.824 12.5668C682.291 9.4506 681.028 6.19892 679.639 3.00652C684.061 2.76095 690.177 0.576231 692.548 2.65934C697.673 7.14733 699.757 4.66623 704.34 2.32909C706.94 0.999626 714.386 4.40373 716.486 7.68927C724.042 19.5105 730.234 32.2039 736.985 44.5416C738.518 47.336 739.975 50.249 742 52.6708C743.22 54.1273 745.464 54.737 747.243 55.7192C747.48 53.9833 748.285 52.0865 747.853 50.5284C745.32 41.3323 742.567 32.1954 739.747 23.0755C738.544 19.1887 736.604 15.4882 735.791 11.5337C735.139 8.37517 735.681 4.97108 735.689 1.67706C741.187 2.29522 748.09 -1.35445 751.207 6.57151C752.868 10.7885 754.375 15.0733 755.748 19.3919C757.535 25.0061 758.738 30.8236 760.872 36.2939C763.939 44.1606 767.691 51.1296 764.083 60.5714C762.101 65.7622 766.124 72.9599 766.099 79.2516C766.073 86.1698 771.037 96.7801 756.485 96.018C754.96 95.9418 753.486 99.2274 751.631 100.371C748.937 102.022 745.524 104.765 743.093 104.198C735.418 102.386 732.725 104.342 733.995 112.217C734.478 115.198 720.645 131.897 718.096 130.999C712.793 129.136 706.076 126.79 703.476 122.506C685.526 92.8426 668.39 62.6883 651.254 32.5426C648.798 28.224 647.612 23.1517 646.079 18.3504C641.2 2.88797 641.242 2.8795 659.581 1.38915ZM655.981 15.2935C661.843 28.4949 668.195 43.9404 675.523 58.9201C679.876 67.8284 685.662 76.0592 691.066 84.4255C691.862 85.6533 694.09 85.9666 695.657 86.7033C695.674 85.1283 696.242 83.2823 695.632 82.0121C684.247 58.5052 672.753 35.0491 661.156 11.6353C660.513 10.3313 658.835 9.54375 657.633 8.51066C657.319 9.79778 657.006 11.0849 655.981 15.2935ZM706.855 19.5698C707.66 24.7775 707.364 28.9691 708.973 32.2293C714.148 42.721 719.968 52.9079 725.702 63.1202C726.693 64.8815 728.472 66.194 729.887 67.7098C730.387 65.3727 732.055 62.4428 731.217 60.7831C724.872 48.2421 718.062 35.9213 711.285 23.6005C710.659 22.4658 709.295 21.746 706.855 19.5698Z"
		fill="#ffffff15"
	/>

	<path
		d="M1130.5 400.04C1144.07 400.887 1153.28 406.01 1161.31 415.232C1166.59 421.295 1173.16 426.299 1179.48 431.372C1183.06 434.242 1186.16 439.84 1192.36 435.453C1193.14 434.903 1195.19 435.411 1196.23 436.08C1217.61 450.086 1242.07 459.925 1258.06 481.214C1259.81 483.542 1262.02 487.819 1261.06 489.326C1259.71 491.468 1255.62 491.943 1252.67 492.993C1251.85 493.281 1250.76 493.348 1249.95 493.077C1243.7 490.994 1237.26 486.676 1231.31 487.285C1226.07 487.819 1221.82 494.915 1216.33 497.083C1211.65 498.929 1208.49 499.132 1212.34 504.763C1213.52 506.49 1212.83 509.522 1214.05 511.182C1218.27 516.94 1220.61 521.775 1213.28 527.355C1205.9 532.97 1197.74 533.274 1191.77 528.084C1176.9 515.119 1158.66 505.999 1147.71 488.284C1144.17 482.56 1135.54 480.181 1130.06 475.354C1127.12 472.78 1126.27 467.987 1123.82 464.684C1120.69 460.467 1116.58 456.97 1113.47 452.736C1110.55 448.765 1103.43 443.777 1110 439.594C1113.31 437.485 1121.08 441.821 1126.57 443.921C1128.36 444.607 1129.06 447.732 1130.72 449.239C1136.59 454.616 1142.58 459.875 1148.68 464.989C1155.93 471.069 1163.2 477.158 1170.77 482.831C1173.2 484.652 1176.61 485.168 1179.57 486.278C1178.57 483.712 1177.81 481.011 1176.52 478.597C1163.42 454.142 1142.63 436.046 1124.42 415.799C1121.91 413.013 1120.53 409.22 1118.63 405.892C1122.58 403.927 1126.54 401.98 1130.5 400.04Z"
		fill="#ffffff15"
	/>

	<path
		d="M1355.43 1.49908C1361.41 1.49908 1367.43 1.84626 1373.38 1.4144C1381.82 0.804711 1384.8 4.17494 1380.87 11.669C1371.54 29.4686 1373.76 48.8685 1372.33 67.7774C1371.78 75.0598 1371.39 82.3761 1370.45 89.6161C1370.22 91.352 1368.11 94.138 1366.86 94.1465C1365.04 94.1549 1361.79 92.2496 1361.62 90.8609C1360.93 85.1366 1361.53 79.2514 1360.92 73.5102C1360.62 70.6819 1358.69 68.023 1357.51 65.2963C1355.52 67.1 1352.98 68.5734 1351.61 70.7666C1343.9 83.172 1336.43 95.7384 1328.96 108.296C1326.26 112.844 1322.84 118.195 1317.42 113.868C1312.87 110.244 1312.01 104.858 1316.31 98.3635C1324.4 86.1273 1330.94 72.8412 1337.78 59.8091C1338.94 57.5905 1338.34 54.4404 1338.55 51.7307C1336.2 53.6614 1333.21 55.1687 1331.59 57.582C1323.96 68.946 1316.8 80.6147 1309.29 92.0633C1305.07 98.5074 1300.82 104.968 1296.02 110.981C1289.4 119.271 1286.06 119.364 1280.1 110.549C1276.68 105.485 1275.13 108.5 1273.3 110.871C1270.02 115.113 1266.14 117.45 1261.8 113.284C1257.58 109.228 1255.9 104.274 1260.21 98.609C1272.27 82.7571 1284.83 67.21 1295.71 50.5706C1304.47 37.1913 1312.9 23.7951 1322.77 11.0763C1328.84 3.25194 1334.23 0.652289 1343.01 1.43134C1347.11 1.79546 1351.29 1.49908 1355.43 1.49908Z"
		fill="#ffffff15"
	/>

	<path
		d="M1304.9 0C1309.11 1.82907 1311.38 2.81981 1313.65 3.80209C1312.5 5.6989 1311.8 8.51871 1310.12 9.3401C1302.95 12.8458 1301.17 20.0435 1297.19 25.8864C1290.1 36.2934 1281.44 45.6251 1273.73 55.6342C1268.76 62.0952 1264.72 69.3098 1259.43 75.4575C1257.22 78.0233 1252.12 80.6992 1249.56 79.81C1244.37 78.0064 1244.35 72.6038 1247.25 68.4207C1256.41 55.27 1265.89 42.3311 1275.33 29.3836C1280.51 22.2621 1285.34 14.768 1291.36 8.4171C1295.04 4.54727 1300.66 2.54037 1304.9 0Z"
		fill="#ffffff15"
	/>

</svg>
