<svg
	width="1181"
	height="1315"
	viewBox="0 0 1181 1315"
	fill="none"
	xmlns="http://www.w3.org/2000/svg"
>
	<path
		d="M330.67 1314.01C329.189 1308.52 336.666 1308.55 336.814 1304.06C346.498 1298.83 348.276 1287.39 355.543 1280.27C354.272 1273.32 362.841 1266.84 356.502 1259.52C355.964 1258.9 357.352 1256.76 357.609 1255.28C357.858 1253.86 358.443 1251.81 357.757 1251.04C352.923 1245.61 353.773 1238.28 351.348 1232.06C350.061 1228.75 350.217 1225.14 347.255 1222.2C346.023 1220.99 346.639 1217.79 346.654 1215.5C346.662 1214.6 347.309 1213.7 347.668 1212.8C340.97 1211.35 341.867 1204.24 338.421 1200.28C335.052 1196.41 333.08 1191.33 329.672 1187.51C327.754 1185.36 324.191 1184.66 320.441 1182.88C320.994 1181.73 321.922 1180.19 322.476 1178.52C322.827 1177.48 323.068 1175.57 322.561 1175.22C320.425 1173.77 317.478 1173.88 317.642 1169.62C317.727 1167.42 314.531 1165.14 312.924 1162.82C311.342 1160.52 310.453 1157.15 308.309 1155.98C301.97 1152.53 303.467 1143.12 296.036 1140.65C295.288 1140.4 294.929 1137.63 295.14 1136.13C295.865 1130.83 292.824 1126.95 290.859 1122.17C292.247 1119.77 294.188 1116.94 295.615 1113.88C299.443 1105.61 304.691 1098.09 308.831 1090.09C314.726 1078.68 319.037 1066.32 322.678 1053.97C323.786 1050.22 324.589 1046.09 326.413 1042.79C330.577 1035.25 333.602 1027.91 333.579 1018.9C333.563 1013.33 336.908 1007.73 338.865 1002.18C339.247 1001.09 340.643 1000.24 340.767 999.184C341.056 996.674 340.635 994.086 340.923 991.576C341.212 989.043 343.301 985.208 342.358 984.311C339.013 981.147 344.276 980.554 343.559 978.169C342.857 975.839 343.395 973.134 343.411 970.593C343.45 963.78 343.457 963.78 347.223 955.658C352.533 955.214 352.853 960.172 355.215 963.235C355.847 961.567 356.408 960.101 357.375 957.553C359.753 961.317 363.324 964.412 363.48 967.67C364.088 980.476 368.751 993.189 365.928 1005.91C364.938 1010.38 366.981 1014.91 365.78 1017.63C363.854 1022.02 363.082 1026.68 361.367 1031.06C359.792 1035.09 359.831 1039.72 358.576 1043.9C357.352 1048 354.872 1051.77 353.905 1055.9C353.001 1059.76 354.085 1064.09 351.036 1067.45C354.732 1073.55 345.555 1070.82 345.726 1075.3C345.867 1079.1 344.362 1083.08 343.036 1086.79C341.859 1090.09 340.697 1094.62 338.148 1095.95C333.579 1098.32 333.594 1102.59 331.606 1105.99C329.423 1109.73 328.3 1114.86 325.111 1117.08C317.189 1122.63 315.825 1132.06 309.813 1138.44C315.193 1143.04 319.723 1147.69 325.002 1151.22C330.717 1155.04 330.78 1161.82 334.522 1166.53C338.054 1162.36 340.331 1167.69 343.364 1167.77C343.364 1170.31 343.364 1172.84 343.364 1175.46C347.59 1179.56 351.839 1183.68 356.182 1187.89C355.223 1188.94 353.859 1189.77 353.796 1190.69C353.718 1191.79 354.763 1192.96 355.317 1194.1C358.661 1190.02 360.47 1195.79 362.388 1195.47C364.221 1200.42 365.92 1205.23 367.776 1209.97C369.211 1213.64 371.129 1216.93 371.721 1221.14C372.283 1225.14 375.448 1228.84 377.702 1232.54C378.559 1233.94 381.171 1235.07 381.07 1236.15C380.041 1246.99 389.241 1256.27 386.356 1266.87C384.696 1272.98 384.204 1278.85 384.126 1284.97C384.08 1288.33 384.119 1291.71 384.119 1295.1C381.335 1294.63 381.335 1294.63 379.362 1292.83C380.142 1301.73 376.01 1307.98 371.394 1314.01C357.804 1314.01 344.237 1314.01 330.67 1314.01Z"
		fill="#ffffff50"
	/>

	<path
		d="M819.104 1314.01C820.203 1310.78 823.665 1308 820.656 1304.01C819.759 1302.83 819.198 1301.09 819.174 1299.6C819.104 1294.74 818.293 1289.68 821.646 1285.4L826.737 1275.02C830.542 1271.08 836.312 1267.72 837.653 1263.08C839.337 1257.25 846.518 1257.56 847.095 1251.89C853.528 1251.15 857.379 1246.05 862.315 1242.81C866.4 1240.13 875.195 1230.22 877.613 1226C879.562 1222.58 881.644 1219.2 883.18 1215.6C884.716 1212.01 885.176 1207.89 887.023 1204.51C888.209 1202.33 883.671 1201.26 886.938 1198.73C888.466 1197.55 887.663 1193.28 887.78 1190.39C887.881 1187.85 888.068 1185.27 887.725 1182.78C887.406 1180.47 885.682 1178.19 885.877 1176C886.696 1166.78 880.84 1159.17 880.076 1150.35C879.92 1148.52 878.564 1146.77 877.636 1145.04C876.887 1143.65 875.071 1142.24 875.227 1141.03C876.56 1130.74 868.217 1123.31 867.321 1113.69C867.157 1111.93 865.137 1110.41 864.194 1108.67C862.323 1105.21 859.422 1102.16 859.812 1097.77C860.163 1093.9 859.718 1090.4 856.155 1087.77C855.142 1087.02 854.791 1084.86 854.799 1083.36C854.83 1075.59 853.309 1068.27 849.918 1061.2C848.927 1059.12 849.653 1056.22 849.653 1053.7C849.637 1045.23 849.762 1036.75 849.614 1028.29C849.473 1020.08 852.92 1012.74 854.978 1005.07C855.266 1003.99 857.231 1003.1 857.161 1002.22C856.459 993.267 858.307 984.833 861.629 976.587C861.808 976.134 860.584 975.121 859.461 973.632C868.131 975.854 869.948 975.799 876.139 973.445C881.714 981.544 882.041 990.048 876.802 998.162C874.4 1001.89 874.307 1005.46 876.053 1008.5C880.334 1015.95 875.507 1021.72 872.778 1027.45C871.125 1030.91 868.085 1033.31 871.437 1037.15C871.718 1037.47 872.038 1037.75 872.334 1038.05C868.919 1039.51 865.161 1042.15 867.734 1045.61C870.424 1049.22 868.17 1050.99 867.905 1053.92C867.367 1059.72 869.106 1065.84 870.486 1071.7C872.56 1080.52 877.036 1088.7 877.667 1097.95C877.722 1098.69 878.002 1099.73 878.54 1100.08C884.326 1103.78 885.441 1109.85 886.571 1115.85C887.811 1122.38 892.349 1127.04 895.561 1132.47C898.064 1136.71 902.984 1140.41 899.234 1146.4C898.859 1147 899.117 1148.33 899.545 1149.03C901.222 1151.75 903.296 1154.23 904.855 1157.01C910.453 1166.96 912.504 1177.88 913.221 1189.11C913.455 1192.8 912.41 1196.69 916.512 1199.29C917.588 1199.96 918.43 1202.18 918.219 1203.51C917.057 1210.99 921.697 1219.45 913.978 1226.02C912.442 1227.32 913.167 1231.59 913.299 1234.46C913.51 1238.79 912.964 1242.33 909.455 1245.72C906.781 1248.31 905.611 1252.48 903.912 1256.02C902.75 1258.45 902.532 1261.76 898.384 1260.7C897.713 1260.53 896.325 1260.86 896.185 1261.28C892.45 1272.02 881.519 1274.55 873.917 1280.85C869.839 1284.22 865.792 1287.68 861.442 1290.68C857.886 1293.13 853.013 1294.18 850.354 1297.26C847.711 1300.31 847.259 1305.18 845.536 1309.13C844.748 1310.93 843.204 1312.4 842.004 1314.02C834.371 1314.01 826.737 1314.01 819.104 1314.01Z"
		fill="#ffffff50"
	/>

	<path
		d="M1114.2 1314.01C1112.71 1308.56 1120.16 1308.59 1120.28 1304.13C1124.45 1304.84 1124.3 1301.02 1125.39 1298.89C1128.18 1293.48 1132.31 1290.78 1138.41 1291.16C1140.74 1296.38 1141.77 1300.02 1139.49 1302.28C1135.76 1305.97 1137.71 1310.09 1137.1 1314.01C1129.46 1314.01 1121.83 1314.01 1114.2 1314.01Z"
		fill="#ffffff50"
	/>

	<path
		d="M315.115 650.609C318.226 650.609 319.903 650.609 321.797 650.609C326.436 659.198 330.81 668.006 335.925 676.362C337.641 679.168 340.931 681.756 344.042 682.761C347.512 683.892 348.338 688.366 350.264 688.467C357.032 688.818 350.973 695.646 355.316 697.01C358.965 698.148 356.603 701.796 357.523 704.08C359.542 709.076 359.846 712.864 353.835 715.553C351.901 716.419 351.184 719.989 349.445 723.177C342.069 717.455 336.993 711.29 332.432 704.586C329.929 700.907 327.154 697.415 324.347 693.962C322.553 691.756 319.817 690.268 320.347 686.628C320.464 685.809 318.632 684.632 317.595 683.736C313.337 680.057 308.004 677.594 307.49 670.555C307.295 667.913 301.642 667.406 301.26 663.392C297.167 664.468 298.5 659.892 296.886 659.097C292.995 657.187 297.993 649.533 290.828 650.258C289.502 646.984 288.45 643.695 286.758 640.46C283.748 634.715 283.015 627.731 279.803 621.784C283.327 620.14 279.366 616.889 280.879 615.51C284.2 612.477 277.035 610.786 280.224 608.416C283.249 606.172 281.058 602.259 282.547 600.536C286.976 595.423 287.709 588.836 289.479 583.045C290.742 578.914 293.993 580.286 295.373 578.033C296.722 575.827 298.718 574.027 300.168 571.867C308.23 559.856 321.329 552.786 329.984 541.203C334.522 535.131 334.358 527.75 337.952 521.499C339.091 519.527 334.857 515.068 337.594 511.42C333.844 508.723 337.212 504.234 334.935 501.077C332.604 497.842 330.569 494.405 328.144 490.655C328.978 488.987 330.015 486.891 331.403 484.108C325.025 482.674 321.68 479.229 323.06 472.751C323.824 469.174 320.565 468.753 319.045 466.874C315.973 463.086 313.875 457.879 313.189 453C312.667 449.25 310.725 447.224 308.948 444.48C305.743 439.538 299.981 435.961 300.168 429.086C291.615 424.035 292.636 413.559 287.413 406.645C285.947 404.704 283.226 403.348 282.571 401.251C281.721 398.554 282.36 395.39 282.36 392.42C282.36 390.3 282.719 388.102 282.251 386.091C281.83 384.251 280.512 382.614 279.655 380.993C286.126 371.764 294.375 364.297 300.168 354.889C307.154 352.145 310.367 345.333 315.599 340.757C318.546 338.185 320.066 335.145 320.331 331.965C320.815 326.189 322.998 321.294 325.493 316.243C327.427 312.323 328.752 308.098 328.3 303.367C327.965 299.906 332.884 296.351 328.206 292.711C327.793 292.392 327.887 290.973 328.191 290.256C333.181 278.603 329.828 266.373 330.553 254.44C330.787 250.566 332.315 246.146 328.354 242.6C327.512 241.851 328.62 238.773 329.041 236.808C329.454 234.891 329.898 232.919 330.74 231.173C332.674 227.143 327.278 223.861 330.335 219.052C332.253 216.036 329.438 210.26 331.005 206.713C333.033 202.115 324.791 200.026 329.532 195.442C333.508 191.6 325.298 188.497 328.635 184.039C338.038 178.473 337.485 180.032 333.056 169.782C331.364 165.862 329.89 162.448 331.387 157.95C334.958 157.95 338.654 157.95 343.418 157.95C343.418 159.361 343.598 160.936 343.387 162.456C341.859 173.711 346.521 183.984 349.024 194.507C349.625 197.025 351.332 199.714 350.966 202.481C350.139 208.592 352.509 214.422 351.488 220.783C350.685 225.779 353.89 231.399 355.207 236.769C355.683 238.718 356.774 241.29 355.987 242.654C350.381 252.366 354.997 262.266 354.973 272.056C354.973 273.498 356.034 275.587 355.402 276.272C353.336 278.525 353.702 279.842 355.028 282.633C357.858 288.565 356.852 294.481 351.098 298.643C353.008 299.867 355.659 300.646 355.917 301.917C356.533 304.902 350.474 308.051 356.018 311.247C352.268 313.998 354.139 318.059 353.531 321.567C352.993 324.654 352.018 327.694 351.02 330.679C349.897 334.015 348.751 337.374 347.223 340.539C344.167 346.892 344.681 355.302 336.689 358.919C336.019 359.223 335.629 361.21 335.863 362.247C337.142 368.038 332.978 371.788 329.306 373.269C323.38 375.669 319.614 380.221 316.417 384.61C312.721 389.676 307.981 392.287 302.141 395.452C308.948 406.926 313.829 419.42 322.203 430.084C324.846 433.451 326.358 437.675 328.612 441.37C330.896 445.104 336.744 446.483 335.847 452.384C335.746 453.046 336.245 454.364 336.689 454.473C344.619 456.429 344.557 463.335 346.747 469.236C347.488 471.223 347.457 476.493 352.548 475.495C352.354 476.391 352.4 477.451 351.925 478.161C350.513 480.265 350.357 481.684 353.055 482.962C357.422 485.028 360.182 489.525 358.357 493.345C356.096 498.084 358.077 502.308 359.675 504.896C363.152 510.54 364.08 516.12 363.799 522.325C363.722 524.016 363.098 526.581 363.924 527.243C367.215 529.894 366.638 533.362 366.209 536.496C365.663 540.51 364.408 544.462 363.121 548.328C359.846 558.188 353.858 566.263 346.046 572.998C344.252 574.541 341.82 575.383 340.128 577.004C337.454 579.561 333.758 580.27 331.606 584.347C329.329 588.665 324.043 591.479 319.879 594.698C314.538 598.821 310.46 603.451 310.242 610.731C310.18 612.945 308.028 615.089 307.942 617.31C307.708 623.374 306.819 629.711 311.209 634.957C314.733 639.252 316.113 644.163 315.115 650.609Z"
		fill="#ffffff50"
	/>

	<path
		d="M839.478 279.71C835.189 285.353 830.192 289.741 828.086 295.237C825.56 301.846 823.159 308.963 824.118 316.516C824.539 319.852 822.8 324.856 824.492 326.353C828.64 330.016 823.447 331.856 823.946 334.779C824.773 339.619 824.695 344.273 830.636 345.933C831.361 346.135 831.634 347.952 832.149 349.074C828.375 350.711 824.858 352.231 820.976 353.914C822.909 355.84 824.102 357.04 825.49 358.42C826.316 356.658 827.112 354.975 828.102 352.87C833.295 359.106 838.332 365.084 843.259 371.156C843.961 372.021 844.265 373.284 844.538 374.422C846.776 383.69 849.887 388.008 858.362 394.026C860.717 395.694 861.886 397.892 862.689 401.056C863.758 405.242 864.568 410.862 870.705 411.774C872.74 419.303 883.406 421.346 882.72 430.613C889.761 435.165 889.495 443.958 893.885 450.24C897.035 454.746 896.318 461.8 898.181 467.435C898.961 469.789 892.466 471.426 897.55 472.478C901.362 473.266 899.585 476.719 901.659 477.514C902.212 477.724 903.436 476.165 904.637 475.183C907.733 480.218 902.041 481.263 900.294 484.786C901.082 486.446 901.854 488.675 903.101 490.601C909.222 500.056 909.276 500.749 906.22 511.638C905.456 514.351 905.931 517.414 905.128 520.103C904.536 522.075 901.035 520.345 900.146 524.234C898.969 529.379 896.793 534.944 892.817 538.873C886.447 545.163 882.377 553.277 875.219 559.045C867.843 564.985 861.621 572.21 853.388 577.339C848.21 580.566 846.448 587.114 844.78 592.679C842.745 599.476 847.758 607.863 839.985 613.771C839.213 614.356 841.996 618.69 841.848 621.207C841.63 624.879 843.727 624.988 846.175 625.72C847.641 626.157 848.803 627.614 850.347 628.807C845.138 631.325 845.146 631.325 848.288 635.417C848.764 636.04 849.7 636.812 849.583 637.319C847.922 644.474 853.434 647.74 857.278 651.988C859.999 655.005 862.214 658.489 864.989 661.451C866.51 663.072 868.81 665.192 870.634 665.075C878.143 664.6 880.069 670.422 882.595 675.161C884.529 678.794 887.562 681.506 890.54 683.377C893.051 684.959 893.3 686.627 892.739 688.179C891.975 690.291 890.361 693.206 888.614 693.611C884.997 694.453 881.043 693.869 876.085 693.869C874.346 691.6 872.17 688.763 870.003 685.918C869.021 684.632 868.194 682.372 867.056 682.2C858.37 680.914 855.438 672.231 848.803 668.388C847.969 667.905 847.548 666.564 847.127 665.543C845.786 662.3 845.232 656.946 843.08 656.213C839.462 654.981 838.059 651.973 835.306 650.336C826.332 644.981 825.942 634.739 822.059 626.57C820.749 623.811 821.521 620.171 818.309 617.895C817.249 617.146 816.219 614.488 816.726 613.701C820.999 607.044 815.806 600.676 816.321 594.09C816.75 588.61 813.607 582.756 814.418 577.433C815.143 572.701 820.5 568.711 821.334 563.956C822.457 557.556 829.669 554.844 829.435 548.109C829.42 547.595 831.19 546.808 832.234 546.511C846.784 542.373 854.557 530.766 862.346 519.23C864.779 515.629 866.767 511.74 869.067 508.045C875.64 497.476 879.008 486.173 877.231 473.64C872.662 470.117 877.839 462.205 871.017 459.524C870.923 459.485 872.888 456.086 872.389 454.878C871.04 451.628 868.997 448.627 867.001 445.68C864.74 442.344 862.167 439.219 859.859 435.914C857.115 431.985 858.9 425.477 854.323 423.154C849.856 420.886 849.513 416.49 846.877 413.684C843.766 410.379 842.183 406.076 837.942 403.208C833.708 400.339 831.813 394.135 828.64 389.559C824.281 383.277 819.019 377.524 815.385 370.868C812.235 365.084 808.672 359.036 808.999 351.95C809.116 349.347 808.407 348.014 805.561 348.162C805.023 348.193 803.885 347.086 803.955 346.665C804.867 341.178 801.764 336.228 801.74 331.185C801.725 328.091 802.037 325.067 801.475 321.832C800.836 318.129 801.444 314.232 801.296 310.421C801.085 305.05 801.109 299.781 804.719 295.307C805.241 294.66 806.115 294.169 806.364 293.452C807.487 290.248 800.571 287.364 805.927 283.942C809.919 281.393 808.656 277.395 808.999 273.755C809.53 268.135 813.249 265.29 818.527 263.832C819.065 260.753 819.128 257.417 820.282 254.502C821.732 250.831 825.693 251.431 829.685 251.852C826.114 246.739 825.459 242.95 830.012 239.435C832.344 237.634 834.246 235.296 837.006 232.537C833.31 219.995 843.47 211.561 848.203 201.257C851.797 193.423 856.881 186.268 861.933 177.741C865.036 178.333 869.278 179.144 874.424 180.134C874.705 178.434 875.079 176.205 875.476 173.812C882.728 168.333 884.092 180.5 889.698 178.084C892.723 186.65 886.525 191.038 883.227 196.229C880.833 199.986 878.736 203.455 877.441 207.875C874.564 217.672 866.9 225.389 864.522 235.546C857.154 236.138 861.169 242.498 859.017 246.333C857.309 246.466 855.306 246.614 853.193 246.77C851.353 248.913 855.041 249.521 854.604 250.293C850.924 256.84 847.665 263.832 842.838 269.452C839.564 273.232 839.532 276.787 839.478 279.71Z"
		fill="#ffffff50"
	/>

	<path
		d="M22.3545 199.761C31.8668 201.904 31.8668 201.904 33.8862 211.172C36.467 210.681 39.0634 210.182 42.9385 209.449C45.3789 211.897 48.716 215.49 52.3338 218.779C55.2889 221.453 59.2108 223.285 61.5499 226.371C64.5283 230.308 66.4698 235.055 68.5983 239.575C70.0876 242.748 79.5063 258.945 81.705 260.777C82.8512 261.736 84.5432 262.04 86.5158 262.858C85.8842 270.169 86.9602 277.177 93.0107 282.711C93.7592 283.397 91.3811 286.819 91.8489 288.619C93.0185 293.14 95.9813 297.373 96.3634 301.878C96.7532 306.5 95.2328 311.387 94.0165 316.017C92.7846 320.71 90.8509 325.207 91.5058 330.235C91.5994 330.936 90.9835 332.386 90.8197 332.363C86.087 331.856 86.1649 336.369 84.894 338.707C83.4594 341.342 83.7089 344.904 83.1709 348.451C81.9078 347.344 81.0267 346.58 79.249 345.021C79.9351 355.489 70.9842 360.369 67.6081 368.35C62.0021 367.438 63.3042 373.331 60.7546 375.584C57.4175 378.53 57.8775 385.343 50.9928 385.078C50.1351 385.046 48.4432 386.761 48.4509 387.65C48.4977 391.103 48.5445 393.807 44.0535 394.899C43.0788 395.14 43.2738 400.191 42.9151 403.138C38.9308 404.868 34.5022 406.333 35.5236 412.444C35.851 414.416 36.0616 417.137 35.0012 418.485C29.9487 424.947 34.814 429.959 38.4786 433.007C41.5272 435.54 42.6968 437.457 43.7728 441.051C44.5447 443.607 46.1976 446.881 50.2598 448.604C54.4858 450.396 55.0316 457.739 61.0353 458.83C61.0976 462.829 64.0293 463.678 66.9376 465.448C69.1051 466.765 70.072 470.023 73.2531 471.302C75.0776 472.034 75.9977 474.996 77.5649 477.311C80.9254 477.818 86.8666 477.038 88.4728 479.314C91.3343 483.375 97.3848 485.745 96.6674 492.02C100.067 494.826 105.041 491.139 108.207 495.504C110.429 498.559 114.881 500.11 116.76 503.267C118.686 506.51 119.045 510.851 119.45 514.78C119.879 518.966 119.544 523.229 119.544 527.922C115.981 529.231 112.3 530.587 107.575 532.325C107.076 527.898 106.687 524.453 106.141 519.597C104.644 522.769 103.833 524.5 102.889 526.511C101.634 526.004 100.293 525.84 99.49 525.092C85.4554 512.028 71.7327 498.622 57.3863 485.916C52.0454 481.185 47.0475 476.313 42.4707 470.881C39.8041 467.708 36.2955 465.206 38.962 459.306C35.5236 461.293 33.9018 462.229 31.0793 463.858C31.5471 458.004 27.1652 456.047 25.3017 452.914C21.3721 446.304 15.961 440.552 14.8616 431.798C13.1307 418.002 12.1638 418.166 14.8382 408.298C15.5711 405.577 14.9941 402.444 15.9843 399.864C16.6315 398.18 20.6391 399.7 20.6469 395.538C20.6547 393.324 24.8651 391.391 21.2317 388.297C20.5612 387.728 20.8341 385.319 21.4188 384.119C24.3115 378.109 27.4693 372.224 30.5023 366.277C30.8532 365.583 30.8766 364.204 31.2508 364.126C40.3109 362.255 40.3499 353.837 43.149 347.593C45.3945 342.589 48.833 338.754 52.6223 334.989C60.5597 327.117 62.0723 318.745 64.887 307.178C67.1559 297.864 63.5537 290.038 63.5927 281.518C63.5927 280.669 63.8344 279.733 63.5459 278.993C62.8442 277.169 62.353 274.885 60.9729 273.77C54.3299 268.423 55.6787 258.727 48.9188 253.177C43.0788 248.383 38.8529 241.664 33.2624 236.504C27.6174 231.298 20.2259 227.759 15.3606 221.999C10.9085 216.737 5.91845 212.972 0.000547228 209.761C0.000547228 207.719 0.000547228 205.614 0.000547228 203.518C-0.00724975 191.615 -0.00724957 191.615 9.63761 184.842C8.96707 183.158 7.25173 180.687 7.82091 179.931C9.72338 177.398 13.6297 176.969 13.0839 171.91C12.772 169.019 16.3508 165.838 17.7387 162.596C19.0797 159.369 19.9062 155.9 21.0602 152.268C22.3545 153.437 23.2433 154.232 24.14 155.035C25.7618 152.689 30.6816 151.294 26.3933 147.163C24.3349 145.175 26.0892 143.819 26.9625 141.878C30.0501 135.019 33.1767 128.214 33.278 120.263C33.3248 116.67 38.0264 114.643 39.157 110.232C39.9756 107.051 40.5292 103.918 40.5136 100.777C40.498 98.9997 38.3851 97.2225 38.3773 95.4453C38.3695 93.6915 40.6228 91.891 40.5214 90.1917C40.0692 83.0753 43.0087 76.9409 44.8332 70.37C46.0027 66.161 50.369 61.9129 46.1352 56.0124C43.9287 52.9413 46.1664 46.9316 45.6206 42.3406C45.1216 38.0302 43.6012 33.8367 42.3381 28.8248C48.4432 27.5698 53.1525 26.2915 56.1466 33.2989C57.1992 35.7698 61.5187 36.7285 62.9689 39.1838C64.4971 41.7794 64.2788 45.3649 65.0117 48.4672C65.3704 49.9715 66.0097 51.4603 66.7972 52.801C70.0564 58.3585 74.2044 63.4172 68.9024 70.448C67.2651 72.6071 67.6939 77.4086 68.8478 80.3393C71.0154 85.8423 62.6259 90.8699 68.6451 96.0923C67.9044 101.681 64.7388 106.911 66.1033 112.819C61.4251 117.816 64.9026 124.106 63.4211 129.508C61.9865 134.754 59.7176 139.836 57.2771 144.723C54.2909 150.717 50.5873 156.345 47.5309 162.3C45.7532 165.761 43.804 169.463 43.3829 173.228C42.6266 180.017 38.923 185.138 33.816 188.154C28.7168 191.163 27.2198 196.487 22.3545 199.761Z"
		fill="#ffffff50"
	/>

	<path
		d="M49.9788 1042.26C49.0509 1041.44 48.4583 1040.91 46.9613 1039.58C45.8386 1040.71 43.9439 1041.74 43.5073 1043.22C42.7198 1045.87 42.9927 1048.48 40.9187 1051.14C38.946 1053.68 38.7901 1057.79 38.3613 1061.28C38.1352 1063.09 45.706 1077.12 47.3824 1077.43C49.9866 1077.92 49.9554 1079.39 51.0625 1081.11C54.08 1085.77 54.8831 1092.24 61.0037 1094.62C60.6684 1101.78 70.2119 1100.55 71.3581 1106.68C71.4984 1107.4 74.1572 1107.55 75.5606 1108.18C79.7866 1110.05 83.4902 1112.61 86.4764 1116.24C88.5504 1118.76 90.6166 1122.53 93.2598 1123.1C99.817 1124.52 98.9126 1131.92 103.716 1134.3C102.172 1136.37 103.31 1138.46 103.435 1140.6C103.521 1142 101.673 1143.53 101.813 1144.89C102.39 1150.41 100.082 1153.43 94.7412 1154.58C93.6964 1154.8 92.8621 1155.96 91.9889 1156.65C87.4354 1153.91 81.4318 1153.39 80.6521 1146.84C69.9702 1137.52 61.8691 1125.46 49.4018 1117.97C46.2284 1116.07 43.9283 1112.71 41.2383 1110.01C38.0026 1106.75 34.6421 1103.37 31.8664 1099.98C28.81 1096.24 25.4573 1092.61 22.6348 1088.67C20.4048 1085.55 19.3366 1081.6 17.7539 1078.02L16.904 1067.07C17.1847 1062.52 17.2393 1057.95 17.824 1053.45C18.3386 1049.52 18.822 1045.38 20.4516 1041.86C22.5568 1037.31 25.8003 1033.3 28.6852 1028.85C30.0887 1030.25 30.689 1030.85 31.2894 1031.45C31.8664 1030.72 33.0749 1029.54 32.919 1029.33C29.7066 1024.77 32.4278 1021.4 35.2425 1018.34C38.3691 1014.94 42.1194 1012.15 40.7082 1006.56C39.679 1002.49 48.8014 1004.87 45.8698 998.661C44.0764 994.865 48.3414 993.01 50.2595 990.422C52.3724 987.569 55.3509 984.475 55.577 981.318C55.8733 977.125 61.3156 979.783 61.5417 974.794C61.721 970.873 66.2277 966.22 70.0248 963.741C72.3171 962.245 73.9155 961.839 73.7439 958.862C73.5178 954.855 80.5741 955.518 79.2096 949.656C78.5157 946.679 82.3674 942.758 83.8098 939.126C84.9638 936.211 85.4472 933.038 86.453 930.053C87.8331 925.984 89.4393 921.986 91.2637 917.098C89.9695 914.557 87.451 911.245 86.5466 907.542C82.9444 892.678 82.999 892.764 72.13 881.438C70.1105 879.333 70.1417 875.358 68.2939 872.965C65.4636 869.31 61.5105 866.535 58.61 862.918C55.6394 859.216 53.5576 854.819 50.7429 850.977C48.3336 847.68 44.5209 846.105 41.9869 842.216C38.7667 837.274 31.9288 834.67 26.5878 831.155C24.9583 830.079 21.8239 829.565 21.59 828.372C20.5218 822.83 12.6079 823.454 12.2726 817.054C12.1244 814.272 8.60801 811.817 7.71915 808.886C6.90047 806.165 6.68215 802.666 7.70356 800.109C11.0329 791.753 12.0153 782.189 18.8376 775.54C21.7225 772.727 23.2507 769.78 23.126 765.898C26.3773 766.483 29.5039 767.052 32.6305 767.613C32.9268 767.013 33.2231 766.421 33.5193 765.821C31.4375 763.646 29.348 761.479 26.1668 758.158C31.0165 757.691 34.1899 757.379 37.5426 757.052C37.3399 756.272 37.2073 755.68 37.0202 755.103C34.4784 747.098 34.6187 747.262 40.6848 742.102C43.289 739.888 44.9809 736.637 47.4291 734.206C50.3842 731.267 52.0138 727.409 56.0136 724.985C58.8751 723.246 59.6938 718.273 61.6508 714.875C63.834 711.095 67.0307 707.735 68.4498 703.713C71.3347 695.575 77.1122 688.404 76.4261 678.957C76.2156 676.05 78.3598 673.088 79.1005 669.931C81.4863 659.845 81.4863 660.071 79.7086 650.039C78.9445 645.721 80.6443 640.826 81.8606 636.368C82.305 634.731 84.5973 633.593 86.1021 632.174C88.9324 635.393 90.7024 639.08 93.5249 640.265C98.9048 642.525 98.6397 647.904 100.815 651.653C102.616 654.747 107.107 658.395 103.061 663.789C101.642 665.675 104.807 670.477 104.012 673.439C101.345 683.346 99.3024 693.416 96.1602 703.199C95.4351 705.443 94.8192 707.727 94.0083 709.933C93.3377 711.765 92.8699 714.633 91.5834 715.117C86.9442 716.855 85.6187 719.708 86.2425 724.377C86.3984 725.561 84.878 727.752 83.6695 728.18C80.4493 729.326 78.9679 731.446 77.4397 734.385C74.6406 739.779 73.6426 746.903 66.0483 748.524C65.2842 755.555 58.228 758.961 56.2943 764.784C55.1014 768.377 49.6591 766.117 50.431 771.269C50.7896 773.646 46.3532 776.437 45.9321 779.313C45.2694 783.772 38.6342 782.922 39.3671 787.879C30.1822 788.082 30.7046 796.297 27.2272 801.551C29.5429 802.744 32.4434 803.32 32.7708 804.568C34.3692 810.608 39.7413 813.687 42.6184 818.208C46.0335 823.586 52.6921 823.805 55.2027 829.183C65.1127 833.236 69.2919 841.701 71.974 852.185C73.1826 849.698 73.9701 848.085 74.7575 846.456C77.3383 847.36 75.2644 853.019 80.0751 851.483C82.5545 856.815 89.564 859.286 89.1118 866.667C88.9325 869.637 91.6068 871.25 94.8971 872.007C96.5501 872.388 97.5637 875.233 99.0139 876.831C99.7313 877.619 101.447 878.024 101.548 878.757C102.055 882.49 100.106 887.346 106.437 887.985C106.172 892.007 108.012 894.884 110.733 897.744C111.52 898.571 108.862 902.632 109.657 903.505C111.614 905.656 111.91 907.776 111.863 910.333C111.824 912.406 111.575 914.643 112.222 916.529C114.733 923.864 114.818 923.817 112.737 930.63C112.269 932.15 111.754 933.802 111.902 935.338C112.581 942.298 110.585 948.152 105.602 953.141C104.737 954.006 104.417 956.142 104.838 957.342C105.291 958.636 106.982 959.041 105.329 961.083C102.858 964.123 101.205 967.81 99.1075 971.17C97.1505 974.295 96.6281 978.255 91.9733 979.689C89.9461 980.313 87.8253 983.992 87.5914 986.455C86.9754 992.994 82.0165 996.159 78.4845 1000.57C74.5002 1005.55 71.5686 1011.37 67.4986 1016.28C63.6001 1020.97 60.5593 1025.86 58.1968 1031.53C56.575 1035.55 52.8169 1038.7 49.9788 1042.26Z"
		fill="#ffffff50"
	/>

	<path
		d="M630.019 1118.3C627.009 1118.3 624.468 1118.3 621.926 1118.29C618.589 1111.02 612.055 1105.84 609.108 1098.18C608.016 1095.35 606.269 1092.63 604.967 1089.76C602.597 1084.49 600.102 1079.02 596.094 1074.25C591.354 1068.63 587.681 1061.98 584.781 1054.9C583.081 1050.74 578.918 1047.78 576.688 1043.25C574.972 1039.77 572.47 1036.7 571.596 1032.6C571.129 1030.4 568.711 1028.59 568.314 1026.4C567.971 1024.49 569.335 1022.33 569.756 1020.23C570.372 1017.19 569.46 1014.56 567.238 1012.4C571.721 1006.74 565.289 1000.84 567.425 995.52C569.46 990.446 573.164 986.057 575.916 981.24C578.06 977.483 577.998 972.884 582.052 969.65C584.843 967.413 585.724 962.845 587.611 959.408C591.323 952.657 595.51 946.235 601.123 940.856C605.03 937.115 608.616 933.724 608.289 927.146C608.078 922.827 611.571 918.431 612.671 913.895C613.31 911.245 613.302 907.885 612.195 905.484C609.575 899.771 605.365 894.751 605.162 888.063C599.003 886.637 599.868 882.147 600.773 877.759C600.913 877.065 601.911 876.551 602.62 875.834C600.141 871.508 593.662 869.411 594.925 862.747C594.987 862.435 592.227 861.585 590.496 860.868C591.307 859.255 592.11 857.665 592.851 856.191C592.243 855.295 591.845 854.118 591.346 854.071C585.592 853.518 581.272 849.995 580.321 845.061C579.354 840.049 571.752 838.373 574.598 832.114C573.148 831.514 571.682 830.96 570.263 830.313C565.819 828.279 564.688 823.197 560.875 820.149C557.905 817.779 558.193 811.419 555.199 807.522C554.607 806.75 554.42 804.614 554.911 804.248C558.357 801.66 557.188 798.036 556.977 794.91C556.462 787.451 560.298 783.171 566.536 780.311C566.887 780.147 567.441 780.428 567.784 780.264C568.493 779.929 569.125 779.438 569.787 779.009C563.799 772.345 563.807 772.352 567.23 765.633C567.402 765.298 567.09 764.698 567.277 764.386C569.577 760.528 577.319 763.958 577.272 757.589C577.234 751.837 581.038 749.764 584.812 747.269C585.444 746.856 586.294 746.778 587.05 746.537C589.062 742.484 585.225 737.051 589.81 733.761C591.65 732.436 594.208 732.101 596.165 731.415C599.556 721.672 602.706 711.539 606.69 701.741C608.141 698.187 607.712 693.72 611.751 690.969C613.123 690.034 612.998 686.432 612.983 684.047C612.951 678.7 612.78 673.447 616.351 668.879C617.279 667.694 618.113 665.979 618.027 664.561C617.825 660.975 618.004 658.021 622.542 657.702C622.191 655.566 621.84 653.422 621.247 649.837C625.372 646.992 626.199 640.787 627.048 635.074C627.532 631.823 624.818 628.183 624.031 624.613C623.797 623.538 625.193 622.096 625.996 620.521C629.208 622.322 632.148 623.873 634.97 625.611C636.023 626.258 637.683 627.521 637.559 628.246C636.272 635.736 644.389 640.101 643.788 647.452C643.672 648.901 646.284 650.569 647.999 652.557C645.208 654.888 642.884 658.122 643.328 663.353C643.687 667.554 642.268 672.075 640.896 676.214C639.89 679.246 638.26 681.841 638.292 685.372C638.323 688.825 635.921 692.364 636.194 695.731C636.444 698.88 633.107 701.156 634.884 704.243C635.087 704.594 635.781 705.015 635.726 705.124C633.98 708.468 630.83 710.58 632.561 715.951C633.66 719.357 630.097 724.844 627.54 728.679C625.091 732.358 626.807 738.189 621.411 740.161C620.819 746.872 616.92 751.892 613.1 757.067C609.825 761.502 610.043 761.666 603.291 762.991C603.291 765.727 603.291 768.564 603.291 771.308C596.936 772.921 597.545 781.223 593.857 782.291C587.541 784.115 590.325 791.465 584.742 793.195C580.025 794.661 582.286 803.266 574.333 803.827C578.653 808.605 584.68 812.16 582.504 819.346C586.325 824.42 588.329 830.15 594.644 834.226C601.95 838.95 611.166 843.697 613.224 854.297C613.614 856.316 616.912 857.618 617.988 859.699C619.041 861.741 619.353 864.36 619.329 866.722C619.283 871.274 624.686 870.861 625.684 874.064C627.212 878.944 630.035 883.114 631.36 888.305C634.042 898.859 640.132 908.454 641.73 919.523C647.547 922.937 638.752 928.214 643.297 931.791C638.658 937.887 636.085 945.097 630.487 950.935C625.232 956.422 619.532 961.231 614.191 966.477C609.263 971.318 606.729 978.528 602.761 984.436C601.303 986.603 598.761 988.045 595.681 990.703C594.847 996.237 593.981 1003.44 592.601 1010.55C591.666 1015.4 593.514 1019.62 595.712 1023.25C600.445 1031.09 602.776 1040.57 610.807 1046.29C611.751 1046.96 612.499 1048.09 612.998 1049.16C614.784 1053.08 615.485 1059.38 618.324 1060.53C624.109 1062.87 622.604 1068.42 625.614 1071.74C628.467 1074.89 630.23 1079.07 632.241 1082.91C635.173 1088.51 637.699 1094.35 638.377 1100.67C638.736 1104.01 639.913 1107.89 634.136 1109.16C632.374 1109.53 631.617 1114.52 630.019 1118.3Z"
		fill="#ffffff50"
	/>

	<path
		d="M1120.05 729.911C1117.47 722.327 1121 718.508 1125.11 714.556C1128.28 711.508 1130.76 707.681 1133.24 703.994C1135.4 700.783 1136.2 697.072 1141.12 695.708C1143.82 694.96 1145.18 689.995 1147.61 687.345C1149.31 685.49 1149.68 684.601 1147.74 682.645C1146.86 681.764 1146.65 678.545 1147.38 677.976C1154.69 672.317 1151.04 661.272 1158.54 655.745C1159.55 654.997 1160.17 652.698 1159.89 651.357C1157.76 641.559 1165.79 635.027 1167.62 626.547C1172.84 623.312 1173.13 617.864 1172.93 611.207C1175.97 614.676 1177.9 616.882 1180.34 619.649C1180.34 622.954 1181.92 628.23 1179.97 631.13C1176.92 635.659 1178.29 639.93 1177.83 644.303C1177.4 648.294 1175.2 651.692 1174.91 655.925C1174.64 659.923 1171.63 663.766 1169.7 667.624C1166.71 673.611 1161.69 678.794 1162.53 686.254C1157.2 691.437 1157.38 699.465 1152.74 705.109C1150.61 707.696 1149.81 713.511 1147.93 713.737C1143.47 714.267 1145.75 721.797 1140.35 719.88C1140.23 719.841 1139.72 720.456 1139.66 720.807C1139.26 723.613 1139.65 726.84 1138.36 729.132C1137.17 731.252 1132.86 731.992 1132.28 734.019C1131.06 738.306 1127.26 740.683 1126.28 745.68C1125.1 751.767 1120.15 758.12 1115.11 762.251C1104.21 771.168 1102.08 775.541 1105.82 788.495C1107.87 795.589 1109.53 802.806 1110.98 810.048C1111.15 810.843 1108.5 811.981 1110.65 813.633C1113.04 815.465 1115.05 817.585 1114.2 821.038C1113.51 823.867 1115.21 825.559 1116.83 827.617C1118.21 829.363 1119.37 832.067 1119.11 834.156C1118.55 838.623 1120.15 843.097 1122.59 845.349C1127.79 850.135 1126.97 857.252 1131.15 862.373C1134.8 866.855 1136.74 872.708 1139.69 877.806C1141.07 880.199 1144.31 882.109 1140.46 884.969C1140.16 885.188 1139.97 885.554 1139.73 885.858C1148.55 888.984 1141.73 898.579 1146.92 903.209L1143.13 930.568C1140.27 934.886 1137.41 939.212 1134.55 943.53L1126.2 955.105C1120.48 958.683 1114.8 962.339 1109.02 965.807C1104.29 968.644 1099.04 970.765 1094.7 974.085C1088.98 978.458 1088.63 985.902 1086.34 992.13C1085.04 995.653 1083.36 1000.51 1084.79 1003.23C1087.05 1007.5 1085.65 1011.4 1086.17 1015.39C1086.68 1019.36 1088.57 1022.91 1089.17 1026.97C1089.74 1030.89 1094.21 1034.08 1095.91 1038.05C1097.14 1040.91 1097.92 1043.86 1099.34 1046.81C1103.8 1056.02 1111.74 1062.44 1117.17 1070.85C1119.66 1074.72 1120.64 1079.46 1124.07 1082.77C1127.36 1085.94 1130.12 1089.47 1132.13 1093.74C1134.13 1098.02 1136.8 1102.08 1139.7 1105.84C1146.55 1114.69 1153.51 1123.42 1157.4 1133.95C1154.86 1137.66 1152.56 1141.44 1149.82 1144.87C1148.07 1147.07 1146.11 1149.99 1142.63 1148.72C1139.79 1147.69 1136.63 1146.45 1134.71 1144.31C1132.42 1141.77 1129.72 1138.01 1130.02 1135.07C1130.56 1129.94 1122.61 1132.47 1124.21 1127.24C1124.51 1126.25 1122.35 1124.71 1121.89 1123.24C1120.84 1119.84 1119.63 1116.38 1119.4 1112.88C1119.12 1108.42 1117.43 1105.94 1112.89 1105.6C1108.35 1105.26 1106.34 1102.71 1106.55 1098.26C1106.59 1097.42 1106.52 1096.56 1106.57 1095.72C1106.83 1091.6 1107.41 1087.32 1101.53 1086.59C1100.56 1077.19 1088.6 1074 1088.63 1063.93C1088.63 1063.43 1086.73 1062.47 1085.74 1062.48C1081.14 1062.54 1079.42 1060.29 1078.41 1055.92C1077.36 1051.42 1075.95 1046.14 1072.82 1043.18C1068.44 1039.04 1068.07 1034.69 1068.43 1029.61C1068.78 1024.64 1064.6 1020.74 1065.73 1015.39C1067.15 1008.66 1068.06 1001.74 1068.27 994.873C1068.47 988.225 1072.54 982.534 1073 976.618C1073.63 968.652 1078.7 968.824 1084.4 967.413C1081.92 966.252 1080.23 965.456 1078.6 964.693C1078.16 957.794 1083.96 954.193 1087.74 951.06C1092.68 946.96 1098 942.158 1104.93 940.779C1109.31 939.906 1110.52 933.234 1116.15 934.644C1118.66 930.965 1121.15 927.294 1124.38 922.547C1124.38 919.803 1124.35 915.587 1124.39 911.37C1124.42 908.454 1124.43 905.89 1122 903.372C1120.29 901.595 1120.11 898.314 1119.29 895.695C1118.6 893.434 1118.1 891.112 1117.31 888.898C1113.46 878.211 1109.48 867.58 1105.67 856.878C1103.53 850.852 1103.17 844.032 1096.74 840.15C1095.3 839.285 1094.53 836.869 1094.1 835.014C1093.85 833.985 1095.66 831.849 1095.35 831.576C1091.58 828.256 1096.44 822.199 1091.03 819.222C1086.94 816.961 1089.99 810.063 1084.72 807.857C1084.04 807.569 1083.78 805.722 1083.72 804.568C1082.97 790.577 1084.55 777.334 1092.28 764.878C1095.41 759.827 1096.26 753.763 1103.12 751.619C1104.32 751.245 1103.69 746.537 1105.15 745.181C1107.93 742.609 1104.24 735.866 1111.15 736.084C1111.37 736.092 1111.72 732.351 1112.09 729.911C1114.02 729.911 1116.02 729.911 1120.05 729.911Z"
		fill="#ffffff50"
	/>

	<path
		d="M1127.31 363.307C1125.92 365.63 1124.91 367.306 1123.73 369.27C1129.69 374.921 1135.47 380.307 1134.66 389.201C1134.57 390.128 1135.7 391.407 1136.59 392.139C1142.48 396.964 1144.46 402.327 1139.75 409.194C1139.01 410.27 1139.65 412.288 1139.65 413.832C1124.57 414.463 1124.57 414.463 1124.14 399.583C1121.34 399.583 1118.51 399.583 1115.03 399.583C1113.07 389.629 1105.57 381.788 1106.57 371.18C1102.63 367.625 1106.28 358.958 1097.85 358.217C1097.25 358.163 1096.75 355.505 1096.42 354.008C1095.22 348.606 1094.95 342.776 1088.32 340.484C1087.32 340.141 1086.63 338.169 1086.28 336.821C1085.28 332.978 1084.61 329.042 1083.62 325.191C1083.34 324.092 1082.56 323.001 1081.73 322.183C1058.78 299.493 1065.16 308.417 1055.66 281.51C1055.14 280.053 1053.37 278.852 1053.28 277.457C1053.01 273.435 1047.98 271.494 1049.51 266.233C1050.35 263.364 1047.06 259.42 1046.05 255.843C1045.7 254.588 1046.83 252.99 1046.88 251.532C1047.03 246.31 1053.47 244.735 1053.5 238.874C1053.52 234.945 1059.77 232.428 1058.61 227.151C1063.41 222.357 1068.02 217.369 1073.04 212.816C1082.68 204.063 1082.78 204.102 1086.28 190.524C1086.56 189.425 1087.9 188.56 1088.07 187.476C1088.67 183.649 1093.99 180.048 1088.79 175.878C1094.04 170.538 1089.14 163.024 1092.81 157.186C1093.99 155.316 1094.66 151.785 1093.67 150.148C1089.67 143.468 1091.61 136.367 1091.43 129.484C1091.25 122.5 1088.25 116.132 1088.25 108.938C1088.25 104.682 1083.52 99.9973 1080.78 95.8116C1076.85 89.8175 1078.94 86.7932 1083.87 82.7244C1076.65 77.2292 1075.32 68.9513 1073.6 60.993C1071.82 52.7931 1068.79 45.0998 1064.32 38.1704C1061.98 34.5459 1058.74 31.9659 1062.41 27.5152C1062.71 27.141 1061.71 25.816 1061.51 24.8884C1060.58 20.4766 1060.3 16.4312 1062.49 11.887C1063.92 8.91724 1062.41 4.52888 1062.19 0.436707C1067.53 0.436707 1073.77 0.436707 1080.03 0.436707C1082.04 2.35418 1084.19 4.38857 1086.78 6.86726C1085.98 8.18455 1084.76 9.4161 1084.44 10.8425C1083.27 16.1273 1082.08 21.451 1087.43 25.5977C1088.28 26.2603 1088.59 28.6532 1088.08 29.76C1087.46 31.1241 1086.74 31.4671 1087.62 33.5092C1091.56 42.5276 1096.12 51.4524 1096.4 61.64C1101.75 67.1274 1100.09 75.4209 1104.13 81.2902C1107.99 86.9023 1108.4 93.8863 1112.74 99.4516C1115.42 102.905 1116.5 108.361 1116.57 112.944C1116.75 125.377 1121.03 137.474 1119.3 150.007C1118.92 152.775 1120.45 155.947 1117.52 158.168C1117.21 158.402 1116.76 158.831 1116.8 159.112C1117.4 163.664 1121.82 167.654 1118.18 172.869C1115.41 176.837 1113.19 181.248 1114.22 186.455C1109.35 188.973 1116.96 193.003 1113.25 195.341C1109.22 197.882 1109.77 202.426 1107.93 205.895C1106.28 209.005 1104.89 212.263 1103.4 215.451C1101.9 218.639 1100.88 222.209 1098.78 224.937C1095.96 228.601 1092.46 231.789 1088.96 234.86C1085.93 237.51 1080.82 239.084 1079.66 242.249C1077.99 246.848 1073.23 246.653 1070.84 250.901C1074.19 256.373 1073.85 264.066 1079.55 269.234C1080.37 269.967 1081.25 271.448 1081.04 272.336C1079.2 280.349 1085.16 285.119 1088.64 290.848C1091.74 295.954 1093.89 301.465 1098.09 306.196C1100.73 309.173 1098.69 315.924 1103.88 318.854C1106.02 333.072 1117.3 342.838 1121.95 355.863C1122.85 358.404 1125.2 360.446 1127.31 363.307Z"
		fill="#ffffff50"
	/>

	<path
		d="M549.149 126.117C549.453 123.295 549.196 120.216 550.264 117.699C550.943 116.093 555.597 117.418 554.529 113.326C560.665 109.226 564.47 104.23 565.125 96.1933C565.422 92.5454 569.141 88.882 570.77 84.6885C573.203 78.4138 572.158 72.6536 571.488 66.6283C571.417 65.9658 569.803 65.311 569.889 64.8278C570.497 61.367 572.392 57.7659 571.846 54.5623C571.371 51.803 566.412 50.6182 567.238 46.3701C568.112 41.9116 564.166 39.1367 563.27 35.3408C562.817 33.4155 563.457 31.2252 563.667 28.3568C555.356 24.023 557.102 13.7497 553.539 5.36269C551.987 3.60111 546.179 7.82579 547.036 0.335168C554.186 -0.288401 561.578 0.210455 569.632 0C568.572 7.28017 574.567 10.8189 577.062 16.166C577.889 17.951 579.94 19.6892 579.791 21.2949C579.402 25.5975 581.803 28.0294 584.01 31.1395C585.546 33.3064 588.625 36.3385 585.226 40.1111C584.173 41.2803 584.212 44.7956 585.21 46.2142C589.725 52.598 590.645 59.5898 590.333 67.0804C590.302 67.7352 592.805 68.499 594.559 69.4344C595.775 78.5931 597.054 88.235 598.27 97.4093C596.22 99.4592 594.723 100.956 593.569 102.109C593.982 104.448 595.323 107.059 594.535 108.478C592.384 112.32 589.351 115.68 586.629 119.203C583.651 123.061 581.374 128.299 577.437 130.326C573.585 132.314 572.86 137.583 568.065 137.793C567.753 137.809 567.464 138.354 567.16 138.651C561.164 144.637 555.785 151.465 549.001 156.36C543.013 160.686 539.434 166.812 534.218 171.583C531.17 174.373 529.166 177.733 529.392 182.043C530.117 195.668 530.819 197.975 535.068 202.995C538.982 207.625 542.873 212.278 546.584 217.064C550.264 221.819 550.155 221.897 546.912 228.787C549.609 232.747 551.52 237.938 555.231 240.339C559.09 242.841 562.396 245.686 565.624 248.781C567.262 250.355 567.16 250.464 564.954 255.687C566.022 256.754 567.347 258.056 568.65 259.389C571.589 262.398 574.513 265.43 577.445 268.446C574.856 273.871 581.694 273.903 582.668 277.519C583.674 281.253 589.358 282.976 587.62 288.151C595.432 292.68 591.105 301.792 595.027 307.996C596.726 310.685 591.479 314.918 596.648 318.792C593.241 321.754 590.465 324.31 587.534 326.672C584.844 328.839 581.039 328.325 578.926 325.464C578.021 324.24 577.733 322.58 577.062 321.169C576.22 319.4 575.542 316.375 574.341 316.134C563.472 313.928 565.554 303.733 562.334 296.998C559.948 292.01 560.525 291.737 555.582 289.203C555.878 286.881 556.143 284.807 556.408 282.734C555.465 283.178 554.529 283.615 553.383 284.16C553.118 283.989 552.284 283.771 552.058 283.272C547.824 273.942 544.401 264.191 537.54 256.256C533.423 251.485 534.273 245.585 534.195 239.224C530.39 236.566 525.79 234.329 522.601 230.814C519.864 227.805 518.749 223.331 516.878 219.418C518.18 218.124 519.677 216.62 520.706 215.599C519.817 212.325 519.014 209.387 518.172 206.308C516.223 206.082 514.219 205.856 512.215 205.622C512.246 205.466 511.084 194.32 511.022 194.195C506.773 185.465 507.202 176.4 512.199 168.668C515.505 163.547 515.926 157.599 519.739 152.58C526.725 143.374 536.869 137.723 544.05 128.907C545.157 127.496 547.418 127.013 549.149 126.117Z"
		fill="#ffffff50"
	/>
</svg>
